<svg width="24" height="24" viewBox="0 0 24 24" fill="none" xmlns="http://www.w3.org/2000/svg">
<path fill-rule="evenodd" clip-rule="evenodd" d="M16.5227 4.47437C16.4966 1.99924 14.4829 0.000900037 12.0025 3.63578e-05C9.51493 -0.00982971 7.48718 1.9895 7.46115 4.47437H7.25778C4.49188 4.47437 2.25 6.71475 2.25 9.47937V14.9954C2.25 17.76 4.49188 20.0004 7.25778 20.0004H16.7422C19.5081 20.0004 21.75 17.76 21.75 14.9954V9.47937C21.75 6.71475 19.5081 4.47437 16.7422 4.47437H16.5227ZM15.0229 5.97437V7.55504C15.0229 7.96925 15.3587 8.30504 15.7729 8.30504C16.1872 8.30504 16.5229 7.96925 16.5229 7.55504V5.97437H16.7422C18.6805 5.97437 20.25 7.54398 20.25 9.47937V14.9954C20.25 16.9308 18.6805 18.5004 16.7422 18.5004H7.25778C5.31951 18.5004 3.75 16.9308 3.75 14.9954V9.47937C3.75 7.54398 5.31951 5.97437 7.25778 5.97437H7.46094V7.55504C7.46094 7.96925 7.79672 8.30504 8.21094 8.30504C8.62515 8.30504 8.96094 7.96925 8.96094 7.55504V5.97437H15.0229ZM15.0226 4.47437C14.9966 2.82691 13.6534 1.50004 12.0009 1.50004H11.9977C10.3392 1.49287 8.98713 2.82111 8.96128 4.47437H15.0226Z" fill="#C7A17A"/>
</svg>
