<svg width="161" height="32" viewBox="0 0 161 32" fill="none" xmlns="http://www.w3.org/2000/svg">
<g clip-path="url(#clip0_2162_3352)">
<path d="M16.3622 32C15.8629 32 15.4265 31.9282 15.0538 31.7854C14.6822 31.6415 14.3724 31.439 14.1248 31.1755C13.8772 30.9129 13.6941 30.5976 13.5731 30.2282C13.4517 29.8603 13.3914 29.4511 13.3914 29.0028C13.3914 28.5609 13.4561 28.1577 13.5853 27.7921C13.713 27.4249 13.9044 27.1115 14.1572 26.8477C14.4093 26.5854 14.7243 26.3818 15.0996 26.2348C15.4753 26.0894 15.9117 26.0158 16.4057 26.0158C16.742 26.0158 17.0372 26.0406 17.2874 26.0894C17.5391 26.1383 17.7495 26.2067 17.9189 26.2905C18.0887 26.3761 18.2149 26.4753 18.2998 26.5907C18.3836 26.7064 18.4267 26.8312 18.4267 26.9631C18.4267 27.0593 18.404 27.148 18.3593 27.2321C18.315 27.3163 18.2473 27.3896 18.1575 27.4535C18.0686 27.5162 17.9595 27.5666 17.8303 27.6015C17.7022 27.6384 17.5514 27.6564 17.3805 27.6564C17.3805 27.4918 17.3619 27.3408 17.3213 27.2021C17.2826 27.0653 17.2219 26.9469 17.1381 26.8477C17.0547 26.7496 16.9512 26.6737 16.8246 26.6193C16.698 26.5651 16.5498 26.5377 16.3789 26.5377C16.0844 26.5377 15.8342 26.5922 15.6265 26.7008C15.4206 26.8098 15.2523 26.9687 15.1216 27.1792C14.9909 27.3881 14.8967 27.6466 14.8379 27.9525C14.7783 28.2595 14.7492 28.6086 14.7492 29.0028C14.7492 29.3955 14.7801 29.7431 14.842 30.0475C14.9038 30.3503 15.0032 30.6059 15.142 30.8137C15.2794 31.0207 15.4585 31.1782 15.6778 31.2853C15.899 31.3927 16.1667 31.4472 16.4858 31.4472C16.5852 31.4472 16.6854 31.4431 16.7859 31.4348C16.8853 31.4269 16.9825 31.4115 17.0778 31.3912V30.1914C17.0778 29.9727 17.0294 29.822 16.9311 29.7363C16.8343 29.6521 16.6913 29.6086 16.5014 29.6086H16.3949V29.1794H18.9357V29.6086H18.8281C18.7473 29.6086 18.6758 29.6195 18.6151 29.6386C18.5544 29.6589 18.5049 29.6931 18.4655 29.7405C18.4267 29.7878 18.397 29.8521 18.378 29.9291C18.3605 30.008 18.3512 30.1061 18.3512 30.2226V31.5611C18.0362 31.708 17.7171 31.8181 17.3965 31.8899C17.0748 31.9632 16.7297 32 16.3622 32ZM140.097 31.9185L136.947 27.4279V30.9553C136.947 31.0722 136.959 31.1643 136.98 31.2338C137.003 31.3029 137.033 31.3559 137.069 31.3927C137.106 31.4307 137.15 31.4555 137.201 31.4675C137.253 31.4784 137.306 31.4848 137.362 31.4848H137.701V31.9185H135.59V31.4848H135.929C135.987 31.4848 136.041 31.4784 136.092 31.4675C136.142 31.4555 136.185 31.4307 136.224 31.3927C136.262 31.3559 136.291 31.3029 136.313 31.2338C136.333 31.1643 136.344 31.0722 136.344 30.9553V27.0258C136.344 26.9169 136.333 26.8301 136.31 26.7651C136.288 26.6997 136.257 26.6493 136.22 26.6151C136.181 26.5802 136.138 26.5569 136.088 26.546C136.037 26.5336 135.984 26.5268 135.929 26.5268H135.59V26.0973H137.384L140.236 30.167V27.0258C140.236 26.9169 140.225 26.8301 140.202 26.7651C140.179 26.6997 140.149 26.6493 140.112 26.6151C140.073 26.5802 140.03 26.5569 139.979 26.546C139.929 26.5336 139.876 26.5268 139.821 26.5268H139.482V26.0973H141.593V26.5268H141.254C141.199 26.5268 141.146 26.5336 141.096 26.546C141.045 26.5569 141.002 26.5813 140.963 26.6193C140.925 26.6561 140.896 26.7091 140.874 26.7782C140.854 26.8477 140.843 26.9402 140.843 27.057V31.9185H140.097ZM144.852 31.4213H146.469C146.55 31.4213 146.621 31.4063 146.678 31.3751C146.737 31.3454 146.787 31.3014 146.828 31.2458C146.87 31.1902 146.903 31.1252 146.929 31.0493C146.953 30.9726 146.972 30.89 146.985 30.8005L147.049 30.4184H147.609L147.549 31.9185H142.816V31.4848H143.156C143.213 31.4848 143.267 31.4796 143.318 31.4687C143.368 31.4578 143.411 31.436 143.45 31.4036C143.488 31.3698 143.517 31.321 143.539 31.2556C143.559 31.1902 143.57 31.1045 143.57 30.9986V27.057C143.57 26.9402 143.559 26.8477 143.539 26.7782C143.517 26.7091 143.488 26.6561 143.452 26.6193C143.415 26.5813 143.372 26.5569 143.321 26.546C143.271 26.5336 143.216 26.5268 143.156 26.5268H142.816V26.0973H147.303L147.334 27.5978H146.77L146.731 27.2119C146.709 27.0134 146.66 26.8598 146.581 26.7538C146.502 26.6478 146.38 26.5948 146.214 26.5948H144.852V28.633H146.77V29.1223H144.852V31.4213ZM77.2909 30.0576C77.2909 29.9208 77.3069 29.8058 77.3393 29.7123C77.3717 29.6191 77.4171 29.5439 77.4763 29.4887C77.5348 29.4319 77.6033 29.3921 77.683 29.3684C77.763 29.3448 77.8501 29.3324 77.9451 29.3324C78.0333 29.3324 78.1175 29.3448 78.1979 29.3684C78.2772 29.3921 78.3468 29.4319 78.406 29.4887C78.4652 29.5439 78.5121 29.6191 78.5468 29.7123C78.5818 29.8058 78.5993 29.9208 78.5993 30.0576C78.5993 30.1936 78.5818 30.3083 78.5468 30.4011C78.5121 30.4931 78.4652 30.5679 78.406 30.6247C78.3468 30.681 78.2772 30.722 78.1979 30.7457C78.1175 30.7693 78.0333 30.7814 77.9451 30.7814C77.8501 30.7814 77.763 30.7693 77.683 30.7457C77.6033 30.722 77.5348 30.681 77.4763 30.6247C77.4171 30.5679 77.3717 30.4931 77.3393 30.4011C77.3069 30.3083 77.2909 30.1936 77.2909 30.0576ZM20.2418 31.4848H20.581C20.6361 31.4848 20.6886 31.4796 20.7396 31.4687C20.7895 31.4578 20.8324 31.436 20.8715 31.4036C20.9094 31.3698 20.94 31.321 20.9619 31.2556C20.9846 31.1902 20.9958 31.1045 20.9958 30.9986V27.0258C20.9958 26.9169 20.9846 26.8301 20.9619 26.7651C20.9403 26.6997 20.9094 26.6493 20.8715 26.6151C20.8324 26.5802 20.7895 26.5569 20.7396 26.546C20.6886 26.5336 20.6361 26.5268 20.581 26.5268H20.2418V26.0973H22.8452C23.6084 26.0973 24.1677 26.2269 24.524 26.4836C24.8807 26.7418 25.0587 27.1164 25.0587 27.6072C25.0587 27.8236 25.0274 28.0134 24.9641 28.1806C24.9012 28.3493 24.8174 28.4944 24.7139 28.6195C24.6089 28.7443 24.4916 28.8502 24.3598 28.9359C24.2291 29.0231 24.0947 29.0937 23.9584 29.1494L24.9198 30.8208C24.9883 30.9373 25.0557 31.0369 25.119 31.1211C25.1838 31.2041 25.2482 31.2729 25.3126 31.3274C25.3774 31.3819 25.4429 31.4213 25.5118 31.4472C25.5803 31.4717 25.6518 31.4848 25.7289 31.4848H25.7598V31.9185H25.4958C25.2534 31.9185 25.0434 31.9091 24.8632 31.8914C24.683 31.8722 24.5255 31.8354 24.3896 31.7813C24.2548 31.7268 24.1375 31.652 24.0392 31.557C23.9398 31.4604 23.8482 31.3371 23.7645 31.1861L22.8061 29.3925H22.2688V30.9986C22.2688 31.1064 22.2807 31.1902 22.3027 31.2556C22.3254 31.321 22.3552 31.3698 22.3943 31.4036C22.4323 31.436 22.4766 31.4578 22.5261 31.4687C22.576 31.4796 22.6285 31.4848 22.6836 31.4848H23.031V31.9185H20.2418V31.4848ZM22.2692 28.9183H22.723C22.91 28.9183 23.0663 28.8927 23.1918 28.8424C23.3169 28.792 23.4167 28.7172 23.4904 28.618C23.566 28.5177 23.6196 28.3925 23.6535 28.2434C23.6859 28.0923 23.7019 27.9183 23.7019 27.7184C23.7019 27.5121 23.684 27.3366 23.6468 27.1927C23.6107 27.0503 23.5526 26.9319 23.4733 26.841C23.3951 26.7485 23.2916 26.6816 23.1661 26.6411C23.0395 26.6005 22.8876 26.5802 22.7082 26.5802H22.2696L22.2692 28.9183ZM26.8127 31.9185V31.4848H27.1519C27.2126 31.4848 27.2677 31.4784 27.3172 31.4675C27.3686 31.4555 27.4118 31.4307 27.4479 31.3927C27.4844 31.3559 27.5142 31.3029 27.5354 31.2338C27.5555 31.1643 27.5667 31.0722 27.5667 30.9553V27.0612C27.5667 26.9443 27.5555 26.8515 27.5354 26.7823C27.5142 26.7132 27.4844 26.6602 27.4479 26.6234C27.4114 26.5854 27.3686 26.561 27.3172 26.5501C27.2677 26.5377 27.2126 26.5309 27.1519 26.5309H26.8127V26.0973H29.6018V26.5309H29.2626C29.2049 26.5309 29.1495 26.5377 29.0984 26.5501C29.0474 26.561 29.0031 26.5854 28.9666 26.6234C28.9305 26.6602 28.9007 26.7132 28.8803 26.7823C28.8587 26.8515 28.8482 26.9443 28.8482 27.0612V30.9553C28.8482 31.0722 28.8587 31.1643 28.8803 31.2338C28.9004 31.3029 28.9301 31.3559 28.9666 31.3927C29.0031 31.4307 29.0474 31.4555 29.0984 31.4675C29.1495 31.4784 29.2049 31.4848 29.2626 31.4848H29.6018V31.9185H26.8127ZM30.9102 31.9185V31.4848H31.2494C31.3101 31.4848 31.3652 31.4784 31.4147 31.4675C31.4661 31.4555 31.5093 31.4307 31.5454 31.3927C31.5819 31.3559 31.6117 31.3029 31.6329 31.2338C31.653 31.1643 31.6642 31.0722 31.6642 30.9553V27.057C31.6642 26.9402 31.6534 26.8477 31.6329 26.7782C31.6117 26.7091 31.5819 26.6561 31.5454 26.6193C31.5089 26.5813 31.4661 26.5569 31.4147 26.546C31.3652 26.5336 31.3101 26.5268 31.2494 26.5268H30.9102V26.0973H33.6993V26.5268H33.3601C33.305 26.5268 33.251 26.5336 33.2 26.546C33.149 26.5569 33.1043 26.5802 33.0682 26.6151C33.0317 26.6493 33.0019 26.6997 32.9792 26.7651C32.9561 26.8301 32.9453 26.9169 32.9453 27.0258V31.4213H34.4481C34.638 31.4213 34.7843 31.3601 34.8893 31.2402C34.9958 31.1196 35.071 30.9441 35.1186 30.7133L35.2489 30.1005H35.7028L35.6432 31.9185H30.9102ZM37.0514 31.9185V31.4848H37.3906C37.4513 31.4848 37.5064 31.4784 37.5559 31.4675C37.6073 31.4555 37.6505 31.4307 37.6866 31.3927C37.7231 31.3559 37.7529 31.3029 37.7741 31.2338C37.7942 31.1643 37.8054 31.0722 37.8054 30.9553V27.057C37.8054 26.9402 37.7942 26.8477 37.7741 26.7782C37.7529 26.7091 37.7231 26.6561 37.6866 26.6193C37.6505 26.5813 37.6073 26.5569 37.5559 26.546C37.5064 26.5336 37.4513 26.5268 37.3906 26.5268H37.0514V26.0973H39.8405V26.5268H39.5013C39.4462 26.5268 39.3922 26.5336 39.3412 26.546C39.2902 26.5569 39.2459 26.5802 39.2094 26.6151C39.1729 26.6493 39.1435 26.6997 39.1208 26.7651C39.0977 26.8301 39.0869 26.9169 39.0869 27.0258V31.4213H40.5896C40.7792 31.4213 40.9258 31.3601 41.0308 31.2402C41.1373 31.1196 41.2125 30.9441 41.2602 30.7133L41.3905 30.1005H41.844L41.7848 31.9185H37.0514ZM49.8338 31.9185L49.2779 31.3217C49.1782 31.4228 49.0665 31.5149 48.9436 31.5964C48.8226 31.6795 48.6882 31.7497 48.54 31.8099C48.3933 31.8711 48.2332 31.9169 48.0604 31.9496C47.8884 31.9838 47.7011 32 47.499 32C47.168 32 46.8746 31.9609 46.6191 31.8835C46.3645 31.8046 46.1504 31.6904 45.9769 31.5419C45.803 31.3943 45.6712 31.212 45.5822 30.9963C45.4921 30.781 45.4478 30.5367 45.4478 30.2635C45.4478 30.0245 45.4854 29.8205 45.5591 29.6521C45.6347 29.4838 45.736 29.3384 45.8607 29.2147C45.9873 29.0907 46.1344 28.9863 46.3008 28.8991C46.468 28.8138 46.6433 28.7334 46.8262 28.6586C46.7212 28.5312 46.6296 28.4106 46.5529 28.2948C46.4747 28.1791 46.4114 28.0649 46.3604 27.951C46.3105 27.8368 46.274 27.7199 46.2498 27.6004C46.2271 27.4809 46.2152 27.3516 46.2152 27.2145C46.2152 27.0337 46.2487 26.871 46.3172 26.7241C46.3857 26.5783 46.4885 26.452 46.6229 26.3461C46.7588 26.2401 46.9271 26.1586 47.1307 26.1014C47.3325 26.0443 47.5678 26.0158 47.8359 26.0158C48.0958 26.0158 48.3233 26.0458 48.5154 26.1071C48.7094 26.1683 48.8699 26.2525 48.9961 26.3585C49.1245 26.4644 49.2199 26.5881 49.2846 26.7282C49.3491 26.8695 49.3815 27.0176 49.3815 27.1735C49.3815 27.3381 49.3558 27.4877 49.3062 27.6196C49.2564 27.7526 49.1811 27.8747 49.0799 27.9875C48.979 28.1006 48.8509 28.2065 48.6975 28.3046C48.5437 28.4034 48.3624 28.5011 48.1524 28.5992L48.2116 28.6586L49.3558 29.8724C49.3896 29.6833 49.4124 29.4973 49.4232 29.3124C49.434 29.1276 49.438 28.9592 49.438 28.8044V28.4455H51.207V28.8747H51.0804C50.9918 28.8747 50.9043 28.8803 50.8179 28.8912C50.733 28.9021 50.6526 28.9269 50.5796 28.9645C50.5055 29.0039 50.4407 29.0599 50.3845 29.1332C50.3279 29.205 50.2821 29.3042 50.2482 29.4293C50.2054 29.5815 50.157 29.742 50.0989 29.9144C50.0423 30.0854 49.9738 30.2583 49.893 30.4334L50.6984 31.2811C50.7751 31.3642 50.8678 31.4187 50.978 31.4442C51.0886 31.4717 51.2163 31.4848 51.3604 31.4848H51.436V31.9185H49.8338ZM46.6352 30.303C46.6352 30.4661 46.6605 30.6168 46.7119 30.7554C46.7629 30.8952 46.8344 31.0166 46.9271 31.1196C47.0187 31.2244 47.1307 31.3056 47.2636 31.3657C47.3969 31.4251 47.5436 31.4555 47.7041 31.4555C47.9908 31.4555 48.2317 31.4074 48.4298 31.3127C48.626 31.2188 48.7902 31.091 48.9224 30.932L47.1936 29.0735C47.0805 29.155 46.9892 29.2418 46.9163 29.3342C46.8437 29.4252 46.7871 29.5218 46.7454 29.6251C46.7022 29.7269 46.6739 29.8344 46.6579 29.9471C46.6433 30.0595 46.6352 30.1794 46.6352 30.303ZM48.403 27.1818C48.403 27.0871 48.3948 26.9984 48.3773 26.9157C48.3609 26.8327 48.3311 26.762 48.2898 26.7008C48.2466 26.6395 48.1889 26.5922 48.1159 26.5569C48.0418 26.5231 47.9491 26.505 47.8359 26.505C47.7454 26.505 47.6676 26.5231 47.6017 26.5569C47.5343 26.5922 47.4789 26.6395 47.4375 26.7008C47.3958 26.762 47.3634 26.8342 47.3429 26.9184C47.3214 27.0014 47.3109 27.092 47.3109 27.1901C47.3109 27.2821 47.3214 27.3719 47.3429 27.4565C47.3634 27.5422 47.394 27.6263 47.436 27.7094C47.4766 27.7932 47.5287 27.8774 47.592 27.9619C47.6542 28.0476 47.7283 28.1374 47.8132 28.2336C47.9264 28.1697 48.0202 28.1017 48.0958 28.0299C48.1725 27.9578 48.2332 27.8804 48.2775 27.7973C48.3222 27.7135 48.3546 27.6207 48.3747 27.5204C48.3933 27.4197 48.403 27.3069 48.403 27.1818ZM59.3912 27.5786C59.3912 27.7582 59.367 27.9157 59.3186 28.0502C59.2698 28.1832 59.1998 28.299 59.1112 28.3967C59.0211 28.4929 58.9146 28.5759 58.7895 28.6454C58.664 28.7131 58.5251 28.7717 58.3732 28.8206V28.86C58.559 28.9074 58.7303 28.9727 58.8837 29.0569C59.0371 29.1415 59.1689 29.2429 59.2806 29.3639C59.3923 29.4849 59.4787 29.6247 59.5405 29.7837C59.6023 29.943 59.6335 30.1222 59.6335 30.3218C59.6335 30.8576 59.4396 31.2582 59.0535 31.5216C58.6666 31.7866 58.0906 31.9185 57.3229 31.9185H54.7195V31.4848H55.052C55.1112 31.4848 55.1678 31.4784 55.2188 31.4675C55.2698 31.4555 55.3145 31.4307 55.3506 31.3927C55.3886 31.3559 55.418 31.3029 55.4396 31.2338C55.4623 31.1643 55.4735 31.0722 55.4735 30.9553V27.0488C55.4735 26.9402 55.4623 26.8515 55.4396 26.7838C55.418 26.717 55.3871 26.664 55.3491 26.6275C55.3104 26.5896 55.2657 26.5636 55.2151 26.5501C55.1637 26.5351 55.1097 26.5268 55.052 26.5268H54.7195V26.0973H57.0794C57.8471 26.0973 58.4242 26.2172 58.8111 26.4562C59.1972 26.694 59.3912 27.0691 59.3912 27.5786ZM56.7469 31.4213H57.2827C57.4617 31.4213 57.6137 31.4006 57.7406 31.3616C57.8668 31.3217 57.9692 31.2567 58.0474 31.1684C58.1267 31.079 58.1833 30.9636 58.2198 30.8193C58.2544 30.6765 58.2723 30.5014 58.2723 30.2932C58.2723 30.0952 58.2574 29.9208 58.2254 29.7747C58.1941 29.6262 58.1405 29.5056 58.0634 29.409C57.9882 29.3139 57.8869 29.2418 57.7648 29.1941C57.6408 29.1467 57.4859 29.1223 57.2987 29.1223H56.7469V31.4213ZM56.7469 28.6251H57.0552C57.245 28.6251 57.4029 28.6045 57.5265 28.565C57.6516 28.5256 57.7525 28.4636 57.8266 28.3801C57.9022 28.2963 57.9558 28.1874 57.9867 28.0558C58.0176 27.9224 58.034 27.7635 58.034 27.5775C58.034 27.3911 58.0161 27.2363 57.9815 27.1115C57.945 26.986 57.8884 26.8842 57.8091 26.8083C57.7298 26.7309 57.6274 26.6752 57.5008 26.6426C57.3746 26.6099 57.2208 26.5922 57.0392 26.5922H56.7469V28.6251ZM62.3791 30.0024L62.1464 30.7036C62.1244 30.7705 62.1032 30.8479 62.0801 30.9373C62.0589 31.026 62.0466 31.1034 62.0466 31.1699C62.0466 31.2229 62.0574 31.2687 62.079 31.3097C62.1002 31.3495 62.1274 31.3819 62.1609 31.4074C62.1963 31.4318 62.235 31.451 62.2782 31.4645C62.3214 31.4784 62.3668 31.4848 62.4145 31.4848H62.7533V31.9185H60.6507V31.4848H60.7502C60.8202 31.4848 60.8861 31.4769 60.9456 31.4604C61.0045 31.4442 61.0596 31.4145 61.1109 31.371C61.1623 31.3274 61.2107 31.2676 61.2565 31.1902C61.3019 31.1128 61.3489 31.0136 61.3965 30.8911L63.148 26.0973H64.256L65.9442 30.8994C65.9833 31.0136 66.0249 31.1087 66.0681 31.1834C66.1124 31.2597 66.1594 31.3191 66.2107 31.3627C66.2617 31.4074 66.3157 31.4375 66.3735 31.4563C66.4315 31.4758 66.4922 31.4848 66.5551 31.4848H66.7022V31.9185H64.0352V31.4848H64.3502C64.3908 31.4848 64.431 31.4784 64.4727 31.4675C64.5144 31.4555 64.5524 31.436 64.5855 31.4104C64.6179 31.386 64.6451 31.3533 64.6663 31.3138C64.6864 31.2729 64.6976 31.2255 64.6976 31.1699C64.6976 31.1034 64.6894 31.0395 64.6745 30.9783L64.6276 30.8193L64.3431 30.0024H62.3791ZM63.7549 28.1682L63.6662 27.8747L63.5761 27.5625L63.4883 27.2457L63.4157 26.9454L63.3338 27.216L63.2328 27.5189L63.1264 27.83L63.0255 28.1276L62.5489 29.5056H64.1804L63.7549 28.1682ZM67.7864 31.4848H68.126C68.1807 31.4848 68.2332 31.4796 68.2846 31.4687C68.3345 31.4578 68.3773 31.436 68.4164 31.4036C68.454 31.3698 68.4849 31.321 68.5065 31.2556C68.5296 31.1902 68.5404 31.1045 68.5404 30.9986V27.0258C68.5404 26.9169 68.5296 26.8301 68.5065 26.7651C68.4849 26.6997 68.454 26.6493 68.4164 26.6151C68.3773 26.5802 68.3345 26.5569 68.2846 26.546C68.2332 26.5336 68.1807 26.5268 68.126 26.5268H67.7864V26.0973H70.3901C71.1534 26.0973 71.7123 26.2269 72.069 26.4836C72.4257 26.7418 72.6036 27.1164 72.6036 27.6072C72.6036 27.8236 72.5724 28.0134 72.5091 28.1806C72.4461 28.3493 72.3624 28.4944 72.2589 28.6195C72.1539 28.7443 72.0366 28.8502 71.9048 28.9359C71.7741 29.0231 71.6397 29.0937 71.5034 29.1494L72.4648 30.8208C72.5333 30.9373 72.6007 31.0369 72.6643 31.1211C72.7287 31.2041 72.7935 31.2729 72.8579 31.3274C72.9227 31.3819 72.9883 31.4213 73.0571 31.4472C73.1256 31.4717 73.1975 31.4848 73.2742 31.4848H73.3047V31.9185H73.0407C72.7987 31.9185 72.5884 31.9091 72.4082 31.8914C72.228 31.8722 72.0705 31.8354 71.9346 31.7813C71.7998 31.7268 71.6825 31.652 71.5842 31.557C71.4848 31.4604 71.3932 31.3371 71.3094 31.1861L70.351 29.3925H69.8138V30.9986C69.8138 31.1064 69.8261 31.1902 69.8477 31.2556C69.8704 31.321 69.9002 31.3698 69.9392 31.4036C69.9769 31.436 70.0215 31.4578 70.0711 31.4687C70.1209 31.4796 70.1734 31.4848 70.2285 31.4848H70.5759V31.9185H67.7864V31.4848ZM69.8138 28.9183H70.2676C70.4546 28.9183 70.6109 28.8927 70.7364 28.8424C70.8615 28.792 70.9609 28.7172 71.035 28.618C71.1106 28.5177 71.1642 28.3925 71.1977 28.2434C71.2301 28.0923 71.2465 27.9183 71.2465 27.7184C71.2465 27.5121 71.2286 27.3366 71.191 27.1927C71.1549 27.0503 71.0968 26.9319 71.0175 26.841C70.9393 26.7485 70.8358 26.6816 70.7107 26.6411C70.5837 26.6005 70.4318 26.5802 70.2527 26.5802H69.8138V28.9183ZM87.8703 31.9185V31.4848H87.9484C88.033 31.4848 88.1074 31.4796 88.1718 31.4687C88.2366 31.4578 88.2891 31.4375 88.3308 31.4048C88.374 31.374 88.4045 31.3274 88.4265 31.2676C88.4466 31.2079 88.457 31.1293 88.457 31.0312V26.9018L86.8285 31.9185H86.2804L84.5718 26.9018V30.9553C84.5718 31.0722 84.5856 31.1643 84.6139 31.2338C84.6418 31.3029 84.6809 31.3559 84.7323 31.3927C84.7833 31.4307 84.8455 31.4555 84.9192 31.4675C84.9933 31.4784 85.0767 31.4848 85.172 31.4848H85.2196V31.9185H83.215V31.4848H83.5542C83.6119 31.4848 83.6659 31.4796 83.7169 31.4687C83.7668 31.4578 83.81 31.436 83.8487 31.4036C83.8867 31.3698 83.9165 31.321 83.9377 31.2556C83.9578 31.1902 83.969 31.1045 83.969 30.9986V27.0258C83.969 26.9169 83.9578 26.8301 83.9377 26.7651C83.9165 26.6997 83.8867 26.6493 83.8487 26.6151C83.81 26.5802 83.7668 26.5569 83.7169 26.546C83.6659 26.5336 83.6119 26.5268 83.5542 26.5268H83.215V26.0973H85.5428L86.8832 30.0351L88.1692 26.0973H90.4538V26.5268H90.1147C90.0569 26.5268 90.0026 26.5336 89.9531 26.546C89.902 26.5569 89.8589 26.5813 89.8224 26.6193C89.7863 26.6561 89.7565 26.7091 89.7353 26.7782C89.7151 26.8477 89.704 26.9402 89.704 27.057V30.9553C89.704 31.0722 89.7151 31.1643 89.7353 31.2338C89.7565 31.3029 89.7863 31.3559 89.8224 31.3927C89.8589 31.4307 89.902 31.4555 89.9531 31.4675C90.0026 31.4784 90.0569 31.4848 90.1147 31.4848H90.4538V31.9185H87.8703ZM93.8015 31.4213H95.4185C95.5008 31.4213 95.5708 31.4063 95.6285 31.3751C95.6866 31.3454 95.7364 31.3014 95.7778 31.2458C95.8198 31.1902 95.8534 31.1252 95.8787 31.0493C95.9033 30.9726 95.9222 30.89 95.9353 30.8005L95.9989 30.4184H96.5589L96.4994 31.9185H91.7663V31.4848H92.1055C92.1632 31.4848 92.2172 31.4796 92.2682 31.4687C92.3181 31.4578 92.3609 31.436 92.4 31.4036C92.4376 31.3698 92.4674 31.321 92.4886 31.2556C92.5091 31.1902 92.5199 31.1045 92.5199 30.9986V27.057C92.5199 26.9402 92.5091 26.8477 92.4886 26.7782C92.4674 26.7091 92.4376 26.6561 92.4015 26.6193C92.365 26.5813 92.3222 26.5569 92.2708 26.546C92.2213 26.5336 92.1658 26.5268 92.1055 26.5268H91.7663V26.0973H96.2529L96.2841 27.5978H95.7201L95.681 27.2119C95.6598 27.0134 95.6099 26.8598 95.5305 26.7538C95.452 26.6478 95.3295 26.5948 95.1638 26.5948H93.8015V28.633H95.7201V29.1223H93.8015V31.4213ZM99.4337 30.0024L99.201 30.7036C99.1794 30.7705 99.1578 30.8479 99.1347 30.9373C99.1135 31.026 99.1016 31.1034 99.1016 31.1699C99.1016 31.2229 99.112 31.2687 99.1336 31.3097C99.1552 31.3495 99.1824 31.3819 99.2155 31.4074C99.2509 31.4318 99.29 31.451 99.3328 31.4645C99.376 31.4784 99.4218 31.4848 99.469 31.4848H99.8079V31.9185H97.7053V31.4848H97.8047C97.8751 31.4848 97.9406 31.4769 98.0002 31.4604C98.0594 31.4442 98.1145 31.4145 98.1659 31.371C98.2169 31.3274 98.2653 31.2676 98.3111 31.1902C98.3569 31.1128 98.4038 31.0136 98.4511 30.8911L100.203 26.0973H101.311L102.999 30.8994C103.038 31.0136 103.08 31.1087 103.123 31.1834C103.167 31.2597 103.214 31.3191 103.265 31.3627C103.317 31.4074 103.371 31.4375 103.428 31.4563C103.486 31.4758 103.547 31.4848 103.61 31.4848H103.757V31.9185H101.09V31.4848H101.405C101.445 31.4848 101.486 31.4784 101.527 31.4675C101.569 31.4555 101.607 31.436 101.64 31.4104C101.672 31.386 101.7 31.3533 101.721 31.3138C101.741 31.2729 101.752 31.2255 101.752 31.1699C101.752 31.1034 101.744 31.0395 101.729 30.9783L101.682 30.8193L101.398 30.0024H99.4337ZM100.81 28.1682L100.721 27.8747L100.631 27.5625L100.543 27.2457L100.47 26.9454L100.389 27.216L100.287 27.5189L100.181 27.83L100.08 28.1276L99.6035 29.5056H101.235L100.81 28.1682ZM107.409 30.9553C107.409 31.0722 107.419 31.1643 107.441 31.2338C107.461 31.3029 107.491 31.3559 107.528 31.3927C107.567 31.4307 107.612 31.4555 107.662 31.4675C107.712 31.4784 107.765 31.4848 107.823 31.4848H108.163V31.9185H105.373V31.4848H105.712C105.773 31.4848 105.828 31.4784 105.878 31.4675C105.929 31.4555 105.972 31.4307 106.009 31.3927C106.045 31.3559 106.075 31.3029 106.096 31.2338C106.116 31.1643 106.127 31.0722 106.127 30.9553V26.5948H105.481C105.361 26.5948 105.26 26.6084 105.178 26.6354C105.097 26.6617 105.031 26.6997 104.98 26.7485C104.929 26.7974 104.89 26.8586 104.866 26.9304C104.84 27.0014 104.822 27.083 104.812 27.1735L104.757 27.6789H104.213L104.255 26.0973H109.287L109.326 27.6789H108.786L108.727 27.1735C108.716 27.083 108.698 27.0014 108.673 26.9304C108.649 26.8586 108.609 26.7974 108.558 26.7485C108.507 26.6997 108.441 26.6617 108.359 26.6354C108.278 26.6084 108.176 26.5948 108.056 26.5948H107.409V30.9553ZM117.13 31.9185L116.574 31.3217C116.474 31.4228 116.362 31.5149 116.24 31.5964C116.118 31.6795 115.984 31.7497 115.836 31.8099C115.689 31.8711 115.529 31.9169 115.357 31.9496C115.184 31.9838 114.997 32 114.795 32C114.464 32 114.17 31.9609 113.915 31.8835C113.66 31.8046 113.446 31.6904 113.272 31.5419C113.099 31.3943 112.967 31.212 112.878 30.9963C112.788 30.781 112.743 30.5367 112.743 30.2635C112.743 30.0245 112.781 29.8205 112.855 29.6521C112.931 29.4838 113.032 29.3384 113.157 29.2147C113.283 29.0907 113.43 28.9863 113.597 28.8991C113.764 28.8138 113.939 28.7334 114.122 28.6586C114.017 28.5312 113.925 28.4106 113.849 28.2948C113.771 28.1791 113.707 28.0649 113.656 27.951C113.606 27.8368 113.57 27.7199 113.546 27.6004C113.523 27.4809 113.511 27.3516 113.511 27.2145C113.511 27.0337 113.544 26.871 113.613 26.7241C113.682 26.5783 113.784 26.452 113.919 26.3461C114.055 26.2401 114.223 26.1586 114.426 26.1014C114.628 26.0443 114.864 26.0158 115.132 26.0158C115.392 26.0158 115.619 26.0458 115.811 26.1071C116.005 26.1683 116.166 26.2525 116.292 26.3585C116.42 26.4644 116.516 26.5881 116.581 26.7282C116.645 26.8695 116.677 27.0176 116.677 27.1735C116.677 27.3381 116.652 27.4877 116.602 27.6196C116.552 27.7526 116.477 27.8747 116.376 27.9875C116.275 28.1006 116.147 28.2065 115.993 28.3046C115.84 28.4034 115.658 28.5011 115.448 28.5992L115.508 28.6586L116.652 29.8724C116.685 29.6833 116.708 29.4973 116.719 29.3124C116.73 29.1276 116.734 28.9592 116.734 28.8044V28.4455H118.503V28.8747H118.376C118.288 28.8747 118.2 28.8803 118.114 28.8912C118.029 28.9021 117.948 28.9269 117.876 28.9645C117.801 29.0039 117.737 29.0599 117.68 29.1332C117.624 29.205 117.578 29.3042 117.545 29.4293C117.501 29.5815 117.453 29.742 117.395 29.9144C117.338 30.0854 117.27 30.2583 117.189 30.4334L117.994 31.2811C118.071 31.3642 118.164 31.4187 118.274 31.4442C118.384 31.4717 118.512 31.4848 118.656 31.4848H118.732V31.9185H117.13ZM113.931 30.303C113.931 30.4661 113.956 30.6168 114.008 30.7554C114.059 30.8952 114.13 31.0166 114.223 31.1196C114.315 31.2244 114.426 31.3056 114.56 31.3657C114.693 31.4251 114.84 31.4555 115 31.4555C115.287 31.4555 115.528 31.4074 115.725 31.3127C115.922 31.2188 116.086 31.091 116.218 30.932L114.49 29.0735C114.376 29.155 114.285 29.2418 114.212 29.3342C114.14 29.4252 114.083 29.5218 114.041 29.6251C113.998 29.7269 113.97 29.8344 113.954 29.9471C113.939 30.0595 113.931 30.1794 113.931 30.303ZM115.699 27.1818C115.699 27.0871 115.691 26.9984 115.673 26.9157C115.657 26.8327 115.627 26.762 115.586 26.7008C115.542 26.6395 115.485 26.5922 115.412 26.5569C115.338 26.5231 115.245 26.505 115.132 26.505C115.041 26.505 114.964 26.5231 114.898 26.5569C114.83 26.5922 114.775 26.6395 114.733 26.7008C114.691 26.762 114.659 26.8342 114.639 26.9184C114.617 27.0014 114.606 27.092 114.606 27.1901C114.606 27.2821 114.617 27.3719 114.639 27.4565C114.659 27.5422 114.69 27.6263 114.732 27.7094C114.772 27.7932 114.825 27.8774 114.888 27.9619C114.95 28.0476 115.024 28.1374 115.109 28.2336C115.222 28.1697 115.316 28.1017 115.392 28.0299C115.468 27.9578 115.529 27.8804 115.573 27.7973C115.618 27.7135 115.65 27.6207 115.671 27.5204C115.689 27.4197 115.699 27.3069 115.699 27.1818ZM126.67 26.1533L127.785 29.2677C127.834 29.394 127.877 29.5244 127.918 29.6548L128.03 30.0309L128.12 30.3612C128.147 30.4631 128.167 30.5487 128.18 30.6209L128.247 30.2951L128.323 29.9186L128.411 29.5135C128.441 29.3763 128.472 29.2418 128.503 29.111L128.93 27.3516L128.955 27.2404L128.981 27.1157L128.998 26.9999L129.004 26.9142C129.004 26.7729 128.963 26.6737 128.88 26.6151C128.798 26.5569 128.666 26.5268 128.488 26.5268H128.302V26.0973H130.408V26.5268H130.254C130.175 26.5268 130.106 26.5351 130.045 26.5516C129.985 26.5678 129.931 26.599 129.884 26.6452C129.837 26.6914 129.794 26.7553 129.755 26.8383C129.717 26.921 129.679 27.03 129.643 27.1645L128.39 31.9185H127.47L126.113 28.0923L124.95 31.9185H123.948L122.47 26.9616C122.446 26.8763 122.418 26.8068 122.384 26.7512C122.349 26.694 122.308 26.6508 122.263 26.6166C122.217 26.5839 122.164 26.561 122.105 26.5475C122.046 26.5336 121.977 26.5268 121.898 26.5268H121.791V26.0973H124.489V26.5268H124.303C124.141 26.5268 124.02 26.5595 123.939 26.6234C123.859 26.6876 123.819 26.7865 123.819 26.921C123.819 26.9672 123.827 27.0326 123.844 27.1183C123.862 27.2047 123.881 27.2851 123.902 27.3595L124.442 29.2429L124.534 29.58C124.567 29.6999 124.598 29.822 124.627 29.9453C124.656 30.0693 124.682 30.1876 124.706 30.3015C124.729 30.4157 124.747 30.5176 124.757 30.6047C124.794 30.4296 124.834 30.2665 124.877 30.1125C124.92 29.9607 124.966 29.8043 125.013 29.6454L126.078 26.1533H126.67ZM131.492 31.9185V31.4848H131.832C131.892 31.4848 131.947 31.4784 131.997 31.4675C132.048 31.4555 132.091 31.4307 132.128 31.3927C132.164 31.3559 132.193 31.3029 132.215 31.2338C132.235 31.1643 132.246 31.0722 132.246 30.9553V27.0612C132.246 26.9443 132.235 26.8515 132.215 26.7823C132.193 26.7132 132.164 26.6602 132.128 26.6234C132.091 26.5854 132.048 26.561 131.997 26.5501C131.947 26.5377 131.892 26.5309 131.832 26.5309H131.492V26.0973H134.281V26.5309H133.942C133.885 26.5309 133.829 26.5377 133.778 26.5501C133.727 26.561 133.683 26.5854 133.646 26.6234C133.61 26.6602 133.58 26.7132 133.56 26.7823C133.538 26.8515 133.527 26.9443 133.527 27.0612V30.9553C133.527 31.0722 133.538 31.1643 133.56 31.2338C133.58 31.3029 133.61 31.3559 133.646 31.3927C133.683 31.4307 133.727 31.4555 133.778 31.4675C133.829 31.4784 133.885 31.4848 133.942 31.4848H134.281V31.9185H131.492Z" fill="#C7A17A"/>
<path d="M152.538 12.1293C151.941 13.0992 151.344 14.0695 150.755 15.045C150.156 16.0366 149.55 17.0249 148.944 18.0117C148.677 18.4454 148.375 18.8738 148.03 19.2495C147.733 19.5712 147.385 19.8222 146.986 20.0007C146.538 20.2014 146.014 20.2912 145.528 20.331C144.834 20.3885 144.113 20.3731 143.418 20.3468L143.02 20.3303L142.881 20.3254V18.8809H143.024L143.13 18.8831C143.4 18.8948 143.656 18.8647 143.914 18.7877C144.16 18.714 144.394 18.5863 144.6 18.4315C144.848 18.2462 145.072 18.0234 145.276 17.7911C145.529 17.5025 145.753 17.182 145.961 16.8581C146.557 15.925 147.173 15.007 147.771 14.0755C148.343 13.1856 148.923 12.3007 149.502 11.4165C149.072 11.2417 148.657 11.0272 148.265 10.7784C147.79 10.4774 147.376 10.1065 147.017 9.67324C146.625 9.19826 146.333 8.6391 146.128 8.05665C145.88 7.34681 145.788 6.5806 145.788 5.83055C145.788 4.11551 146.34 2.62367 147.779 1.64364C149.366 0.562536 151.555 0.308139 153.424 0.309266C155.882 0.311897 158.341 0.313778 160.799 0.313778H160.942V1.81125H160.417C160.129 1.8105 159.843 1.82515 159.557 1.86686C159.315 1.90218 159.074 1.9747 158.869 2.11337C158.672 2.24451 158.523 2.43879 158.419 2.6511C158.282 2.93557 158.251 3.28391 158.251 3.59543V17.7449C158.251 18.0587 158.284 18.4123 158.42 18.6986C158.522 18.9132 158.672 19.1097 158.869 19.2431C159.078 19.3848 159.319 19.4682 159.564 19.5163C159.848 19.5731 160.134 19.6001 160.423 19.6118L160.805 19.6283L160.942 19.6347V21.1307L160.792 21.1239C158.051 20.9928 155.31 20.8642 152.57 20.735L152.433 20.729V19.2559L152.932 19.2781C153.223 19.2916 153.517 19.2886 153.808 19.2567C154.041 19.233 154.277 19.1691 154.483 19.0538C154.685 18.9384 154.834 18.7742 154.941 18.566C155.075 18.3007 155.107 17.9433 155.107 17.6502V12.2011L152.538 12.1293ZM5.85951 11.1959V17.4481C5.85951 17.7709 5.89153 18.1665 6.02892 18.4615C6.13019 18.6783 6.27391 18.8756 6.47497 19.0056C6.68198 19.1413 6.92102 19.2078 7.16266 19.2375C7.45159 19.2732 7.74498 19.2788 8.03615 19.2664C8.15901 19.2608 8.28188 19.2563 8.40512 19.2537L8.5507 19.251V20.7199L8.41406 20.7267C5.67856 20.8537 2.94343 20.9845 0.207922 21.1107L0.0575012 21.1175V19.6182L0.198614 19.6159L0.544136 19.6028C0.835669 19.59 1.13055 19.5625 1.41836 19.5039C1.65814 19.4551 1.89383 19.366 2.10047 19.2322C2.30563 19.1003 2.44339 18.9061 2.5469 18.6874C2.68242 18.3995 2.71556 18.0478 2.71556 17.7333V3.57777C2.71556 3.26625 2.68503 2.91528 2.54727 2.63081C2.44264 2.41399 2.30376 2.22648 2.10047 2.09533C1.89681 1.96381 1.66485 1.88151 1.42544 1.84619C1.13688 1.80297 0.841999 1.78907 0.550465 1.7902H0.0571289V0.291976H0.20122C2.93672 0.291976 5.67111 0.289353 8.40736 0.28785H8.55033V1.76315H8.40736L8.04173 1.76503C7.74833 1.76503 7.4568 1.78945 7.16787 1.83718C6.92251 1.87738 6.68422 1.95517 6.47832 2.09834C6.27838 2.23813 6.13056 2.43391 6.02929 2.65562C5.89041 2.95548 5.85876 3.33953 5.85876 3.66645V9.71157C6.16482 9.70292 6.47497 9.68714 6.77618 9.64543C6.99176 9.61574 7.22149 9.5684 7.42478 9.48873C7.56664 9.43312 7.69993 9.35082 7.80567 9.24034C7.92519 9.11559 8.05476 9.00248 8.16162 8.8642C8.49374 8.43544 8.78564 7.87252 9.02691 7.38627C9.45993 6.51221 9.89965 5.64079 10.3397 4.76936C10.6696 4.11438 11.033 3.47631 11.4262 2.85628C11.7576 2.33433 12.1362 1.82928 12.5756 1.39226C12.9669 1.00333 13.4122 0.680906 13.9126 0.451682C14.4115 0.222458 14.9361 0.116492 15.4838 0.116492C15.8525 0.116492 16.2333 0.148435 16.5886 0.256283C16.8615 0.338578 17.1389 0.457698 17.3559 0.648968C17.5454 0.816941 17.6851 1.027 17.777 1.26336C17.8682 1.49898 17.9193 1.74961 17.9193 2.00326C17.9193 2.26593 17.8809 2.51846 17.7956 2.76647C17.7201 2.98555 17.6203 3.19898 17.4695 3.37785C17.3328 3.54094 17.1854 3.68374 17.0018 3.79497C16.8265 3.90018 16.644 3.97647 16.443 4.01893L16.3071 4.04748L16.2747 3.9107C16.2281 3.71831 16.1797 3.52141 16.1001 3.33991C16.0256 3.16968 15.9206 3.01711 15.7944 2.88145C15.6715 2.74805 15.5337 2.65036 15.3654 2.58384C15.1674 2.50493 14.9659 2.47035 14.7533 2.47073C14.1639 2.47223 13.6676 2.81645 13.2793 3.23619C12.6489 3.91822 12.1143 4.88885 11.6909 5.71293C11.4292 6.22211 11.1686 6.73166 10.9102 7.24234C10.7091 7.63953 10.4954 8.02884 10.2757 8.41514C10.1029 8.71951 9.92497 9.02841 9.7187 9.31212C9.60328 9.47108 9.47818 9.6225 9.34302 9.76417C9.66881 9.78785 9.99385 9.83896 10.3077 9.93027C10.6607 10.034 10.9839 10.185 11.2821 10.4026C11.5703 10.6134 11.8216 10.8772 12.0286 11.1692C12.2625 11.4969 12.4851 11.8302 12.6847 12.1812C13.5634 13.7267 14.4387 15.2734 15.3256 16.8145C15.6726 17.418 16.1254 18.0489 16.7226 18.4213C17.2223 18.7332 17.7815 18.8771 18.3698 18.8542L18.4487 18.8486L18.601 18.8381V20.2912L18.4647 20.2976L18.0648 20.3145C17.3146 20.3445 16.5375 20.3611 15.7884 20.2994C15.2694 20.2562 14.7239 20.1574 14.2462 19.9398C13.8292 19.7497 13.4632 19.4814 13.1665 19.1285C12.8254 18.7257 12.5343 18.2665 12.2852 17.8013C11.4217 16.1869 10.555 14.5726 9.70939 12.9485C9.53477 12.6111 9.3285 12.2593 9.0809 11.9711C8.88729 11.7464 8.65347 11.566 8.38316 11.4465C8.0663 11.3056 7.69472 11.2421 7.35106 11.2184C6.85921 11.1827 6.35508 11.185 5.85951 11.1959ZM37.4256 9.86C37.4256 11.2241 37.2588 12.5889 36.8615 13.8962C36.507 15.0589 35.9646 16.128 35.1897 17.0633C34.4417 17.9659 33.531 18.6682 32.4736 19.165C31.3078 19.7121 30.0416 19.9489 28.7615 19.9943C27.4781 20.0405 26.1485 19.8992 24.9507 19.41C23.8802 18.9733 22.9714 18.3296 22.2286 17.4364C21.4564 16.5075 20.9362 15.4253 20.6037 14.2645C20.2195 12.9233 20.0713 11.5164 20.0713 10.123C20.0713 8.72816 20.2195 7.31712 20.6037 5.97334C20.9377 4.8043 21.4575 3.7123 22.2282 2.7706C22.9654 1.87024 23.8832 1.18671 24.9473 0.721871C26.1563 0.193529 27.4777 0 28.7887 0C30.055 0 31.3034 0.199161 32.4706 0.71172C33.521 1.17355 34.4388 1.84131 35.1883 2.71574C35.9679 3.627 36.507 4.68218 36.8608 5.82792C37.2625 7.13111 37.4256 8.49781 37.4256 9.86ZM44.8699 8.5523C47.7116 8.52487 50.5535 8.50007 53.3959 8.47977V3.38312C53.3959 3.07987 53.3602 2.74505 53.2339 2.46735C53.1382 2.25842 52.9968 2.09195 52.8061 1.96719C52.6125 1.83905 52.3891 1.76502 52.1609 1.73083C51.8831 1.68912 51.602 1.66845 51.3202 1.66995H50.8093V0.287472H50.9527C53.5877 0.287472 56.2215 0.28747 58.8561 0.284839H59.0006V1.65943H58.5065C58.2243 1.65981 57.9432 1.68235 57.6647 1.72444C57.4357 1.75901 57.2127 1.83416 57.0187 1.96193C56.8292 2.08819 56.6873 2.25053 56.5916 2.46096C56.4661 2.73791 56.4293 3.07198 56.4293 3.3741V16.0817C56.4293 16.3557 56.4617 16.6777 56.5886 16.9246C56.6873 17.1155 56.8251 17.2775 57.0112 17.3853C57.2138 17.5014 57.4487 17.5589 57.6777 17.5893C57.9502 17.6247 58.2284 17.6359 58.5024 17.6303L58.8565 17.6262H59.0006V18.9963L58.8587 18.9978C56.2245 19.0402 53.5899 19.0864 50.9549 19.1282L50.8093 19.13V17.7498L50.9501 17.7468L51.3183 17.7408C51.6002 17.7367 51.8816 17.7096 52.1601 17.6656C52.3891 17.6284 52.6114 17.5476 52.8061 17.4176C52.9971 17.2887 53.1379 17.12 53.2339 16.9084C53.3594 16.63 53.3959 16.2948 53.3959 15.9919V10.0618C50.5535 10.0855 47.7116 10.114 44.8699 10.1463V16.1343C44.8699 16.4305 44.8993 16.7814 45.03 17.0512C45.1283 17.2527 45.2687 17.4285 45.4571 17.5499C45.657 17.678 45.8845 17.7457 46.1172 17.7757C46.3965 17.8118 46.6765 17.8253 46.958 17.8186L47.3106 17.8118L47.4558 17.8099V19.1917L47.3161 19.1947C44.6812 19.2563 42.0466 19.316 39.4123 19.3769L39.2656 19.3807V17.985L39.4064 17.982L39.7567 17.976C40.039 17.9685 40.3197 17.9411 40.5975 17.8915C40.8335 17.8501 41.0618 17.7739 41.2598 17.6367C41.4497 17.5052 41.5919 17.3241 41.6906 17.1151C41.818 16.8476 41.8358 16.4785 41.8358 16.1866V3.31698C41.8358 3.03252 41.8064 2.71536 41.6761 2.45795C41.5774 2.26105 41.4337 2.08556 41.2483 1.96757C41.0487 1.83981 40.819 1.77216 40.587 1.73947C40.3119 1.70114 40.0378 1.68611 39.7605 1.68611H39.2656V0.291227L47.4558 0.288973V1.67296H46.9617C46.6806 1.67559 46.3995 1.69626 46.121 1.73835C45.886 1.7748 45.6596 1.84732 45.4601 1.98034C45.2713 2.10698 45.1294 2.28397 45.03 2.48877C44.8993 2.76008 44.8699 3.11369 44.8699 3.41168V8.5523ZM71.4703 9.96183C70.153 9.96446 68.8349 9.9686 67.5176 9.97349V15.8521C67.5176 16.143 67.5481 16.488 67.684 16.7514C67.7883 16.9528 67.9354 17.1294 68.1293 17.2489C68.3386 17.3782 68.5806 17.4439 68.8223 17.4762C69.1127 17.5161 69.4057 17.5352 69.6998 17.5352L70.0651 17.5337H70.2088V18.8982L70.0662 18.9001C67.3251 18.9211 64.584 18.9455 61.8433 18.973L61.6992 18.9745V17.6036L61.84 17.601L62.2063 17.5965C62.4997 17.5939 62.7927 17.5713 63.0832 17.527C63.3263 17.4901 63.5676 17.4187 63.7764 17.2861C63.9689 17.1632 64.1231 16.9874 64.2214 16.7807C64.348 16.5135 64.374 16.1667 64.374 15.8751V3.25724C64.374 2.97766 64.3428 2.66764 64.208 2.41737C64.1022 2.22234 63.9522 2.04911 63.7623 1.93374C63.5586 1.81087 63.3196 1.74248 63.0854 1.71054C62.795 1.67033 62.5009 1.65755 62.2078 1.65755H61.6992V0.285218H70.2088V1.65342H69.6998C69.4057 1.65342 69.1131 1.67484 68.8226 1.71655C68.5799 1.75187 68.3405 1.82027 68.1308 1.95291C67.9376 2.07655 67.7887 2.24827 67.684 2.45307C67.5481 2.71611 67.5176 3.06145 67.5176 3.35381V8.40312C68.8479 8.39786 70.1786 8.3956 71.5097 8.39334C71.5946 7.2461 71.8087 6.10562 72.2067 5.02526C72.5776 4.01743 73.1186 3.0949 73.8669 2.32456C74.6146 1.55534 75.516 0.996935 76.5079 0.607255C77.6465 0.160457 78.8997 0.000378232 80.1157 0.000378232C81.3623 0.000378232 82.6059 0.194279 83.7594 0.68617C84.7974 1.12883 85.7096 1.76991 86.4524 2.62593C87.2168 3.50562 87.7347 4.54389 88.0925 5.6513C88.5002 6.91429 88.6644 8.24265 88.6644 9.56839C88.6644 10.8934 88.4999 12.215 88.0925 13.4776C87.7336 14.5922 87.2068 15.621 86.4357 16.5034C85.6873 17.3586 84.7848 18.0042 83.743 18.451C82.5865 18.9459 81.3314 19.124 80.0822 19.124C78.8238 19.124 77.5295 18.9583 76.3571 18.4766C75.3283 18.0542 74.418 17.4293 73.6793 16.5913C72.9242 15.736 72.3989 14.7361 72.0548 13.6467C71.6795 12.4566 71.5097 11.2079 71.4703 9.96183ZM96.2592 17.3981C98.4686 17.4191 100.677 17.4496 102.886 17.483V3.27602C102.886 3.00622 102.858 2.70935 102.754 2.45833C102.672 2.26218 102.543 2.10848 102.372 1.98673C102.199 1.8631 102.01 1.77968 101.803 1.73571C101.566 1.68536 101.323 1.66356 101.082 1.66356L101.002 1.66131H100.859V0.287097H107.963V1.66957H107.74C107.491 1.66957 107.244 1.69362 107.001 1.74172C106.79 1.78381 106.592 1.85784 106.426 1.99838C106.267 2.13253 106.149 2.32005 106.067 2.50981C105.951 2.77774 105.919 3.09753 105.919 3.38688V17.5296C108.134 17.5634 110.348 17.6063 112.562 17.6536V3.41168C112.562 3.10129 112.521 2.77023 112.385 2.48877C112.285 2.27909 112.148 2.10736 111.956 1.97809C111.763 1.84882 111.538 1.77517 111.31 1.73872C111.034 1.69551 110.749 1.67296 110.471 1.67296H109.96V0.288973L118.166 0.291605V1.68611H117.671C117.389 1.68611 117.109 1.70903 116.829 1.74999C116.59 1.78494 116.372 1.8507 116.17 1.98711C115.984 2.11149 115.852 2.29637 115.756 2.49704C115.621 2.77924 115.579 3.1118 115.579 3.42295V16.2854C115.579 16.5815 115.622 16.8851 115.755 17.1519C115.858 17.3575 115.995 17.5251 116.185 17.6521C116.379 17.7806 116.605 17.8584 116.832 17.8956C117.111 17.9422 117.393 17.9625 117.675 17.9693L118.027 17.9775L118.166 17.982V19.3739L118.019 19.3705C108.947 19.1616 99.8723 19.0128 90.7975 18.9181L90.656 18.9166V17.5476L90.8016 17.5499L91.1516 17.5544C91.429 17.557 91.703 17.5458 91.9774 17.5074C92.2075 17.4762 92.441 17.4142 92.639 17.2891C92.8219 17.1741 92.9678 17.0065 93.0668 16.8149C93.1979 16.5635 93.2266 16.2523 93.2266 15.9735V3.35795C93.2266 3.07198 93.2087 2.71198 93.0817 2.45194C92.9786 2.24075 92.8308 2.08143 92.6361 1.95404C92.4428 1.82552 92.2198 1.753 91.9916 1.7188C91.7127 1.67597 91.432 1.65492 91.1505 1.65492L90.7968 1.65266L90.656 1.64929V0.284465H98.8458V1.65905H98.3513C98.0702 1.65905 97.7887 1.6801 97.5106 1.72181C97.2772 1.75713 97.0478 1.82477 96.8486 1.95517C96.6598 2.08105 96.5202 2.25165 96.4204 2.45607C96.2901 2.7225 96.2592 3.07085 96.2592 3.36395V17.3981ZM126.245 10.3331V16.4263C126.245 16.7431 126.287 17.0839 126.423 17.3729C126.523 17.586 126.66 17.7705 126.854 17.905C127.047 18.0395 127.269 18.1241 127.5 18.1665C127.778 18.2161 128.058 18.2492 128.34 18.256L128.831 18.2706V19.6824L128.684 19.6783C126.055 19.5998 123.425 19.5242 120.796 19.4446L120.658 19.4397V18.0414L120.806 18.0474L121.139 18.0576C121.426 18.0643 121.711 18.0546 121.996 18.017C122.222 17.9873 122.447 17.9182 122.639 17.7938C122.831 17.6694 122.971 17.5033 123.065 17.294C123.193 17.011 123.228 16.6661 123.228 16.3587V3.35343C123.228 3.05807 123.185 2.74731 123.052 2.48088C122.949 2.27721 122.814 2.10698 122.623 1.98185C122.43 1.85671 122.203 1.78382 121.977 1.75037C121.699 1.70904 121.417 1.69438 121.135 1.6925H120.658V0.293485L128.831 0.296109V1.70978H128.337C128.055 1.70866 127.774 1.73008 127.496 1.77329C127.268 1.80824 127.045 1.88377 126.852 2.01454C126.66 2.14419 126.522 2.32155 126.423 2.53086C126.285 2.81908 126.245 3.15727 126.245 3.4733V8.71388C129.093 8.75259 131.94 8.79693 134.788 8.84278V3.52366C134.788 3.21439 134.758 2.84914 134.626 2.56543C134.528 2.35537 134.386 2.16861 134.195 2.03634C133.999 1.89993 133.787 1.8259 133.552 1.78757C133.268 1.74173 132.983 1.72031 132.696 1.72031H132.201V0.297993L132.345 0.298371C134.974 0.299874 137.603 0.302126 140.232 0.302126H140.376V1.74097H140.232L139.897 1.73872C139.616 1.73872 139.334 1.75939 139.056 1.80223C138.821 1.83793 138.595 1.91271 138.397 2.04911C138.205 2.18214 138.065 2.36552 137.967 2.57708C137.838 2.85515 137.821 3.23807 137.821 3.54019V16.8968C137.821 17.1955 137.852 17.5285 137.983 17.7994C138.081 18.0061 138.214 18.1853 138.408 18.3078C138.608 18.4333 138.832 18.516 139.062 18.5604C139.338 18.6145 139.62 18.6404 139.901 18.6509L140.237 18.6652L140.376 18.6701V20.1055L140.226 20.0999C137.598 19.9977 134.968 19.9011 132.34 19.8087L132.201 19.8034V18.3879L132.348 18.3909L132.701 18.4018C132.988 18.41 133.272 18.3988 133.558 18.3649C133.791 18.3368 134.001 18.2703 134.198 18.1402C134.388 18.0136 134.529 17.8344 134.626 17.6284C134.758 17.3511 134.788 16.9836 134.788 16.6796V10.4827C131.94 10.4285 129.093 10.3759 126.245 10.3331ZM23.359 10.0877C23.359 11.2725 23.4383 12.4788 23.6598 13.6437C23.8311 14.5441 24.11 15.4617 24.5981 16.2422C25.0162 16.9092 25.5688 17.4338 26.2672 17.7941C27.0249 18.1857 27.9111 18.2969 28.7518 18.2688C29.6167 18.2402 30.4969 18.0681 31.2576 17.6382C31.955 17.2425 32.4971 16.6961 32.9133 16.0069C33.3895 15.2182 33.6706 14.3069 33.8367 13.4043C34.0489 12.2518 34.1379 11.0704 34.1379 9.89946C34.1379 8.73117 34.05 7.55386 33.8367 6.40436C33.6721 5.51603 33.3925 4.61115 32.9148 3.84119C32.5019 3.17606 31.9639 2.6342 31.2758 2.26631C30.5152 1.85972 29.6417 1.72857 28.7887 1.73045C27.9331 1.73158 27.0473 1.8725 26.2855 2.28435C25.5814 2.66576 25.0263 3.21552 24.5981 3.89605C24.1066 4.67804 23.8311 5.61222 23.6598 6.51596C23.4383 7.68764 23.359 8.89689 23.359 10.0877ZM74.8763 9.55901C74.8763 10.6845 74.9523 11.8306 75.172 12.935C75.3451 13.7989 75.6202 14.6647 76.0842 15.4174C76.4826 16.0648 77.0049 16.5826 77.6736 16.9385C78.4086 17.3297 79.2598 17.4601 80.0822 17.4601C80.9118 17.4612 81.7492 17.3331 82.4905 16.9385C83.1599 16.5826 83.6864 16.0708 84.0796 15.4181C84.5353 14.6624 84.8097 13.8004 84.975 12.9361C85.1861 11.8309 85.255 10.683 85.255 9.55901C85.255 8.43694 85.1861 7.28932 84.975 6.18604C84.8104 5.32551 84.5364 4.45633 84.0803 3.70515C83.6894 3.06483 83.1674 2.53988 82.5065 2.18702C81.7741 1.79509 80.9367 1.66732 80.1157 1.66732C79.2866 1.66732 78.4321 1.79622 77.6897 2.18702C77.0157 2.54251 76.4911 3.06145 76.0831 3.70779C75.6135 4.45182 75.344 5.32814 75.172 6.18679C74.9527 7.29082 74.8763 8.43544 74.8763 9.55901ZM155.107 2.01379L153.888 2.01041C153.18 2.00853 152.419 2.06339 151.734 2.25015C151.205 2.39483 150.692 2.61803 150.28 2.98968C149.894 3.3384 149.636 3.78895 149.473 4.28197C149.269 4.89486 149.215 5.57878 149.215 6.22211C149.215 6.80682 149.282 7.39979 149.457 7.95932C149.61 8.44595 149.844 8.88749 150.189 9.26214C150.543 9.64655 150.97 9.92012 151.451 10.1167C152.016 10.347 152.654 10.4391 153.261 10.4526C153.877 10.4658 154.492 10.4834 155.107 10.4973V2.01379ZM17.8891 20.1202L17.9513 20.1183C17.9714 20.1172 17.9863 20.101 17.9863 20.0819V19.6757L17.9755 19.6497L17.9487 19.6385L17.8816 19.6411C17.2721 19.6588 16.6612 19.6648 16.0528 19.614C15.6 19.5765 15.1253 19.4957 14.7087 19.3067C14.3743 19.1533 14.079 18.9388 13.8393 18.6554C13.5243 18.2823 13.261 17.8652 13.0306 17.4334C12.1679 15.8206 11.303 14.2085 10.4578 12.5855C10.2575 12.2011 10.0333 11.8219 9.75035 11.4931C9.49828 11.2012 9.19223 10.967 8.84149 10.8103C8.4565 10.6397 8.02684 10.5604 7.60871 10.5319C7.16452 10.5007 6.72368 10.5015 6.27875 10.5116C6.06578 10.5176 5.88222 10.6713 5.84015 10.8825L5.82376 10.9625L5.83196 10.9937L5.86063 11.0069L5.94142 11.0042C6.37593 10.9941 6.80671 10.9941 7.24048 11.0245C7.64371 11.0531 8.05923 11.1286 8.43007 11.2936C8.7633 11.4416 9.05447 11.6641 9.29276 11.9411C9.56977 12.2616 9.78796 12.6332 9.98454 13.0086C10.8286 14.632 11.6943 16.2441 12.5573 17.8577C12.7927 18.2966 13.0615 18.7216 13.3824 19.1022C13.6341 19.4006 13.9446 19.6276 14.2972 19.7876C14.7273 19.9846 15.2161 20.068 15.6838 20.1067C16.4169 20.1675 17.1549 20.1503 17.8891 20.1202ZM15.8018 1.93788C15.0196 1.62711 13.8158 1.85671 13.3526 2.61353C13.343 2.62856 13.3448 2.6466 13.3575 2.659L13.4025 2.66388C13.783 2.42301 14.1554 2.27796 14.6096 2.27683C14.8799 2.2757 15.1428 2.3223 15.3949 2.42151C15.6276 2.5147 15.8253 2.65411 15.9958 2.83712C16.1581 3.01185 16.2929 3.21026 16.389 3.42934C16.4165 3.49059 16.4404 3.55447 16.4627 3.6176L16.4884 3.69314L16.5104 3.71568L16.5413 3.71305L16.6087 3.67321C16.7386 3.5943 16.8455 3.49172 16.9449 3.37673L16.9694 3.35005L16.9769 3.3136L16.965 3.27903C16.9374 3.18922 16.9054 3.10053 16.8671 3.01485C16.765 2.78187 16.6213 2.57144 16.4497 2.38618C16.2654 2.18928 16.0517 2.03708 15.8018 1.93788ZM12.3295 2.58271L12.3656 2.53161C12.376 2.51508 12.373 2.49253 12.357 2.48013L12.2569 2.4046C12.2409 2.3922 12.2189 2.39595 12.2066 2.41098L12.1675 2.46021C11.9679 2.71348 11.7825 2.97915 11.6094 3.25159C11.2255 3.85772 10.8692 4.48151 10.546 5.12259C10.107 5.99289 9.66695 6.86356 9.23467 7.73761C9.02133 8.1675 8.79793 8.59364 8.53395 8.99496L8.50081 9.04569C8.49001 9.06185 8.49337 9.08289 8.50826 9.09492L8.6032 9.16894C8.61921 9.18172 8.64006 9.17984 8.65272 9.16444L8.69368 9.11972L8.78043 9.01488C9.15313 8.53276 9.43946 7.97961 9.70939 7.43399C10.142 6.56106 10.5818 5.69114 11.0207 4.82122C11.3417 4.18352 11.6961 3.56311 12.0782 2.96074C12.1589 2.83298 12.2427 2.70672 12.3295 2.58271ZM7.28702 1.15739C6.48353 1.28967 6.22253 1.55008 5.77238 2.20844C5.76196 2.22347 5.76494 2.24489 5.77871 2.25729C5.79323 2.27007 5.81371 2.26932 5.82786 2.25616C6.49545 1.63238 6.95937 1.58127 7.83546 1.57112L7.89987 1.57037C7.91923 1.57037 7.93524 1.55384 7.93524 1.53354V1.12545L7.9237 1.0984L7.89652 1.08825L7.8269 1.09351C7.64594 1.10591 7.46536 1.12846 7.28702 1.15739ZM2.24605 19.723C2.23116 19.7354 2.22818 19.7561 2.23786 19.7722C2.24866 19.7888 2.26876 19.7933 2.28626 19.7843C3.30272 19.2364 3.53394 18.64 3.53394 17.5089V3.49811C3.53394 2.79428 3.39655 2.13779 2.82093 1.68348C2.34435 1.3062 1.68011 1.12883 1.08327 1.10554C0.863594 1.09689 0.645409 1.0969 0.426852 1.0969C0.407118 1.0969 0.390364 1.11267 0.389991 1.13184L0.387385 1.22202V1.55947C0.387385 1.57901 0.403395 1.59592 0.423873 1.59592L0.487542 1.5963C0.776841 1.59705 1.06689 1.61434 1.35246 1.6568C1.65666 1.70264 1.95303 1.80786 2.21254 1.97621C2.48993 2.15508 2.68577 2.40798 2.82912 2.70334C3.00076 3.05807 3.04507 3.46917 3.04507 3.85923V17.8704C3.04507 18.8027 2.99481 19.1266 2.24605 19.723ZM0.422756 20.4231C0.40265 20.4235 0.387385 20.4396 0.387385 20.4592V20.8624L0.398927 20.889L0.425363 20.8996L0.493126 20.8966C2.94231 20.7801 5.39074 20.6688 7.83918 20.5512L7.90062 20.5493C7.92072 20.5482 7.93562 20.5321 7.93562 20.5121V20.1093L7.92482 20.0822L7.89764 20.0725L7.83025 20.0755C5.85094 20.1623 3.87276 20.2623 1.89383 20.3547L0.422756 20.4231ZM22.5555 3.54695L22.5916 3.49585C22.6024 3.47969 22.5991 3.45677 22.583 3.44475L22.4836 3.36922C22.4676 3.35719 22.4449 3.35982 22.4326 3.3756L22.3935 3.42407C21.6969 4.29888 21.2203 5.31348 20.9139 6.38707C20.5419 7.68989 20.3997 9.05246 20.3997 10.4053C20.3997 11.7554 20.5416 13.1154 20.9139 14.4148C21.2274 15.5079 21.7185 16.5368 22.4464 17.412C23.1378 18.2436 23.989 18.8448 24.9838 19.251C26.122 19.7151 27.3842 19.844 28.6014 19.8008C29.8144 19.758 31.0252 19.5336 32.1307 19.0143C32.6754 18.7584 33.1896 18.4382 33.658 18.0583L33.7064 18.0192C33.7216 18.0072 33.7246 17.9843 33.7127 17.9678L33.6379 17.867C33.626 17.852 33.6036 17.8483 33.5876 17.8592L33.537 17.8949C33.1892 18.1402 32.8195 18.3529 32.4345 18.5337C31.3447 19.0451 30.1514 19.2649 28.9558 19.307C27.7566 19.351 26.5108 19.2236 25.3915 18.767C24.416 18.3687 23.5831 17.7806 22.9051 16.9659C22.1884 16.1043 21.7055 15.0927 21.3979 14.0161C21.0286 12.7283 20.889 11.3808 20.889 10.0438C20.889 8.70336 21.0289 7.3532 21.3979 6.06203C21.6526 5.16919 22.0249 4.30903 22.5555 3.54695ZM25.3863 2.23475L25.339 2.27382C25.3249 2.28697 25.3215 2.30877 25.3334 2.32418L25.4072 2.42414C25.4187 2.43917 25.4399 2.4433 25.4567 2.4324L25.5077 2.39783C25.6406 2.30727 25.778 2.22347 25.9202 2.14756C26.7528 1.69701 27.7089 1.5373 28.6453 1.53617C29.5769 1.53392 30.523 1.68348 31.3548 2.12765C32.1154 2.53499 32.716 3.13661 33.1717 3.87013C33.684 4.6942 33.9819 5.64792 34.1584 6.59863C34.3777 7.77895 34.4671 8.98143 34.4671 10.1813C34.4671 11.3841 34.3766 12.5908 34.1584 13.773C33.9808 14.7364 33.6818 15.6966 33.1743 16.5368C33.1259 16.6172 33.0757 16.6961 33.0235 16.7739L32.9882 16.8246C32.9774 16.8415 32.9807 16.8637 32.9964 16.8761L33.0947 16.9502C33.1107 16.9618 33.1323 16.9588 33.1453 16.9438L33.1844 16.8964C33.3538 16.6909 33.5061 16.4718 33.6438 16.2441C34.1599 15.3896 34.4648 14.4148 34.6454 13.4351C34.8647 12.2447 34.9567 11.0305 34.9567 9.81942C34.9567 8.61242 34.8654 7.4013 34.6447 6.21272C34.4656 5.24584 34.161 4.27709 33.6409 3.43761C33.1736 2.68493 32.5555 2.0679 31.7747 1.64966C30.924 1.19384 29.9578 1.04052 29.0039 1.04316C28.0455 1.04466 27.0685 1.20812 26.217 1.66995C25.9225 1.8289 25.6447 2.01905 25.3874 2.23475H25.3863ZM46.8403 1.08449C46.8403 1.0642 46.8243 1.04766 46.8038 1.04766C45.7211 1.04766 45.3882 1.16416 44.7493 2.07203C44.7381 2.08744 44.7415 2.10773 44.7549 2.12013C44.769 2.13328 44.7895 2.13291 44.8037 2.12051C45.5118 1.50161 45.8384 1.49371 46.7409 1.47981L46.8049 1.47868C46.8243 1.47868 46.8403 1.46215 46.8403 1.44223V1.08449ZM39.6313 1.04992L39.6052 1.06082L39.594 1.08712V1.45539C39.594 1.4753 39.6108 1.49146 39.6309 1.49146L39.6949 1.49297C39.9664 1.49484 40.2385 1.51175 40.5081 1.54895C40.8086 1.59141 41.1016 1.68348 41.3574 1.8477C41.6147 2.01191 41.8161 2.25128 41.9542 2.52372C42.1199 2.85365 42.165 3.23356 42.165 3.59994V16.1794C42.165 17.1106 42.1612 17.5164 41.398 18.1312C41.3831 18.1444 41.3801 18.1654 41.3909 18.1816C41.4017 18.1966 41.4222 18.2022 41.4382 18.1936C42.4993 17.6096 42.6535 16.981 42.6535 15.8183V3.23844C42.6535 2.85027 42.6047 2.45156 42.4278 2.10209C42.2796 1.80899 42.0626 1.55196 41.7859 1.37422C41.5134 1.20023 41.2051 1.09953 40.8916 1.05781L39.6313 1.04992ZM46.742 19.0102L46.8049 19.0087C46.8247 19.0083 46.8403 18.9917 46.8403 18.9722V18.6148L46.8299 18.5882L46.8038 18.5776L46.7383 18.5784C44.3889 18.6047 42.0395 18.6479 39.692 18.7313L39.629 18.734C39.61 18.7343 39.594 18.7505 39.594 18.7708V19.1364L39.6056 19.1631L39.6313 19.1736L39.6972 19.1721C42.0454 19.1199 44.3937 19.0658 46.742 19.0102ZM44.4909 9.83144L44.4749 9.91035L44.4823 9.94192L44.511 9.95432H44.5911C47.5254 9.92727 50.4593 9.89044 53.3937 9.86564C53.4853 9.86489 53.5623 9.89682 53.6279 9.96183C53.6938 10.028 53.7258 10.105 53.7258 10.1978V16.1298C53.7258 16.9291 53.6662 17.279 53.1167 17.8813C53.1036 17.896 53.1036 17.9159 53.1159 17.9313C53.1282 17.9452 53.1479 17.9482 53.1639 17.9377C54.0173 17.3575 54.2143 16.7803 54.2143 15.7683V9.83632C54.2143 9.70969 54.1674 9.59696 54.078 9.50752C53.9887 9.41771 53.8773 9.37187 53.7507 9.373C50.8123 9.3978 47.8739 9.42673 44.9358 9.46093C44.7195 9.46281 44.5341 9.61838 44.4909 9.83144ZM58.2857 18.8099L58.3486 18.8095C58.368 18.8091 58.384 18.7926 58.384 18.7723V18.4262L58.3736 18.3999L58.3479 18.389L58.2827 18.3898C58.0128 18.3931 57.7421 18.3807 57.4748 18.3443L57.4409 18.3386C55.6422 18.3665 53.849 18.3969 52.0548 18.4255C51.7833 18.4653 51.5127 18.4923 51.2375 18.498L51.1742 18.4999C51.1545 18.5006 51.1381 18.5175 51.1381 18.5371V18.8907L51.1493 18.917L51.1757 18.9271L51.2416 18.9264C53.5888 18.8914 55.9371 18.8467 58.2857 18.8099ZM56.6091 1.61584L56.2859 1.9439C56.2736 1.95705 56.2725 1.97659 56.2837 1.99162C56.2945 2.0074 56.3142 2.01116 56.3302 2.00251L56.7305 1.77667C57.184 1.52114 57.7745 1.47342 58.2861 1.46553L58.349 1.46441C58.368 1.46441 58.384 1.44712 58.384 1.42795V1.08036C58.384 1.06044 58.368 1.04391 58.3479 1.04391C57.6472 1.04428 57.1278 1.08938 56.6091 1.61584ZM53.7258 3.66458V8.60867L53.7392 8.63798L53.7694 8.64549L53.8464 8.62934C54.0598 8.585 54.2143 8.39447 54.2143 8.17502V3.30307C54.2143 2.90813 54.161 2.49591 53.9957 2.13366C53.8539 1.82252 53.6364 1.56624 53.3516 1.37835C53.0846 1.20249 52.7793 1.0969 52.4651 1.04917L52.4532 1.04766L51.1746 1.04579C51.1552 1.04579 51.1381 1.0627 51.1381 1.08261V1.43809C51.1381 1.45876 51.1549 1.47493 51.1746 1.47493L51.2386 1.4753C51.5231 1.47642 51.8068 1.49973 52.0875 1.54219C52.3828 1.58616 52.6714 1.68461 52.9219 1.85033C53.1859 2.02431 53.3881 2.26067 53.5195 2.55002C53.6763 2.89461 53.7258 3.2888 53.7258 3.66458ZM69.4932 1.45877L69.5565 1.45839C69.5766 1.45764 69.5934 1.44111 69.5934 1.42156V1.08036C69.5934 1.06082 69.5759 1.04353 69.5565 1.04353C68.352 1.04353 67.9957 1.09577 67.3802 2.19567C67.3705 2.21258 67.375 2.23286 67.391 2.24376C67.407 2.25541 67.4275 2.2524 67.4398 2.23812C68.1528 1.39676 68.4678 1.47042 69.4932 1.45877ZM64.2869 1.45576C63.6193 1.0533 62.8188 1.04428 62.0645 1.04316C62.0444 1.04316 62.0276 1.06044 62.0276 1.08036V1.4257C62.0276 1.44561 62.0444 1.46215 62.0641 1.46215L62.1281 1.4629C62.4215 1.46478 62.7149 1.47981 63.0065 1.5204C63.3047 1.56135 63.6022 1.65079 63.8613 1.80748C64.1238 1.96606 64.3338 2.2013 64.4801 2.47148C64.6548 2.79728 64.7028 3.17456 64.7028 3.53944V16.0118C64.7028 16.8194 64.6622 17.1286 64.1078 17.7382C64.0955 17.7528 64.0948 17.7739 64.1074 17.7881C64.1197 17.8028 64.1402 17.805 64.1559 17.7941C65.0159 17.2023 65.1913 16.6762 65.1913 15.6511V3.42407C65.1913 2.59098 65.0386 1.91007 64.2869 1.45576ZM69.4928 18.2936C67.0373 18.2657 64.5822 18.3067 62.1274 18.3537L62.0637 18.3559C62.0436 18.3559 62.0276 18.3725 62.0276 18.3924V18.7381L62.0392 18.764L62.0645 18.7745L62.13 18.7742C64.584 18.7554 67.0388 18.7279 69.4924 18.708H69.5565C69.5766 18.708 69.5934 18.6919 69.5934 18.6712V18.3323C69.5934 18.312 69.5766 18.2951 69.5565 18.2943L69.4928 18.2936ZM67.5303 9.65671L67.5143 9.73524L67.5225 9.76569L67.5507 9.77921H67.6301C69.0393 9.77395 70.0573 9.76944 71.4669 9.76756C71.6445 9.76756 71.7908 9.9111 71.7953 10.0915C71.8251 11.3394 71.9856 12.5919 72.3612 13.7839C72.6844 14.8056 73.1789 15.7522 73.8889 16.5563C74.5788 17.3387 75.4315 17.9227 76.3913 18.3172C77.5087 18.7764 78.74 18.9297 79.9393 18.9297C81.1225 18.9297 82.3188 18.7629 83.4153 18.2936C84.023 18.0331 84.5941 17.6923 85.1079 17.2737L85.156 17.235C85.1712 17.2222 85.1738 17.1993 85.1627 17.1835L85.0886 17.0832C85.0763 17.0666 85.0539 17.0625 85.0379 17.0745L84.9873 17.1106C84.5911 17.3879 84.1667 17.6209 83.7225 17.8114C82.6431 18.2736 81.4636 18.436 80.2974 18.436C79.116 18.436 77.8997 18.2864 76.7994 17.834C75.8582 17.4469 75.0215 16.8746 74.3443 16.1065C73.6469 15.3174 73.161 14.387 72.8442 13.3822C72.4711 12.2026 72.314 10.9618 72.2845 9.7266C72.2778 9.47521 72.0734 9.27379 71.8243 9.27379C70.4117 9.27642 69.3908 9.27943 67.9782 9.28582C67.7611 9.28657 67.5731 9.44176 67.5303 9.65671ZM73.8275 3.50825L73.8628 3.45677C73.8744 3.44061 73.8703 3.41769 73.8547 3.40679L73.7556 3.33088C73.7396 3.31961 73.7176 3.32224 73.7054 3.3369L73.6663 3.38575C73.1621 4.00879 72.7827 4.72051 72.5057 5.47244C72.1341 6.48365 71.9245 7.41933 71.8538 8.49593L71.8482 8.58198L71.8605 8.61243L71.8925 8.62031L71.9752 8.60378C72.1777 8.56132 72.3266 8.38658 72.34 8.17953C72.4104 7.10406 72.6148 6.16762 72.9868 5.15753C73.2005 4.57658 73.4771 4.01818 73.8275 3.50825ZM76.7953 2.13103L76.7488 2.17011C76.7331 2.18288 76.7313 2.20506 76.7428 2.22046L76.8158 2.31929C76.8273 2.33433 76.8486 2.33846 76.8657 2.32681L76.9159 2.29299C77.0489 2.20318 77.1866 2.12164 77.3277 2.04686C78.1391 1.61923 79.065 1.47304 79.9724 1.47304C80.8719 1.47304 81.7815 1.61922 82.5843 2.04761C83.3193 2.44067 83.9049 3.02576 84.3383 3.73898C84.8268 4.54089 85.1187 5.45665 85.2948 6.37693C85.513 7.51704 85.583 8.68232 85.583 9.84159C85.583 11.0024 85.513 12.1676 85.2948 13.3081C85.1187 14.2303 84.8246 15.1427 84.3394 15.948L84.2162 16.1415L84.1827 16.1926C84.1719 16.2095 84.1756 16.2309 84.1913 16.2433L84.2892 16.317C84.3052 16.3282 84.3264 16.326 84.3387 16.311L84.3782 16.2636C84.5368 16.0723 84.6805 15.8683 84.8093 15.6549C85.3034 14.8364 85.6028 13.9097 85.7811 12.9718C86.0008 11.8227 86.0715 10.6484 86.0715 9.48047C86.0715 8.31255 86.0008 7.13937 85.7811 5.991C85.6028 5.05532 85.3045 4.12377 84.8082 3.30721C84.3622 2.5752 83.7594 1.9732 83.0032 1.56962C82.1818 1.13109 81.251 0.979647 80.3306 0.979647C79.402 0.979647 78.4559 1.13109 77.6256 1.56924C77.3292 1.72519 77.0507 1.91308 76.7953 2.13103ZM117.55 1.15213V1.08712C117.55 1.06646 117.534 1.04992 117.514 1.04992H117.449C116.909 1.04992 116.512 1.09201 116.05 1.40127C115.954 1.46628 115.865 1.54219 115.785 1.62711L115.496 1.92849C115.484 1.94202 115.482 1.96156 115.493 1.97621C115.505 1.99124 115.524 1.99575 115.54 1.98673L115.906 1.78682C116.128 1.66507 116.369 1.5963 116.619 1.56022C116.894 1.52114 117.173 1.4971 117.451 1.49297L117.515 1.49146C117.534 1.49146 117.55 1.47492 117.55 1.45501V1.39075L117.55 1.15213ZM113.379 3.40454C113.379 2.97803 113.298 2.54927 113.097 2.17086C113.024 2.03483 112.938 1.90707 112.837 1.79133C112.505 1.40879 112.052 1.18445 111.557 1.12169L110.327 1.04353L110.299 1.05368L110.289 1.08036V1.44261C110.289 1.46178 110.305 1.47831 110.325 1.47906L110.388 1.47943C110.673 1.48281 110.959 1.50612 111.24 1.55046C111.536 1.59743 111.824 1.69551 112.074 1.86386C112.336 2.0401 112.529 2.27758 112.667 2.56242C112.835 2.91264 112.891 3.30871 112.891 3.69426V17.6002L112.905 17.6284L112.934 17.6359L113.011 17.6213C113.099 17.6044 113.177 17.5608 113.241 17.4973C113.332 17.4075 113.379 17.2947 113.379 17.167V3.40454ZM106.124 1.57601L105.85 1.86536C105.837 1.87851 105.835 1.89843 105.847 1.91308C105.858 1.92811 105.877 1.93187 105.893 1.92398L106.244 1.73684C106.408 1.64966 106.585 1.59254 106.767 1.5576C106.928 1.5249 107.091 1.50273 107.255 1.48883L107.314 1.48432C107.333 1.48281 107.348 1.46703 107.348 1.44749V1.08261C107.348 1.0627 107.331 1.04579 107.311 1.04579H107.247C106.946 1.04579 106.484 1.25923 106.256 1.45238C106.21 1.49146 106.165 1.53242 106.124 1.57601ZM103.215 3.55861V17.4454L103.228 17.4736L103.258 17.4819L103.336 17.4676C103.424 17.4496 103.503 17.4067 103.567 17.3425C103.657 17.2527 103.704 17.1399 103.704 17.0118V3.19636C103.704 1.76953 102.61 1.04579 101.288 1.04579H101.224C101.204 1.04579 101.188 1.0627 101.188 1.08224V1.44111C101.188 1.46027 101.202 1.47681 101.221 1.47756L101.28 1.48282C101.44 1.49634 101.6 1.51776 101.756 1.55158C102.025 1.60832 102.276 1.7188 102.502 1.87963C102.745 2.05287 102.929 2.27833 103.046 2.55603C103.176 2.86943 103.215 3.22003 103.215 3.55861ZM96.4431 1.60832L96.1367 1.92247C96.1233 1.936 96.1222 1.95592 96.133 1.97058C96.1438 1.98561 96.1639 1.98974 96.1799 1.98072L96.5638 1.76953C96.7905 1.64365 97.0415 1.57225 97.2976 1.53392C97.5732 1.49146 97.8517 1.47041 98.1317 1.46515L98.1946 1.46478C98.2139 1.46365 98.2303 1.44749 98.2303 1.42757V1.08036C98.2303 1.06082 98.2139 1.04353 98.1935 1.04353H98.129C97.5791 1.04353 97.2094 1.05368 96.7339 1.36821C96.6286 1.4366 96.5318 1.51738 96.4431 1.60832ZM92.8356 17.5048C92.8215 17.5164 92.8181 17.5375 92.8282 17.5536C92.8386 17.5694 92.8583 17.5736 92.8758 17.5661C93.8007 17.1782 94.0438 16.8307 94.0438 15.7496V3.27866C94.0438 1.3761 92.7098 0.98566 91.082 1.04353L91.0202 1.04616C91.0004 1.04654 90.9848 1.0627 90.9848 1.08299V1.42344C90.9848 1.44261 91.0008 1.45952 91.0205 1.46027L91.0846 1.4614C91.3627 1.46553 91.6416 1.48845 91.9178 1.52979C92.2138 1.57375 92.5013 1.67146 92.7519 1.83718C93.0166 2.01191 93.2214 2.23625 93.3621 2.52334C93.5267 2.86003 93.555 3.26963 93.555 3.63977V16.1107C93.555 16.9355 93.4757 16.9716 92.8356 17.5048ZM91.0861 18.2443H91.0209C91.0008 18.2443 90.9848 18.2612 90.9848 18.2812V18.6911C90.9848 18.711 91.0008 18.728 91.0205 18.7283L91.0849 18.7287C99.8727 18.8298 108.661 18.9692 117.448 19.1665L117.513 19.168L117.539 19.1571L117.55 19.1308V18.7219C117.55 18.702 117.535 18.6859 117.515 18.6859L117.453 18.6832C117.094 18.6723 116.735 18.649 116.376 18.6415C108.529 18.4672 100.68 18.339 92.8312 18.2515C92.2492 18.244 91.6673 18.2443 91.0861 18.2443ZM139.157 19.3626C137.182 19.2864 135.206 19.2146 133.233 19.1436C133.032 19.159 132.834 19.1654 132.633 19.1616L132.567 19.1601L132.541 19.171L132.53 19.1969V19.5896C132.53 19.6099 132.546 19.6261 132.565 19.6268L132.628 19.6287C134.971 19.7121 137.313 19.8023 139.655 19.888L139.723 19.891L139.749 19.8808L139.76 19.8542V19.4457C139.76 19.4254 139.745 19.4092 139.725 19.4077L139.664 19.4058C139.493 19.3972 139.321 19.3841 139.157 19.3626ZM138.014 1.68461L137.702 2.00289C137.689 2.01642 137.688 2.03671 137.698 2.05099C137.71 2.0664 137.73 2.07015 137.746 2.06189L138.134 1.84619C138.354 1.72406 138.595 1.65079 138.842 1.61246C139.113 1.57188 139.386 1.54895 139.661 1.54519L139.724 1.54369C139.744 1.54332 139.76 1.52716 139.76 1.50724V1.09952L139.748 1.07284L139.721 1.0627L139.652 1.0672C139.494 1.07885 139.337 1.09726 139.181 1.12131C138.855 1.17129 138.544 1.27952 138.271 1.46741C138.179 1.53167 138.093 1.60457 138.014 1.68461ZM133.472 1.05781L132.567 1.05668L132.541 1.06683L132.53 1.09313V1.48883C132.53 1.50799 132.546 1.52528 132.566 1.52528L132.63 1.52678C132.915 1.53092 133.201 1.55384 133.482 1.59931C133.786 1.64853 134.065 1.74924 134.319 1.9251C134.579 2.10585 134.776 2.35725 134.91 2.64434C135.075 2.9987 135.117 3.41844 135.117 3.80549V8.97542L135.13 9.00361L135.161 9.01187L135.236 8.99646C135.326 8.97993 135.404 8.93597 135.468 8.87209C135.559 8.78303 135.606 8.66955 135.606 8.54178V3.44362C135.606 3.0359 135.56 2.59925 135.386 2.22648C135.242 1.91834 135.031 1.64853 134.752 1.45576C134.481 1.26862 134.184 1.1604 133.862 1.10854C133.73 1.08674 133.599 1.06946 133.472 1.05781ZM126.459 1.6568L126.149 1.97471C126.136 1.98824 126.135 2.0089 126.146 2.02356C126.158 2.03821 126.177 2.04272 126.193 2.03408L126.579 1.81801C126.797 1.69701 127.036 1.62148 127.282 1.58315C127.558 1.54144 127.837 1.51701 128.116 1.51476H128.18C128.2 1.51438 128.216 1.49823 128.216 1.47756V1.09163C128.216 1.07059 128.2 1.05405 128.18 1.05405H128.115C127.626 1.05405 127.143 1.151 126.732 1.42908C126.633 1.49521 126.541 1.57225 126.459 1.6568ZM124.046 3.52028C124.046 1.51288 122.785 1.0533 121.022 1.05218C121.003 1.05218 120.986 1.06908 120.986 1.089V1.4614C120.986 1.48131 121.002 1.49822 121.022 1.49822L121.085 1.49897C121.359 1.50348 121.631 1.52114 121.901 1.5606C122.196 1.60381 122.485 1.70039 122.735 1.86348C122.997 2.03408 123.19 2.26781 123.33 2.54814C123.498 2.88296 123.557 3.26324 123.557 3.63602V16.3512C123.557 17.1711 123.367 17.6495 122.817 18.2496C122.804 18.2635 122.804 18.2838 122.816 18.2984C122.828 18.3123 122.848 18.3161 122.864 18.3048C123.712 17.7397 124.046 17.1677 124.046 16.1347L124.046 3.52028ZM128.119 19.0128C125.776 18.92 123.433 18.835 121.088 18.817L121.022 18.8163L120.997 18.8275L120.986 18.8542V19.224C120.986 19.2435 121.002 19.2604 121.022 19.2608L121.085 19.2623C123.427 19.3269 125.769 19.3935 128.112 19.4709L128.178 19.4724L128.205 19.4622L128.216 19.4367V19.0515C128.216 19.0316 128.201 19.0154 128.181 19.0147L128.119 19.0128ZM126.225 10.0205L126.21 10.0964L126.218 10.1272L126.245 10.1403L126.323 10.1415C129.147 10.1775 131.97 10.2377 134.794 10.291C134.973 10.294 135.117 10.4425 135.117 10.6224V16.9614C135.117 17.861 134.913 17.9997 134.346 18.625C134.334 18.6396 134.333 18.6592 134.344 18.6735C134.356 18.6889 134.376 18.6919 134.392 18.6817C135.352 18.1094 135.606 17.7367 135.606 16.5996V10.2617C135.606 10.0088 135.405 9.80288 135.155 9.79762C132.331 9.74388 129.507 9.69015 126.683 9.64806C126.557 9.64581 126.443 9.69203 126.354 9.78146C126.288 9.8476 126.243 9.92764 126.225 10.0205ZM152.865 20.0582L152.799 20.0567L152.773 20.068L152.762 20.0939V20.5212C152.762 20.5403 152.777 20.5565 152.796 20.5576L152.857 20.561C155.311 20.6891 157.767 20.7838 160.221 20.9086L160.289 20.9116L160.316 20.9018L160.327 20.8748V20.4389C160.327 20.4189 160.312 20.4028 160.292 20.4017L160.231 20.399C157.775 20.2803 155.323 20.104 152.865 20.0582ZM158.473 1.75901L158.164 2.07429C158.15 2.08782 158.15 2.10773 158.161 2.12239C158.172 2.13779 158.191 2.14155 158.208 2.13291L158.594 1.91984C158.827 1.79133 159.084 1.71617 159.346 1.67784C159.637 1.63538 159.932 1.61772 160.226 1.61772H160.29C160.31 1.61772 160.327 1.60081 160.327 1.58014V1.16754L160.316 1.14086L160.289 1.13033L160.221 1.1341C160.042 1.14387 159.863 1.16115 159.686 1.18671C159.354 1.23518 159.031 1.33927 158.75 1.52754C158.65 1.59518 158.557 1.67258 158.473 1.75901ZM147.272 3.1445L147.305 3.09302C147.315 3.07686 147.312 3.05544 147.296 3.04379L147.2 2.97127C147.185 2.95962 147.163 2.96112 147.15 2.97653L147.111 3.022C146.366 3.89117 146.116 4.98768 146.116 6.11275C146.116 6.81057 146.199 7.52004 146.431 8.17991C146.616 8.70938 146.879 9.21817 147.237 9.65032C147.561 10.0438 147.941 10.3846 148.372 10.6574C148.788 10.9204 149.23 11.1444 149.691 11.3184C149.789 11.3552 149.855 11.4262 149.889 11.5262C149.901 11.5668 149.908 11.6089 149.906 11.6517L149.919 11.6821L149.951 11.6897C150.45 11.5687 150.573 11.0144 150.095 10.8336C149.643 10.6623 149.209 10.4428 148.799 10.1835C148.38 9.91862 148.011 9.58719 147.695 9.20427C147.348 8.78415 147.091 8.28888 146.911 7.77482C146.685 7.12999 146.606 6.43329 146.606 5.75164C146.606 4.83775 146.777 3.92348 147.272 3.1445ZM143.248 19.6463L143.221 19.6572L143.21 19.6828V20.1142C143.21 20.1337 143.225 20.1503 143.245 20.151L143.307 20.1533C143.986 20.18 144.668 20.1954 145.346 20.1386C145.783 20.1029 146.248 20.0281 146.652 19.8481C146.919 19.7283 147.164 19.5682 147.379 19.3687L147.422 19.3296C147.437 19.316 147.438 19.2973 147.428 19.2822C147.419 19.2661 147.401 19.2608 147.383 19.2676C146.875 19.4773 146.241 19.6013 145.694 19.646C145.016 19.702 144.335 19.6888 143.656 19.6595L143.611 19.6576L143.248 19.6463ZM152.638 11.8775L152.637 11.9147L152.669 11.9339L152.82 11.9328L155.117 12.0113C155.295 12.017 155.436 12.1631 155.436 12.3428V17.9328C155.436 18.7888 155.377 18.9312 154.72 19.4727C154.705 19.4851 154.701 19.5051 154.712 19.5212C154.722 19.5378 154.742 19.543 154.759 19.5347C155.74 19.0395 155.925 18.6671 155.925 17.5713V11.9813C155.925 11.7306 155.727 11.5254 155.479 11.5183C154.711 11.4954 153.944 11.4619 153.176 11.4398C153.01 11.4353 152.86 11.5168 152.772 11.6592L152.638 11.8775ZM150.113 2.43917L150.069 2.479C150.054 2.4914 150.052 2.51319 150.064 2.52822L150.135 2.62442C150.147 2.64058 150.168 2.64471 150.184 2.63419L150.235 2.60188C150.613 2.35687 151.035 2.19078 151.467 2.07279C152.204 1.87137 152.985 1.8135 153.746 1.8165L155.109 1.81989C155.289 1.82102 155.436 1.96983 155.436 2.15208V10.6307L155.45 10.6581L155.48 10.6668L155.556 10.6518C155.645 10.6345 155.723 10.5913 155.787 10.5278C155.878 10.4387 155.925 10.3248 155.925 10.1967V2.07955C155.925 1.66695 155.693 1.32687 155.259 1.32687C154.874 1.32687 154.489 1.32424 154.104 1.32273C153.332 1.32048 152.539 1.3791 151.791 1.58353C151.179 1.75112 150.591 2.01153 150.113 2.43917Z" fill="#C7A17A"/>
</g>
<defs>
<clipPath id="clip0_2162_3352">
<rect width="160.885" height="32" fill="white" transform="translate(0.0571289)"/>
</clipPath>
</defs>
</svg>
