<svg width="167" height="48" viewBox="0 0 167 48" fill="none" xmlns="http://www.w3.org/2000/svg">
<path fill-rule="evenodd" clip-rule="evenodd" d="M29 22.3178C29 17.7179 32.8439 14 37.4934 14C42.1561 14 46 17.7179 46 22.3178C46 24.6357 45.157 26.7876 43.7695 28.6116C42.2388 30.6235 40.3522 32.3765 38.2285 33.7524C37.7425 34.0704 37.3039 34.0944 36.7704 33.7524C34.6347 32.3765 32.7481 30.6235 31.2305 28.6116C29.842 26.7876 29 24.6357 29 22.3178ZM34.6942 22.5768C34.6942 24.1177 35.9517 25.3297 37.4934 25.3297C39.0362 25.3297 40.3058 24.1177 40.3058 22.5768C40.3058 21.0478 39.0362 19.7768 37.4934 19.7768C35.9517 19.7768 34.6942 21.0478 34.6942 22.5768Z" fill="#C7A17A"/>
<path d="M61.8798 23.036L64.8618 28.09L67.8578 23.036L68.5298 29H70.2378L68.8938 18.71L64.8618 25.36L60.8438 18.71L59.4998 29H61.2078L61.8798 23.036ZM77.9766 22.56V29H79.5026V22.56H77.9766ZM71.7326 22.56V29H73.2586V22.56H71.7326ZM72.7966 26.032H74.6446C74.9806 26.032 75.2373 26.1067 75.4146 26.256C75.5919 26.4053 75.6806 26.62 75.6806 26.9C75.6806 27.0773 75.6386 27.2313 75.5546 27.362C75.4799 27.4927 75.3633 27.5907 75.2046 27.656C75.0553 27.7213 74.8686 27.754 74.6446 27.754H72.7966V29H74.7986C75.2466 29 75.6479 28.9207 76.0026 28.762C76.3573 28.6033 76.6373 28.3653 76.8426 28.048C77.0479 27.7307 77.1506 27.3433 77.1506 26.886C77.1506 26.1953 76.9219 25.6913 76.4646 25.374C76.0166 25.0473 75.4613 24.884 74.7986 24.884H72.7966V26.032ZM86.2949 26.228H91.2229V24.968H86.2949V26.228ZM90.4109 22.56V29H91.8949V22.56H90.4109ZM85.6369 22.56V29H87.1209V22.56H85.6369ZM94.7784 27.096C94.7784 26.872 94.8344 26.6807 94.9464 26.522C95.0584 26.354 95.2217 26.228 95.4364 26.144C95.651 26.0507 95.917 26.004 96.2344 26.004C96.6264 26.004 96.9717 26.0553 97.2704 26.158C97.569 26.2513 97.863 26.4053 98.1524 26.62V25.822C98.0777 25.7287 97.9424 25.6213 97.7464 25.5C97.5504 25.3787 97.303 25.2713 97.0044 25.178C96.715 25.0847 96.3837 25.038 96.0104 25.038C95.4504 25.038 94.9604 25.122 94.5404 25.29C94.1297 25.458 93.8124 25.7007 93.5884 26.018C93.3644 26.3353 93.2524 26.7133 93.2524 27.152C93.2524 27.5907 93.3504 27.9593 93.5464 28.258C93.7517 28.5473 94.0224 28.7667 94.3584 28.916C94.7037 29.0653 95.0864 29.14 95.5064 29.14C95.9544 29.14 96.3604 29.0653 96.7244 28.916C97.0884 28.7573 97.3777 28.5333 97.5924 28.244C97.807 27.9453 97.9144 27.5907 97.9144 27.18L97.6904 26.438C97.6904 26.8207 97.6157 27.124 97.4664 27.348C97.317 27.572 97.1117 27.7353 96.8504 27.838C96.589 27.9407 96.295 27.992 95.9684 27.992C95.7537 27.992 95.553 27.9593 95.3664 27.894C95.189 27.8193 95.0444 27.7167 94.9324 27.586C94.8297 27.4553 94.7784 27.292 94.7784 27.096ZM94.4564 24.254C94.559 24.1887 94.7037 24.1093 94.8904 24.016C95.0864 23.9133 95.3104 23.8247 95.5624 23.75C95.8237 23.6753 96.1084 23.638 96.4164 23.638C96.771 23.638 97.0697 23.722 97.3124 23.89C97.5644 24.0487 97.6904 24.2773 97.6904 24.576V29H99.1744V24.408C99.1744 23.9787 99.0577 23.6147 98.8244 23.316C98.6004 23.0173 98.2877 22.7933 97.8864 22.644C97.485 22.4853 97.0184 22.406 96.4864 22.406C95.9077 22.406 95.3944 22.49 94.9464 22.658C94.4984 22.826 94.1297 22.9987 93.8404 23.176L94.4564 24.254ZM105.091 22.56V29H106.575V22.56H105.091ZM108.941 22.56L106.169 25.22L109.235 29H111.083L108.017 25.22L110.803 22.56H108.941ZM113.03 27.096C113.03 26.872 113.086 26.6807 113.198 26.522C113.31 26.354 113.474 26.228 113.688 26.144C113.903 26.0507 114.169 26.004 114.486 26.004C114.878 26.004 115.224 26.0553 115.522 26.158C115.821 26.2513 116.115 26.4053 116.404 26.62V25.822C116.33 25.7287 116.194 25.6213 115.998 25.5C115.802 25.3787 115.555 25.2713 115.256 25.178C114.967 25.0847 114.636 25.038 114.262 25.038C113.702 25.038 113.212 25.122 112.792 25.29C112.382 25.458 112.064 25.7007 111.84 26.018C111.616 26.3353 111.504 26.7133 111.504 27.152C111.504 27.5907 111.602 27.9593 111.798 28.258C112.004 28.5473 112.274 28.7667 112.61 28.916C112.956 29.0653 113.338 29.14 113.758 29.14C114.206 29.14 114.612 29.0653 114.976 28.916C115.34 28.7573 115.63 28.5333 115.844 28.244C116.059 27.9453 116.166 27.5907 116.166 27.18L115.942 26.438C115.942 26.8207 115.868 27.124 115.718 27.348C115.569 27.572 115.364 27.7353 115.102 27.838C114.841 27.9407 114.547 27.992 114.22 27.992C114.006 27.992 113.805 27.9593 113.618 27.894C113.441 27.8193 113.296 27.7167 113.184 27.586C113.082 27.4553 113.03 27.292 113.03 27.096ZM112.708 24.254C112.811 24.1887 112.956 24.1093 113.142 24.016C113.338 23.9133 113.562 23.8247 113.814 23.75C114.076 23.6753 114.36 23.638 114.668 23.638C115.023 23.638 115.322 23.722 115.564 23.89C115.816 24.0487 115.942 24.2773 115.942 24.576V29H117.426V24.408C117.426 23.9787 117.31 23.6147 117.076 23.316C116.852 23.0173 116.54 22.7933 116.138 22.644C115.737 22.4853 115.27 22.406 114.738 22.406C114.16 22.406 113.646 22.49 113.198 22.658C112.75 22.826 112.382 22.9987 112.092 23.176L112.708 24.254ZM120.671 32.08V22.56H119.145V32.08H120.671ZM126.005 25.78C126.005 25.052 125.861 24.4407 125.571 23.946C125.282 23.442 124.899 23.0547 124.423 22.784C123.947 22.5133 123.429 22.378 122.869 22.378C122.328 22.378 121.852 22.518 121.441 22.798C121.04 23.078 120.727 23.47 120.503 23.974C120.279 24.478 120.167 25.08 120.167 25.78C120.167 26.4707 120.279 27.0727 120.503 27.586C120.727 28.09 121.04 28.482 121.441 28.762C121.852 29.0327 122.328 29.168 122.869 29.168C123.429 29.168 123.947 29.0373 124.423 28.776C124.899 28.5053 125.282 28.118 125.571 27.614C125.861 27.1007 126.005 26.4893 126.005 25.78ZM124.437 25.78C124.437 26.2093 124.349 26.5733 124.171 26.872C123.994 27.1707 123.761 27.3993 123.471 27.558C123.182 27.7167 122.86 27.796 122.505 27.796C122.207 27.796 121.917 27.7213 121.637 27.572C121.357 27.4133 121.124 27.1847 120.937 26.886C120.76 26.5873 120.671 26.2187 120.671 25.78C120.671 25.3413 120.76 24.9727 120.937 24.674C121.124 24.3753 121.357 24.1513 121.637 24.002C121.917 23.8433 122.207 23.764 122.505 23.764C122.86 23.764 123.182 23.8433 123.471 24.002C123.761 24.1513 123.994 24.38 124.171 24.688C124.349 24.9867 124.437 25.3507 124.437 25.78ZM126.549 22.56V23.89H130.623V22.56H126.549ZM127.851 22.84V29H129.335V22.84H127.851ZM131.871 26.13H137.527C137.537 26.046 137.541 25.9713 137.541 25.906C137.541 25.8313 137.541 25.766 137.541 25.71C137.541 25.0287 137.411 24.4453 137.149 23.96C136.897 23.4653 136.529 23.0873 136.043 22.826C135.567 22.5553 134.993 22.42 134.321 22.42C133.715 22.42 133.178 22.532 132.711 22.756C132.245 22.98 131.867 23.2927 131.577 23.694C131.297 24.0953 131.111 24.562 131.017 25.094C130.999 25.206 130.985 25.318 130.975 25.43C130.966 25.542 130.961 25.6587 130.961 25.78C130.961 26.424 131.097 27.0027 131.367 27.516C131.638 28.02 132.021 28.4167 132.515 28.706C133.019 28.9953 133.598 29.14 134.251 29.14C134.839 29.14 135.329 29.07 135.721 28.93C136.123 28.7807 136.463 28.5753 136.743 28.314C137.023 28.0527 137.271 27.7447 137.485 27.39L136.169 26.872C136.048 27.0773 135.899 27.2593 135.721 27.418C135.544 27.5673 135.339 27.684 135.105 27.768C134.881 27.852 134.62 27.894 134.321 27.894C133.967 27.894 133.649 27.8193 133.369 27.67C133.099 27.5113 132.884 27.2733 132.725 26.956C132.576 26.6387 132.501 26.2467 132.501 25.78L132.529 25.388C132.529 25.0147 132.604 24.6927 132.753 24.422C132.912 24.142 133.127 23.932 133.397 23.792C133.668 23.6427 133.971 23.568 134.307 23.568C134.634 23.568 134.909 23.6333 135.133 23.764C135.357 23.8853 135.53 24.0627 135.651 24.296C135.782 24.52 135.866 24.7813 135.903 25.08H131.871V26.13Z" fill="#C7A17A"/>
<rect x="0.5" y="0.5" width="166" height="47" rx="23.5" stroke="#262424"/>
</svg>
