<svg width="48" height="48" viewBox="0 0 48 48" fill="none" xmlns="http://www.w3.org/2000/svg">
<rect x="0.5" y="0.5" width="47" height="47" rx="23.5" stroke="#262424"/>
<path d="M32.1001 17.6359C32.1001 18.5945 31.323 19.3716 30.3644 19.3716C29.4058 19.3716 28.6287 18.5945 28.6287 17.6359C28.6287 16.6772 29.4058 15.9001 30.3644 15.9001C31.323 15.9001 32.1001 16.6772 32.1001 17.6359Z" fill="#C7A17A"/>
<path fill-rule="evenodd" clip-rule="evenodd" d="M24.0001 29.7859C27.1955 29.7859 29.7859 27.1955 29.7859 24.0001C29.7859 20.8048 27.1955 18.2144 24.0001 18.2144C20.8048 18.2144 18.2144 20.8048 18.2144 24.0001C18.2144 27.1955 20.8048 29.7859 24.0001 29.7859ZM24.0001 27.4716C25.9174 27.4716 27.4716 25.9174 27.4716 24.0001C27.4716 22.0829 25.9174 20.5287 24.0001 20.5287C22.0829 20.5287 20.5287 22.0829 20.5287 24.0001C20.5287 25.9174 22.0829 27.4716 24.0001 27.4716Z" fill="#C7A17A"/>
<path fill-rule="evenodd" clip-rule="evenodd" d="M12.4287 23.5373C12.4287 19.6489 12.4287 17.7047 13.1854 16.2196C13.8511 14.9132 14.9132 13.8511 16.2196 13.1854C17.7047 12.4287 19.6489 12.4287 23.5373 12.4287H24.463C28.3514 12.4287 30.2955 12.4287 31.7807 13.1854C33.0871 13.8511 34.1492 14.9132 34.8148 16.2196C35.5716 17.7047 35.5716 19.6489 35.5716 23.5373V24.463C35.5716 28.3514 35.5716 30.2955 34.8148 31.7807C34.1492 33.0871 33.0871 34.1492 31.7807 34.8148C30.2955 35.5716 28.3514 35.5716 24.463 35.5716H23.5373C19.6489 35.5716 17.7047 35.5716 16.2196 34.8148C14.9132 34.1492 13.8511 33.0871 13.1854 31.7807C12.4287 30.2955 12.4287 28.3514 12.4287 24.463V23.5373ZM23.5373 14.743H24.463C26.4454 14.743 27.793 14.7448 28.8346 14.8299C29.8492 14.9128 30.3681 15.0631 30.73 15.2475C31.601 15.6912 32.309 16.3993 32.7528 17.2702C32.9372 17.6322 33.0875 18.1511 33.1704 19.1657C33.2555 20.2073 33.2573 21.5549 33.2573 23.5373V24.463C33.2573 26.4454 33.2555 27.793 33.1704 28.8346C33.0875 29.8492 32.9372 30.3681 32.7528 30.73C32.309 31.601 31.601 32.309 30.73 32.7528C30.3681 32.9372 29.8492 33.0875 28.8346 33.1704C27.793 33.2555 26.4454 33.2573 24.463 33.2573H23.5373C21.5549 33.2573 20.2073 33.2555 19.1657 33.1704C18.1511 33.0875 17.6322 32.9372 17.2702 32.7528C16.3993 32.309 15.6912 31.601 15.2475 30.73C15.0631 30.3681 14.9128 29.8492 14.8299 28.8346C14.7448 27.793 14.743 26.4454 14.743 24.463V23.5373C14.743 21.5549 14.7448 20.2073 14.8299 19.1657C14.9128 18.1511 15.0631 17.6322 15.2475 17.2702C15.6912 16.3993 16.3993 15.6912 17.2702 15.2475C17.6322 15.0631 18.1511 14.9128 19.1657 14.8299C20.2073 14.7448 21.5549 14.743 23.5373 14.743Z" fill="#C7A17A"/>
</svg>
