<svg width="48" height="48" viewBox="0 0 48 48" fill="none" xmlns="http://www.w3.org/2000/svg">
<rect x="0.5" y="0.5" width="47" height="47" rx="23.5" stroke="#262424"/>
<path d="M15.3751 17.25H12.7501C12.0001 17.25 11.8501 17.6031 11.8501 17.9924C11.8501 18.6877 12.74 22.1361 15.9938 26.6969C18.1629 29.8116 21.2191 31.5 24.0001 31.5C25.6687 31.5 25.8751 31.125 25.8751 30.4791V28.125C25.8751 27.375 26.0332 27.2253 26.5616 27.2253C26.9509 27.2253 27.6183 27.42 29.1757 28.9217C30.9556 30.7016 31.249 31.5 32.2501 31.5H34.8751C35.6251 31.5 36.0001 31.125 35.7838 30.385C35.547 29.6474 34.6973 28.5773 33.5697 27.3087C32.9579 26.5857 32.0401 25.807 31.762 25.4176C31.3727 24.9171 31.4839 24.6946 31.762 24.2497L31.8088 24.1834C32.2043 23.6212 34.984 19.6352 35.2939 18.2149C35.4607 17.6587 35.2939 17.25 34.5001 17.25H31.8751C31.2077 17.25 30.9 17.6031 30.7331 17.9924C30.7331 17.9924 29.3982 21.2462 27.5071 23.3597C26.8953 23.9715 26.6172 24.1662 26.2834 24.1662C26.1166 24.1662 25.8751 23.9715 25.8751 23.4154V18.2149C25.8751 17.5475 25.6814 17.25 25.1251 17.25H21.0001C20.583 17.25 20.3322 17.5598 20.3322 17.8534C20.3322 18.4861 21.2776 18.632 21.3751 20.4119V24.2775C21.3751 25.125 21.222 25.2787 20.8883 25.2787C19.9984 25.2787 17.8338 22.0103 16.5499 18.2705C16.2983 17.5436 16.046 17.25 15.3751 17.25Z" fill="#C7A17A"/>
</svg>
