<svg width="24" height="24" viewBox="0 0 24 24" fill="none" xmlns="http://www.w3.org/2000/svg">
<path fill-rule="evenodd" clip-rule="evenodd" d="M16.4184 4.47H16.6232C19.3152 4.47 21.5 6.72 21.5 9.48V15C21.5 17.76 19.3152 20 16.6232 20H7.3768C4.6848 20 2.5 17.76 2.5 15V9.48C2.5 6.72 4.6848 4.47 7.3768 4.47H7.58162C7.60113 3.27 8.05955 2.15 8.8886 1.31C9.72741 0.46 10.8003 0.03 12.0098 0C14.4286 0 16.3891 2 16.4184 4.47ZM9.91273 2.38C9.36653 2.94 9.06417 3.68 9.04466 4.47H14.9553C14.9261 2.83 13.6191 1.5 12.0098 1.5C11.2587 1.5 10.4784 1.81 9.91273 2.38ZM15.7064 8.32C16.116 8.32 16.4379 7.98 16.4379 7.57V6.41C16.4379 6 16.116 5.66 15.7064 5.66C15.3065 5.66 14.9748 6 14.9748 6.41V7.57C14.9748 7.98 15.3065 8.32 15.7064 8.32ZM8.93737 7.57C8.93737 7.98 8.6155 8.32 8.20585 8.32C7.80595 8.32 7.47433 7.98 7.47433 7.57V6.41C7.47433 6 7.80595 5.66 8.20585 5.66C8.6155 5.66 8.93737 6 8.93737 6.41V7.57Z" fill="#C7A17A"/>
</svg>
