<svg width="121" height="24" viewBox="0 0 121 24" fill="none" xmlns="http://www.w3.org/2000/svg">
<g clip-path="url(#clip0_2162_3492)">
<path d="M12.3968 24C12.0223 24 11.695 23.9462 11.4155 23.8391C11.1368 23.7311 10.9045 23.5792 10.7188 23.3817C10.5331 23.1847 10.3957 22.9482 10.3049 22.6712C10.2139 22.3952 10.1686 22.0883 10.1686 21.7521C10.1686 21.4207 10.2172 21.1183 10.3141 20.844C10.4099 20.5687 10.5534 20.3336 10.7431 20.1358C10.9321 19.9391 11.1683 19.7863 11.4498 19.6761C11.7316 19.5671 12.0589 19.5118 12.4294 19.5118C12.6816 19.5118 12.903 19.5304 13.0907 19.5671C13.2795 19.6037 13.4372 19.655 13.5643 19.7178C13.6916 19.7821 13.7863 19.8565 13.85 19.943C13.9128 20.0298 13.9452 20.1234 13.9452 20.2223C13.9452 20.2945 13.9281 20.361 13.8946 20.4241C13.8614 20.4872 13.8106 20.5422 13.7433 20.5901C13.6765 20.6372 13.5947 20.6749 13.4978 20.7012C13.4018 20.7288 13.2887 20.7423 13.1605 20.7423C13.1605 20.6189 13.1465 20.5056 13.1161 20.4016C13.0871 20.299 13.0415 20.2102 12.9787 20.1358C12.9162 20.0622 12.8385 20.0053 12.7436 19.9644C12.6486 19.9239 12.5375 19.9033 12.4093 19.9033C12.1884 19.9033 12.0008 19.9441 11.845 20.0256C11.6905 20.1073 11.5643 20.2265 11.4663 20.3844C11.3683 20.5411 11.2976 20.735 11.2535 20.9644C11.2088 21.1946 11.1871 21.4565 11.1871 21.7521C11.1871 22.0466 11.2102 22.3073 11.2566 22.5356C11.3029 22.7628 11.3775 22.9544 11.4817 23.1103C11.5847 23.2655 11.719 23.3836 11.8835 23.464C12.0494 23.5446 12.2501 23.5854 12.4895 23.5854C12.564 23.5854 12.6391 23.5823 12.7145 23.5761C12.7891 23.5702 12.862 23.5587 12.9335 23.5434V22.6435C12.9335 22.4795 12.8972 22.3665 12.8234 22.3022C12.7508 22.2391 12.6436 22.2064 12.5012 22.2064H12.4213V21.8846H14.3269V22.2064H14.2462C14.1856 22.2064 14.132 22.2146 14.0865 22.229C14.041 22.2442 14.0038 22.2698 13.9742 22.3053C13.9452 22.3409 13.9228 22.389 13.9086 22.4468C13.8955 22.506 13.8885 22.5796 13.8885 22.6669V23.6708C13.6522 23.781 13.4129 23.8636 13.1725 23.9174C12.9312 23.9724 12.6724 24 12.3968 24ZM105.198 23.9388L102.835 20.5709V23.2165C102.835 23.3042 102.844 23.3732 102.86 23.4253C102.878 23.4772 102.9 23.5169 102.927 23.5446C102.954 23.573 102.988 23.5916 103.026 23.6006C103.065 23.6088 103.105 23.6136 103.146 23.6136H103.401V23.9388H101.817V23.6136H102.072C102.115 23.6136 102.156 23.6088 102.194 23.6006C102.232 23.5916 102.264 23.573 102.293 23.5446C102.321 23.5169 102.344 23.4772 102.36 23.4253C102.375 23.3732 102.383 23.3042 102.383 23.2165V20.2694C102.383 20.1877 102.375 20.1225 102.358 20.0738C102.341 20.0248 102.318 19.987 102.29 19.9613C102.261 19.9351 102.229 19.9177 102.191 19.9095C102.153 19.9002 102.113 19.8951 102.072 19.8951H101.817V19.573H103.163L105.302 22.6252V20.2694C105.302 20.1877 105.294 20.1225 105.277 20.0738C105.259 20.0248 105.237 19.987 105.209 19.9613C105.18 19.9351 105.148 19.9177 105.109 19.9095C105.072 19.9002 105.032 19.8951 104.991 19.8951H104.736V19.573H106.32V19.8951H106.065C106.024 19.8951 105.985 19.9002 105.947 19.9095C105.909 19.9177 105.876 19.936 105.847 19.9644C105.819 19.9921 105.797 20.0318 105.781 20.0837C105.765 20.1358 105.757 20.2051 105.757 20.2928V23.9388H105.198ZM108.764 23.566H109.977C110.038 23.566 110.091 23.5547 110.134 23.5313C110.178 23.509 110.215 23.4761 110.246 23.4344C110.278 23.3927 110.303 23.3439 110.322 23.287C110.34 23.2295 110.354 23.1675 110.364 23.1004L110.412 22.8138H110.832L110.787 23.9388H107.237V23.6136H107.492C107.535 23.6136 107.576 23.6097 107.614 23.6015C107.651 23.5933 107.683 23.577 107.712 23.5527C107.741 23.5274 107.763 23.4907 107.779 23.4417C107.794 23.3927 107.803 23.3284 107.803 23.2489V20.2928C107.803 20.2051 107.794 20.1358 107.779 20.0837C107.763 20.0318 107.741 19.9921 107.714 19.9644C107.686 19.936 107.654 19.9177 107.616 19.9095C107.578 19.9002 107.537 19.8951 107.492 19.8951H107.237V19.573H110.602L110.626 20.6983H110.203L110.173 20.4089C110.157 20.2601 110.12 20.1448 110.061 20.0653C110.002 19.9859 109.91 19.9461 109.786 19.9461H108.764V21.4748H110.203V21.8417H108.764V23.566ZM58.0933 22.5432C58.0933 22.4406 58.1053 22.3544 58.1296 22.2842C58.1539 22.2143 58.1879 22.1579 58.2323 22.1165C58.2762 22.074 58.3276 22.0441 58.3873 22.0263C58.4474 22.0086 58.5127 21.9993 58.5839 21.9993C58.6501 21.9993 58.7132 22.0086 58.7735 22.0263C58.833 22.0441 58.8852 22.074 58.9296 22.1165C58.974 22.1579 59.0092 22.2143 59.0352 22.2842C59.0614 22.3544 59.0746 22.4406 59.0746 22.5432C59.0746 22.6452 59.0614 22.7312 59.0352 22.8008C59.0092 22.8699 58.974 22.9259 58.9296 22.9685C58.8852 23.0108 58.833 23.0415 58.7735 23.0592C58.7132 23.077 58.6501 23.086 58.5839 23.086C58.5127 23.086 58.4474 23.077 58.3873 23.0592C58.3276 23.0415 58.2762 23.0108 58.2323 22.9685C58.1879 22.9259 58.1539 22.8699 58.1296 22.8008C58.1053 22.7312 58.0933 22.6452 58.0933 22.5432ZM15.3065 23.6136H15.5609C15.6022 23.6136 15.6416 23.6097 15.6799 23.6015C15.7173 23.5933 15.7494 23.577 15.7787 23.5527C15.8072 23.5274 15.8301 23.4907 15.8466 23.4417C15.8636 23.3927 15.872 23.3284 15.872 23.2489V20.2694C15.872 20.1877 15.8636 20.1225 15.8466 20.0738C15.8304 20.0248 15.8072 19.987 15.7787 19.9613C15.7494 19.9351 15.7173 19.9177 15.6799 19.9095C15.6416 19.9002 15.6022 19.8951 15.5609 19.8951H15.3065V19.573H17.259C17.8315 19.573 18.2509 19.6702 18.5181 19.8627C18.7856 20.0563 18.9191 20.3373 18.9191 20.7054C18.9191 20.8677 18.8957 21.01 18.8482 21.1355C18.801 21.262 18.7382 21.3708 18.6605 21.4646C18.5818 21.5582 18.4938 21.6377 18.395 21.7019C18.297 21.7673 18.1962 21.8203 18.0939 21.862L18.815 23.1156C18.8663 23.203 18.9169 23.2777 18.9644 23.3408C19.0129 23.4031 19.0613 23.4547 19.1096 23.4955C19.1582 23.5364 19.2073 23.566 19.259 23.5854C19.3103 23.6037 19.364 23.6136 19.4218 23.6136H19.4449V23.9388H19.247C19.0652 23.9388 18.9077 23.9318 18.7725 23.9186C18.6374 23.9042 18.5192 23.8766 18.4173 23.836C18.3162 23.7951 18.2283 23.739 18.1545 23.6677C18.08 23.5953 18.0113 23.5028 17.9485 23.3896L17.2297 22.0444H16.8267V23.2489C16.8267 23.3298 16.8357 23.3927 16.8521 23.4417C16.8692 23.4907 16.8915 23.5274 16.9208 23.5527C16.9493 23.577 16.9825 23.5933 17.0197 23.6015C17.0571 23.6097 17.0965 23.6136 17.1378 23.6136H17.3983V23.9388H15.3065V23.6136ZM16.827 21.6887H17.1674C17.3076 21.6887 17.4249 21.6695 17.519 21.6318C17.6128 21.594 17.6876 21.5379 17.7429 21.4635C17.7996 21.3883 17.8398 21.2944 17.8652 21.1825C17.8895 21.0692 17.9015 20.9387 17.9015 20.7888C17.9015 20.6341 17.8881 20.5025 17.8602 20.3945C17.8331 20.2877 17.7896 20.1989 17.7301 20.1307C17.6714 20.0614 17.5938 20.0112 17.4997 19.9808C17.4048 19.9503 17.2908 19.9351 17.1562 19.9351H16.8273L16.827 21.6887ZM20.2347 23.9388V23.6136H20.489C20.5346 23.6136 20.5759 23.6088 20.613 23.6006C20.6516 23.5916 20.684 23.573 20.7111 23.5446C20.7384 23.5169 20.7608 23.4772 20.7767 23.4253C20.7918 23.3732 20.8001 23.3042 20.8001 23.2165V20.2959C20.8001 20.2082 20.7918 20.1386 20.7767 20.0868C20.7608 20.0349 20.7384 19.9952 20.7111 19.9675C20.6837 19.9391 20.6516 19.9208 20.613 19.9126C20.5759 19.9033 20.5346 19.8982 20.489 19.8982H20.2347V19.573H22.3265V19.8982H22.0721C22.0288 19.8982 21.9872 19.9033 21.949 19.9126C21.9107 19.9208 21.8775 19.9391 21.8501 19.9675C21.823 19.9952 21.8007 20.0349 21.7853 20.0868C21.7691 20.1386 21.7613 20.2082 21.7613 20.2959V23.2165C21.7613 23.3042 21.7691 23.3732 21.7853 23.4253C21.8004 23.4772 21.8227 23.5169 21.8501 23.5446C21.8775 23.573 21.9107 23.5916 21.949 23.6006C21.9872 23.6088 22.0288 23.6136 22.0721 23.6136H22.3265V23.9388H20.2347ZM23.3078 23.9388V23.6136H23.5622C23.6077 23.6136 23.649 23.6088 23.6861 23.6006C23.7247 23.5916 23.7571 23.573 23.7842 23.5446C23.8115 23.5169 23.8339 23.4772 23.8498 23.4253C23.8649 23.3732 23.8732 23.3042 23.8732 23.2165V20.2928C23.8732 20.2051 23.8651 20.1358 23.8498 20.0837C23.8339 20.0318 23.8115 19.9921 23.7842 19.9644C23.7568 19.936 23.7247 19.9177 23.6861 19.9095C23.649 19.9002 23.6077 19.8951 23.5622 19.8951H23.3078V19.573H25.3996V19.8951H25.1452C25.1039 19.8951 25.0634 19.9002 25.0251 19.9095C24.9869 19.9177 24.9534 19.9351 24.9263 19.9613C24.8989 19.987 24.8766 20.0248 24.8595 20.0738C24.8422 20.1225 24.8341 20.1877 24.8341 20.2694V23.566H25.9612C26.1036 23.566 26.2133 23.52 26.2921 23.4301C26.3719 23.3397 26.4284 23.2081 26.4641 23.035L26.5618 22.5753H26.9022L26.8576 23.9388H23.3078ZM27.9137 23.9388V23.6136H28.1681C28.2136 23.6136 28.2549 23.6088 28.292 23.6006C28.3306 23.5916 28.363 23.573 28.3901 23.5446C28.4174 23.5169 28.4398 23.4772 28.4557 23.4253C28.4708 23.3732 28.4791 23.3042 28.4791 23.2165V20.2928C28.4791 20.2051 28.4708 20.1358 28.4557 20.0837C28.4398 20.0318 28.4174 19.9921 28.3901 19.9644C28.363 19.936 28.3306 19.9177 28.292 19.9095C28.2549 19.9002 28.2136 19.8951 28.1681 19.8951H27.9137V19.573H30.0055V19.8951H29.7511C29.7098 19.8951 29.6693 19.9002 29.631 19.9095C29.5928 19.9177 29.5595 19.9351 29.5322 19.9613C29.5048 19.987 29.4828 20.0248 29.4657 20.0738C29.4484 20.1225 29.4403 20.1877 29.4403 20.2694V23.566H30.5674C30.7095 23.566 30.8195 23.52 30.8983 23.4301C30.9781 23.3397 31.0345 23.2081 31.0703 23.035L31.168 22.5753H31.5081L31.4637 23.9388H27.9137ZM37.5005 23.9388L37.0836 23.4913C37.0087 23.5671 36.925 23.6362 36.8328 23.6973C36.7421 23.7596 36.6413 23.8123 36.5301 23.8574C36.4201 23.9033 36.3 23.9377 36.1704 23.9622C36.0414 23.9879 35.901 24 35.7493 24C35.5011 24 35.281 23.9707 35.0895 23.9126C34.8985 23.8535 34.7379 23.7678 34.6078 23.6564C34.4774 23.5457 34.3785 23.409 34.3118 23.2472C34.2442 23.0857 34.211 22.9025 34.211 22.6977C34.211 22.5184 34.2392 22.3654 34.2945 22.2391C34.3511 22.1128 34.4271 22.0038 34.5206 21.9111C34.6156 21.8181 34.7259 21.7397 34.8507 21.6743C34.9761 21.6103 35.1076 21.55 35.2447 21.4939C35.166 21.3984 35.0973 21.3079 35.0398 21.2211C34.9811 21.1343 34.9337 21.0487 34.8954 20.9633C34.858 20.8776 34.8306 20.7899 34.8125 20.7003C34.7954 20.6107 34.7865 20.5137 34.7865 20.4109C34.7865 20.2753 34.8116 20.1533 34.863 20.0431C34.9144 19.9337 34.9915 19.839 35.0923 19.7596C35.1942 19.6801 35.3204 19.6189 35.4732 19.5761C35.6245 19.5332 35.801 19.5118 36.0021 19.5118C36.197 19.5118 36.3676 19.5344 36.5117 19.5803C36.6572 19.6262 36.7775 19.6894 36.8722 19.7689C36.9685 19.8483 37.04 19.9411 37.0886 20.0462C37.1369 20.1521 37.1612 20.2632 37.1612 20.3801C37.1612 20.5036 37.1419 20.6158 37.1048 20.7147C37.0674 20.8144 37.011 20.906 36.935 20.9906C36.8593 21.0754 36.7633 21.1549 36.6482 21.2285C36.5329 21.3026 36.3969 21.3759 36.2394 21.4494L36.2838 21.4939L37.1419 22.4043C37.1674 22.2625 37.1844 22.123 37.1925 21.9843C37.2006 21.8457 37.2037 21.7194 37.2037 21.6033V21.3342H38.5304V21.656H38.4354C38.369 21.656 38.3033 21.6602 38.2385 21.6684C38.1749 21.6766 38.1146 21.6952 38.0598 21.7234C38.0043 21.7529 37.9557 21.7949 37.9135 21.8499C37.8711 21.9037 37.8367 21.9781 37.8113 22.072C37.7792 22.1861 37.7429 22.3065 37.6993 22.4358C37.6569 22.5641 37.6055 22.6937 37.5449 22.825L38.1489 23.4609C38.2064 23.5231 38.276 23.564 38.3586 23.5832C38.4416 23.6037 38.5373 23.6136 38.6454 23.6136H38.7021V23.9388H37.5005ZM35.1015 22.7272C35.1015 22.8496 35.1205 22.9626 35.159 23.0666C35.1973 23.1714 35.2509 23.2624 35.3204 23.3397C35.3891 23.4183 35.4732 23.4792 35.5729 23.5243C35.6728 23.5688 35.7828 23.5916 35.9032 23.5916C36.1182 23.5916 36.2989 23.5556 36.4475 23.4845C36.5946 23.4141 36.7178 23.3182 36.8169 23.199L35.5204 21.8051C35.4355 21.8662 35.367 21.9314 35.3123 22.0007C35.2579 22.0689 35.2154 22.1413 35.1841 22.2188C35.1517 22.2952 35.1305 22.3758 35.1185 22.4604C35.1076 22.5446 35.1015 22.6345 35.1015 22.7272ZM36.4273 20.3863C36.4273 20.3153 36.4212 20.2488 36.4081 20.1868C36.3958 20.1245 36.3735 20.0715 36.3425 20.0256C36.3101 19.9797 36.2668 19.9441 36.212 19.9177C36.1565 19.8923 36.0869 19.8788 36.0021 19.8788C35.9342 19.8788 35.8758 19.8923 35.8264 19.9177C35.7759 19.9441 35.7343 19.9797 35.7033 20.0256C35.672 20.0715 35.6477 20.1257 35.6323 20.1888C35.6161 20.2511 35.6083 20.319 35.6083 20.3925C35.6083 20.4616 35.6161 20.529 35.6323 20.5924C35.6477 20.6566 35.6706 20.7198 35.7021 20.782C35.7326 20.8449 35.7717 20.908 35.8191 20.9714C35.8658 21.0357 35.9214 21.103 35.985 21.1752C36.0699 21.1273 36.1403 21.0763 36.197 21.0224C36.2545 20.9683 36.3 20.9103 36.3332 20.848C36.3668 20.7851 36.391 20.7155 36.4061 20.6403C36.4201 20.5647 36.4273 20.4802 36.4273 20.3863ZM44.6685 20.684C44.6685 20.8187 44.6503 20.9368 44.614 21.0377C44.5774 21.1374 44.525 21.2242 44.4585 21.2975C44.3909 21.3697 44.3111 21.4319 44.2172 21.4841C44.1231 21.5348 44.019 21.5788 43.905 21.6154V21.645C44.0444 21.6805 44.1728 21.7296 44.2879 21.7927C44.4029 21.8561 44.5018 21.9322 44.5856 22.0229C44.6693 22.1137 44.7341 22.2185 44.7805 22.3378C44.8268 22.4573 44.8503 22.5917 44.8503 22.7413C44.8503 23.1432 44.7048 23.4437 44.4152 23.6412C44.1251 23.8399 43.6931 23.9388 43.1173 23.9388H41.1648V23.6136H41.4141C41.4585 23.6136 41.501 23.6088 41.5392 23.6006C41.5775 23.5916 41.611 23.573 41.6381 23.5446C41.6666 23.5169 41.6886 23.4772 41.7048 23.4253C41.7219 23.3732 41.7302 23.3042 41.7302 23.2165V20.2866C41.7302 20.2051 41.7219 20.1386 41.7048 20.0879C41.6886 20.0377 41.6655 19.998 41.637 19.9706C41.6079 19.9422 41.5744 19.9227 41.5365 19.9126C41.4979 19.9013 41.4574 19.8951 41.4141 19.8951H41.1648V19.573H42.9346C43.5104 19.573 43.9433 19.6629 44.2334 19.8421C44.523 20.0205 44.6685 20.3018 44.6685 20.684ZM42.6853 23.566H43.0871C43.2214 23.566 43.3354 23.5505 43.4306 23.5212C43.5252 23.4913 43.602 23.4425 43.6607 23.3763C43.7202 23.3092 43.7626 23.2227 43.79 23.1145C43.8159 23.0074 43.8293 22.8761 43.8293 22.7199C43.8293 22.5714 43.8182 22.4406 43.7942 22.331C43.7707 22.2197 43.7305 22.1292 43.6727 22.0568C43.6163 21.9855 43.5403 21.9314 43.4487 21.8956C43.3557 21.86 43.2396 21.8417 43.0991 21.8417H42.6853V23.566ZM42.6853 21.4689H42.9165C43.0589 21.4689 43.1773 21.4534 43.27 21.4238C43.3638 21.3942 43.4395 21.3477 43.4951 21.2851C43.5518 21.2223 43.592 21.1405 43.6152 21.0419C43.6383 20.9418 43.6506 20.8226 43.6506 20.6831C43.6506 20.5433 43.6372 20.4272 43.6113 20.3336C43.5839 20.2395 43.5414 20.1631 43.482 20.1062C43.4225 20.0481 43.3457 20.0064 43.2508 19.9819C43.1561 19.9574 43.0408 19.9442 42.9045 19.9442H42.6853V21.4689ZM46.9094 22.5018L46.7349 23.0277C46.7184 23.0778 46.7025 23.1359 46.6852 23.203C46.6693 23.2695 46.6601 23.3276 46.6601 23.3774C46.6601 23.4172 46.6682 23.4516 46.6844 23.4823C46.7003 23.5122 46.7207 23.5364 46.7458 23.5556C46.7723 23.5739 46.8014 23.5882 46.8338 23.5984C46.8662 23.6088 46.9002 23.6136 46.936 23.6136H47.1901V23.9388H45.6132V23.6136H45.6877C45.7402 23.6136 45.7897 23.6077 45.8343 23.5953C45.8785 23.5832 45.9198 23.5609 45.9583 23.5282C45.9969 23.4955 46.0332 23.4507 46.0675 23.3926C46.1016 23.3346 46.1368 23.2602 46.1725 23.1683L47.4861 19.573H48.3171L49.5832 23.1745C49.6126 23.2602 49.6438 23.3315 49.6762 23.3876C49.7095 23.4448 49.7446 23.4893 49.7832 23.522C49.8214 23.5555 49.8619 23.5781 49.9052 23.5922C49.9488 23.6068 49.9943 23.6136 50.0415 23.6136H50.1518V23.9388H48.1515V23.6136H48.3878C48.4182 23.6136 48.4484 23.6088 48.4796 23.6006C48.5109 23.5916 48.5394 23.577 48.5643 23.5578C48.5886 23.5395 48.6089 23.515 48.6249 23.4854C48.6399 23.4547 48.6483 23.4191 48.6483 23.3774C48.6483 23.3276 48.6422 23.2796 48.631 23.2337L48.5958 23.1145L48.3825 22.5018H46.9094ZM47.9413 21.1262L47.8748 20.906L47.8072 20.6718L47.7413 20.4343L47.6869 20.2091L47.6254 20.412L47.5498 20.6391L47.4699 20.8725L47.3942 21.0957L47.0368 22.1292H48.2604L47.9413 21.1262ZM50.965 23.6136H51.2196C51.2607 23.6136 51.3 23.6097 51.3386 23.6015C51.376 23.5933 51.4081 23.577 51.4374 23.5527C51.4656 23.5274 51.4888 23.4907 51.505 23.4417C51.5223 23.3927 51.5304 23.3284 51.5304 23.2489V20.2694C51.5304 20.1877 51.5223 20.1225 51.505 20.0738C51.4888 20.0248 51.4656 19.987 51.4374 19.9613C51.4081 19.9351 51.376 19.9177 51.3386 19.9095C51.3 19.9002 51.2607 19.8951 51.2196 19.8951H50.965V19.573H52.9177C53.4902 19.573 53.9093 19.6702 54.1768 19.8627C54.4444 20.0563 54.5778 20.3373 54.5778 20.7054C54.5778 20.8677 54.5544 21.01 54.5069 21.1355C54.4597 21.262 54.3969 21.3708 54.3193 21.4646C54.2405 21.5582 54.1526 21.6377 54.0537 21.7019C53.9557 21.7673 53.8549 21.8203 53.7527 21.862L54.4737 23.1156C54.5251 23.203 54.5756 23.2777 54.6234 23.3408C54.6717 23.4031 54.7203 23.4547 54.7686 23.4955C54.8172 23.5364 54.8663 23.566 54.918 23.5854C54.9693 23.6037 55.0232 23.6136 55.0808 23.6136H55.1037V23.9388H54.9057C54.7242 23.9388 54.5664 23.9318 54.4312 23.9186C54.2961 23.9042 54.178 23.8766 54.076 23.836C53.975 23.7951 53.887 23.739 53.8133 23.6677C53.7387 23.5953 53.67 23.5028 53.6072 23.3896L52.8884 22.0444H52.4854V23.2489C52.4854 23.3298 52.4947 23.3927 52.5109 23.4417C52.5279 23.4907 52.5502 23.5274 52.5796 23.5527C52.6078 23.577 52.6413 23.5933 52.6784 23.6015C52.7158 23.6097 52.7552 23.6136 52.7965 23.6136H53.0571V23.9388H50.965V23.6136ZM52.4854 21.6887H52.8259C52.966 21.6887 53.0833 21.6695 53.1774 21.6318C53.2712 21.594 53.3458 21.5379 53.4014 21.4635C53.4581 21.3883 53.4983 21.2944 53.5234 21.1825C53.5477 21.0692 53.56 20.9387 53.56 20.7888C53.56 20.6341 53.5466 20.5025 53.5184 20.3945C53.4913 20.2877 53.4477 20.1989 53.3883 20.1307C53.3296 20.0614 53.252 20.0112 53.1582 19.9808C53.0629 19.9503 52.949 19.9351 52.8147 19.9351H52.4854V21.6887ZM66.0278 23.9388V23.6136H66.0865C66.1498 23.6136 66.2057 23.6097 66.254 23.6015C66.3026 23.5933 66.342 23.5781 66.3732 23.5536C66.4056 23.5305 66.4285 23.4955 66.445 23.4507C66.4601 23.4059 66.4679 23.347 66.4679 23.2734V20.1764L65.2465 23.9388H64.8354L63.554 20.1764V23.2165C63.554 23.3042 63.5643 23.3732 63.5855 23.4253C63.6065 23.4772 63.6358 23.5169 63.6743 23.5446C63.7126 23.573 63.7592 23.5916 63.8145 23.6006C63.8701 23.6088 63.9326 23.6136 64.0041 23.6136H64.0399V23.9388H62.5364V23.6136H62.7908C62.8341 23.6136 62.8746 23.6097 62.9128 23.6015C62.9502 23.5933 62.9826 23.577 63.0117 23.5527C63.0401 23.5274 63.0625 23.4907 63.0784 23.4417C63.0935 23.3927 63.1019 23.3284 63.1019 23.2489V20.2694C63.1019 20.1877 63.0935 20.1225 63.0784 20.0738C63.0625 20.0248 63.0401 19.987 63.0117 19.9613C62.9826 19.9351 62.9502 19.9177 62.9128 19.9095C62.8746 19.9002 62.8341 19.8951 62.7908 19.8951H62.5364V19.573H64.2822L65.2875 22.5263L66.252 19.573H67.9655V19.8951H67.7111C67.6678 19.8951 67.6271 19.9002 67.5899 19.9095C67.5517 19.9177 67.5193 19.936 67.4919 19.9644C67.4648 19.9921 67.4425 20.0318 67.4266 20.0837C67.4115 20.1358 67.4031 20.2051 67.4031 20.2928V23.2165C67.4031 23.3042 67.4115 23.3732 67.4266 23.4253C67.4425 23.4772 67.4648 23.5169 67.4919 23.5446C67.5193 23.573 67.5517 23.5916 67.5899 23.6006C67.6271 23.6088 67.6678 23.6136 67.7111 23.6136H67.9655V23.9388H66.0278ZM70.4762 23.566H71.689C71.7507 23.566 71.8032 23.5547 71.8465 23.5313C71.89 23.509 71.9275 23.4761 71.9585 23.4344C71.99 23.3927 72.0151 23.3439 72.0341 23.287C72.0526 23.2295 72.0668 23.1675 72.0766 23.1004L72.1243 22.8138H72.5443L72.4996 23.9388H68.9499V23.6136H69.2042C69.2475 23.6136 69.288 23.6097 69.3263 23.6015C69.3637 23.5933 69.3958 23.577 69.4251 23.5527C69.4533 23.5274 69.4757 23.4907 69.4916 23.4417C69.507 23.3927 69.515 23.3284 69.515 23.2489V20.2928C69.515 20.2051 69.507 20.1358 69.4916 20.0837C69.4757 20.0318 69.4533 19.9921 69.4262 19.9644C69.3989 19.936 69.3668 19.9177 69.3282 19.9095C69.2911 19.9002 69.2495 19.8951 69.2042 19.8951H68.9499V19.573H72.3148L72.3382 20.6983H71.9152L71.8858 20.4089C71.8699 20.2601 71.8325 20.1448 71.773 20.0653C71.7141 19.9859 71.6222 19.9461 71.498 19.9461H70.4762V21.4748H71.9152V21.8417H70.4762V23.566ZM74.7004 22.5018L74.5258 23.0277C74.5097 23.0778 74.4935 23.1359 74.4761 23.203C74.4602 23.2695 74.4513 23.3276 74.4513 23.3774C74.4513 23.4172 74.4591 23.4516 74.4753 23.4823C74.4915 23.5122 74.5119 23.5364 74.5367 23.5556C74.5633 23.5739 74.5926 23.5882 74.6247 23.5984C74.6571 23.6088 74.6914 23.6136 74.7269 23.6136H74.981V23.9388H73.4041V23.6136H73.4787C73.5314 23.6136 73.5806 23.6077 73.6253 23.5953C73.6697 23.5832 73.711 23.5609 73.7495 23.5282C73.7878 23.4955 73.8241 23.4507 73.8585 23.3926C73.8928 23.3346 73.928 23.2602 73.9634 23.1683L75.277 19.573H76.1081L77.3745 23.1745C77.4035 23.2602 77.4348 23.3315 77.4672 23.3876C77.5004 23.4448 77.5356 23.4893 77.5741 23.522C77.6126 23.5555 77.6531 23.5781 77.6961 23.5922C77.7397 23.6068 77.7852 23.6136 77.8327 23.6136H77.9427V23.9388H75.9425V23.6136H76.1787C76.2091 23.6136 76.2393 23.6088 76.2706 23.6006C76.3019 23.5916 76.3303 23.577 76.3552 23.5578C76.3795 23.5395 76.3999 23.515 76.4158 23.4854C76.4312 23.4547 76.4392 23.4191 76.4392 23.3774C76.4392 23.3276 76.4334 23.2796 76.4219 23.2337L76.3867 23.1145L76.1737 22.5018H74.7004ZM75.7325 21.1262L75.6657 20.906L75.5982 20.6718L75.5325 20.4343L75.4778 20.2091L75.4166 20.412L75.3407 20.6391L75.2608 20.8725L75.1852 21.0957L74.8277 22.1292H76.0517L75.7325 21.1262ZM80.6818 23.2165C80.6818 23.3042 80.6897 23.3732 80.7059 23.4253C80.7209 23.4772 80.7433 23.5169 80.7715 23.5446C80.8005 23.573 80.834 23.5916 80.8715 23.6006C80.9089 23.6088 80.9491 23.6136 80.9927 23.6136H81.247V23.9388H79.1549V23.6136H79.4093C79.4548 23.6136 79.4964 23.6088 79.5336 23.6006C79.5721 23.5916 79.6042 23.573 79.6316 23.5446C79.6587 23.5169 79.681 23.4772 79.6972 23.4253C79.7123 23.3732 79.7204 23.3042 79.7204 23.2165V19.9461H79.2359C79.1457 19.9461 79.07 19.9563 79.0086 19.9766C78.948 19.9963 78.8986 20.0248 78.86 20.0614C78.8215 20.098 78.7925 20.144 78.7743 20.1978C78.755 20.2511 78.7419 20.3122 78.7338 20.3801L78.6925 20.7592H78.2845L78.3166 19.573H82.0901L82.1194 20.7592H81.7148L81.6701 20.3801C81.662 20.3122 81.6489 20.2511 81.6299 20.1978C81.6117 20.144 81.5821 20.098 81.5439 20.0614C81.5056 20.0248 81.4559 19.9963 81.3945 19.9766C81.3339 19.9563 81.2571 19.9461 81.1672 19.9461H80.6818V23.2165ZM87.9724 23.9388L87.5555 23.4913C87.4804 23.5671 87.3969 23.6362 87.305 23.6973C87.214 23.7596 87.1132 23.8123 87.0018 23.8574C86.892 23.9033 86.7719 23.9377 86.6427 23.9622C86.5134 23.9879 86.3729 24 86.2213 24C85.973 24 85.753 23.9707 85.5611 23.9126C85.3704 23.8535 85.2098 23.7678 85.0794 23.6564C84.9493 23.5457 84.8504 23.409 84.7837 23.2472C84.7161 23.0857 84.6826 22.9025 84.6826 22.6977C84.6826 22.5184 84.7111 22.3654 84.7664 22.2391C84.8231 22.1128 84.899 22.0038 84.9926 21.9111C85.0875 21.8181 85.1978 21.7397 85.3229 21.6743C85.448 21.6103 85.5796 21.55 85.7167 21.4939C85.6379 21.3984 85.5692 21.3079 85.5117 21.2211C85.4531 21.1343 85.4056 21.0487 85.3673 20.9633C85.3299 20.8776 85.3025 20.7899 85.2844 20.7003C85.2674 20.6107 85.2584 20.5137 85.2584 20.4109C85.2584 20.2753 85.2833 20.1533 85.3349 20.0431C85.3863 19.9337 85.4631 19.839 85.5642 19.7596C85.6661 19.6801 85.7923 19.6189 85.9448 19.5761C86.0964 19.5332 86.2729 19.5118 86.474 19.5118C86.6689 19.5118 86.8395 19.5344 86.9836 19.5803C87.1291 19.6262 87.2495 19.6894 87.3441 19.7689C87.4402 19.8483 87.5119 19.9411 87.5605 20.0462C87.6088 20.1521 87.6331 20.2632 87.6331 20.3801C87.6331 20.5036 87.6139 20.6158 87.5767 20.7147C87.5393 20.8144 87.4826 20.906 87.407 20.9906C87.3313 21.0754 87.2352 21.1549 87.1202 21.2285C87.0048 21.3026 86.8688 21.3759 86.7113 21.4494L86.7557 21.4939L87.6139 22.4043C87.639 22.2625 87.6563 22.123 87.6644 21.9843C87.6725 21.8457 87.6756 21.7194 87.6756 21.6033V21.3342H89.002V21.656H88.9073C88.8409 21.656 88.7753 21.6602 88.7105 21.6684C88.6468 21.6766 88.5862 21.6952 88.5318 21.7234C88.4762 21.7529 88.4276 21.7949 88.3852 21.8499C88.343 21.9037 88.3086 21.9781 88.2835 22.072C88.2511 22.1861 88.2148 22.3065 88.1712 22.4358C88.1288 22.5641 88.0774 22.6937 88.0168 22.825L88.6206 23.4609C88.6784 23.5231 88.7479 23.564 88.8306 23.5832C88.9135 23.6037 89.0093 23.6136 89.1173 23.6136H89.174V23.9388H87.9724ZM85.5734 22.7272C85.5734 22.8496 85.5924 22.9626 85.6309 23.0666C85.6692 23.1714 85.7225 23.2624 85.7923 23.3397C85.8613 23.4183 85.9448 23.4792 86.0448 23.5243C86.1448 23.5688 86.2548 23.5916 86.3751 23.5916C86.5902 23.5916 86.7708 23.5556 86.9191 23.4845C87.0666 23.4141 87.1897 23.3182 87.2888 23.199L85.9923 21.8051C85.9074 21.8662 85.839 21.9314 85.7843 22.0007C85.7298 22.0689 85.6873 22.1413 85.6561 22.2188C85.624 22.2952 85.6027 22.3758 85.5905 22.4604C85.5796 22.5446 85.5734 22.6345 85.5734 22.7272ZM86.8993 20.3863C86.8993 20.3153 86.8931 20.2488 86.88 20.1868C86.8677 20.1245 86.8454 20.0715 86.8144 20.0256C86.7817 19.9797 86.7387 19.9441 86.684 19.9177C86.6284 19.8923 86.5589 19.8788 86.474 19.8788C86.4061 19.8788 86.3478 19.8923 86.2983 19.9177C86.2478 19.9441 86.2062 19.9797 86.1752 20.0256C86.1436 20.0715 86.1196 20.1257 86.1043 20.1888C86.0881 20.2511 86.08 20.319 86.08 20.3925C86.08 20.4616 86.0881 20.529 86.1043 20.5924C86.1196 20.6566 86.1428 20.7198 86.1741 20.782C86.2042 20.8449 86.2436 20.908 86.2911 20.9714C86.3377 21.0357 86.3933 21.103 86.457 21.1752C86.5418 21.1273 86.6122 21.0763 86.6689 21.0224C86.7264 20.9683 86.7719 20.9103 86.8052 20.848C86.8387 20.7851 86.8627 20.7155 86.8781 20.6403C86.892 20.5647 86.8993 20.4802 86.8993 20.3863ZM95.1278 19.615L95.9642 21.9508C96.0005 22.0455 96.0326 22.1433 96.0639 22.2411L96.1479 22.5232L96.2152 22.7709C96.2356 22.8473 96.2507 22.9116 96.2599 22.9657L96.3102 22.7213L96.3677 22.4389L96.4333 22.1351C96.4557 22.0322 96.4789 21.9313 96.5023 21.8333L96.8223 20.5137L96.8416 20.4303L96.8606 20.3367L96.8737 20.2499L96.8779 20.1857C96.8779 20.0797 96.8475 20.0053 96.7849 19.9613C96.7235 19.9177 96.6243 19.8951 96.4909 19.8951H96.3515V19.573H97.9312V19.8951H97.8159C97.7561 19.8951 97.7047 19.9013 97.6592 19.9137C97.6137 19.9258 97.5735 19.9492 97.538 19.9839C97.5029 20.0186 97.4707 20.0665 97.4411 20.1287C97.4129 20.1908 97.3847 20.2725 97.3574 20.3734L96.4174 23.9388H95.7277L94.7098 21.0692L93.8374 23.9388H93.0863L91.9777 20.2212C91.9595 20.1572 91.9383 20.1051 91.9129 20.0634C91.8869 20.0205 91.8565 19.9881 91.8221 19.9625C91.7878 19.938 91.7484 19.9208 91.704 19.9106C91.6596 19.9002 91.6079 19.8951 91.5485 19.8951H91.4686V19.573H93.492V19.8951H93.3527C93.2307 19.8951 93.1399 19.9196 93.0793 19.9675C93.0195 20.0157 92.9891 20.0899 92.9891 20.1908C92.9891 20.2254 92.9952 20.2745 93.0084 20.3387C93.0218 20.4035 93.0357 20.4639 93.0519 20.5197L93.4568 21.9322L93.5255 22.185C93.5507 22.2749 93.5738 22.3665 93.5951 22.4589C93.6174 22.5519 93.6367 22.6407 93.6548 22.7261C93.6719 22.8118 93.6853 22.8882 93.6931 22.9536C93.7204 22.8222 93.7506 22.6999 93.783 22.5844C93.8154 22.4705 93.8495 22.3533 93.8852 22.234L94.6838 19.615H95.1278ZM98.7444 23.9388V23.6136H98.9988C99.0443 23.6136 99.0856 23.6088 99.1228 23.6006C99.1613 23.5916 99.1934 23.573 99.2208 23.5446C99.2481 23.5169 99.2702 23.4772 99.2864 23.4253C99.3015 23.3732 99.3096 23.3042 99.3096 23.2165V20.2959C99.3096 20.2082 99.3015 20.1386 99.2864 20.0868C99.2702 20.0349 99.2481 19.9952 99.2208 19.9675C99.1934 19.9391 99.1613 19.9208 99.1228 19.9126C99.0856 19.9033 99.0443 19.8982 98.9988 19.8982H98.7444V19.573H100.836V19.8982H100.582C100.539 19.8982 100.497 19.9033 100.459 19.9126C100.42 19.9208 100.387 19.9391 100.36 19.9675C100.332 19.9952 100.31 20.0349 100.295 20.0868C100.279 20.1386 100.271 20.2082 100.271 20.2959V23.2165C100.271 23.3042 100.279 23.3732 100.295 23.4253C100.31 23.4772 100.332 23.5169 100.36 23.5446C100.387 23.573 100.42 23.5916 100.459 23.6006C100.497 23.6088 100.539 23.6136 100.582 23.6136H100.836V23.9388H98.7444Z" fill="#C7A17A"/>
<path d="M114.529 9.09699C114.081 9.8244 113.633 10.5521 113.191 11.2837C112.742 12.0275 112.288 12.7687 111.833 13.5088C111.633 13.834 111.406 14.1553 111.147 14.4371C110.925 14.6784 110.664 14.8667 110.365 15.0005C110.029 15.151 109.635 15.2184 109.271 15.2483C108.751 15.2914 108.21 15.2798 107.688 15.2601L107.39 15.2477L107.286 15.244V14.1607H107.393L107.473 14.1624C107.675 14.1711 107.867 14.1485 108.061 14.0908C108.245 14.0355 108.421 13.9397 108.575 13.8236C108.761 13.6847 108.929 13.5175 109.082 13.3434C109.272 13.1269 109.44 12.8865 109.596 12.6436C110.043 11.9438 110.505 11.2553 110.954 10.5566C111.383 9.88922 111.818 9.2255 112.251 8.56235C111.929 8.4313 111.618 8.27037 111.324 8.0838C110.967 7.85805 110.657 7.57988 110.388 7.25493C110.094 6.8987 109.875 6.47933 109.721 6.04249C109.535 5.51011 109.466 4.93545 109.466 4.37292C109.466 3.08663 109.88 1.96775 110.959 1.23273C112.15 0.421902 113.791 0.231104 115.193 0.23195C117.037 0.233922 118.881 0.235333 120.724 0.235333H120.832V1.35844H120.438C120.222 1.35787 120.007 1.36886 119.793 1.40014C119.611 1.42664 119.43 1.48103 119.277 1.58502C119.129 1.68338 119.017 1.82909 118.94 1.98833C118.837 2.20167 118.814 2.46293 118.814 2.69657V13.3087C118.814 13.544 118.838 13.8092 118.94 14.024C119.016 14.1849 119.129 14.3323 119.277 14.4324C119.434 14.5386 119.614 14.6012 119.798 14.6372C120.011 14.6798 120.225 14.7001 120.442 14.7088L120.729 14.7212L120.832 14.726V15.848L120.719 15.8429C118.664 15.7446 116.608 15.6482 114.553 15.5512L114.45 15.5467V14.4419L114.824 14.4586C115.043 14.4687 115.263 14.4665 115.481 14.4425C115.656 14.4247 115.833 14.3768 115.987 14.2903C116.139 14.2038 116.251 14.0806 116.331 13.9245C116.432 13.7255 116.456 13.4575 116.456 13.2377V9.15082L114.529 9.09699ZM4.51975 8.39692V13.086C4.51975 13.3281 4.54377 13.6249 4.64681 13.8461C4.72277 14.0088 4.83055 14.1567 4.98135 14.2542C5.13661 14.356 5.31589 14.4059 5.49712 14.4281C5.71381 14.4549 5.93386 14.4591 6.15223 14.4498C6.24438 14.4456 6.33653 14.4422 6.42896 14.4402L6.53815 14.4383V15.54L6.43567 15.545C4.38404 15.6403 2.33269 15.7384 0.281064 15.8331L0.168248 15.8381V14.7136L0.274083 14.7119L0.533224 14.7021C0.751874 14.6925 0.973038 14.6719 1.1889 14.6279C1.36873 14.5913 1.54549 14.5245 1.70048 14.4242C1.85434 14.3253 1.95766 14.1795 2.03529 14.0155C2.13694 13.7996 2.16179 13.5358 2.16179 13.3V2.68333C2.16179 2.44969 2.13889 2.18646 2.03557 1.97311C1.9571 1.81049 1.85294 1.66986 1.70048 1.5715C1.54773 1.47286 1.37376 1.41113 1.1942 1.38464C0.977785 1.35223 0.756621 1.34181 0.537971 1.34265H0.167969V0.218982H0.276037C2.32766 0.218982 4.37845 0.217015 6.43064 0.215887H6.53787V1.32236H6.43064L6.15642 1.32377C5.93637 1.32377 5.71772 1.34209 5.50103 1.37788C5.317 1.40804 5.13829 1.46637 4.98386 1.57375C4.83391 1.67859 4.72304 1.82543 4.64709 1.99171C4.54293 2.21661 4.51919 2.50464 4.51919 2.74984V7.28368C4.74874 7.27719 4.98135 7.26536 5.20726 7.23407C5.36894 7.21181 5.54124 7.1763 5.69371 7.11655C5.8001 7.07484 5.90007 7.01312 5.97938 6.93026C6.06902 6.83669 6.16619 6.75186 6.24634 6.64815C6.49543 6.32658 6.71435 5.90439 6.89531 5.5397C7.22007 4.88416 7.54986 4.23059 7.87993 3.57702C8.12734 3.08579 8.39989 2.60723 8.69477 2.14221C8.9433 1.75074 9.2273 1.37196 9.55681 1.04419C9.8503 0.752495 10.1843 0.510679 10.5596 0.338762C10.9338 0.166844 11.3272 0.0873686 11.738 0.0873686C12.0145 0.0873686 12.3001 0.111326 12.5665 0.192212C12.7712 0.253933 12.9793 0.343274 13.1421 0.486726C13.2842 0.612705 13.3889 0.77025 13.4579 0.947523C13.5263 1.12423 13.5646 1.31221 13.5646 1.50245C13.5646 1.69945 13.5358 1.88884 13.4719 2.07485C13.4152 2.23916 13.3403 2.39924 13.2272 2.53339C13.1247 2.6557 13.0142 2.7628 12.8765 2.84622C12.745 2.92514 12.6081 2.98235 12.4573 3.0142L12.3554 3.03561L12.3311 2.93303C12.2962 2.78873 12.2599 2.64105 12.2002 2.50493C12.1443 2.37726 12.0656 2.26283 11.9709 2.16109C11.8787 2.06104 11.7754 1.98777 11.6492 1.93788C11.5006 1.8787 11.3496 1.85277 11.1901 1.85305C10.7481 1.85417 10.3758 2.11234 10.0846 2.42714C9.61182 2.93867 9.21082 3.66664 8.89332 4.2847C8.69701 4.66658 8.50154 5.04874 8.30774 5.43175C8.15694 5.72965 7.99666 6.02163 7.8319 6.31135C7.70233 6.53964 7.56885 6.77131 7.41415 6.98409C7.32758 7.10331 7.23375 7.21688 7.13239 7.32313C7.37673 7.34088 7.62051 7.37922 7.85592 7.4477C8.12064 7.52549 8.36303 7.63878 8.58671 7.80197C8.80284 7.96007 8.99133 8.15792 9.1466 8.37691C9.32196 8.62267 9.48895 8.87265 9.63863 9.13588C10.2977 10.2951 10.9542 11.4551 11.6193 12.6109C11.8796 13.0635 12.2192 13.5367 12.6671 13.816C13.0418 14.0499 13.4612 14.1578 13.9025 14.1407L13.9617 14.1364L14.0759 14.1285V15.2184L13.9737 15.2232L13.6737 15.2359C13.1111 15.2584 12.5283 15.2708 11.9664 15.2246C11.5772 15.1922 11.1681 15.1181 10.8098 14.9549C10.497 14.8123 10.2225 14.611 9.99997 14.3464C9.74418 14.0443 9.52581 13.6999 9.339 13.351C8.69142 12.1402 8.04134 10.9295 7.40717 9.71138C7.2762 9.4583 7.1215 9.1945 6.9358 8.97833C6.79059 8.8098 6.61522 8.67452 6.41249 8.5849C6.17485 8.47921 5.89616 8.43158 5.63842 8.41383C5.26953 8.38705 4.89143 8.38874 4.51975 8.39692ZM28.1943 7.395C28.1943 8.41805 28.0692 9.44167 27.7712 10.4222C27.5054 11.2942 27.0985 12.096 26.5174 12.7974C25.9564 13.4744 25.2734 14.0012 24.4803 14.3737C23.606 14.7841 22.6563 14.9616 21.6962 14.9957C20.7337 15.0304 19.7365 14.9244 18.8381 14.5575C18.0353 14.23 17.3537 13.7472 16.7966 13.0773C16.2174 12.3806 15.8273 11.5689 15.5779 10.6984C15.2898 9.6925 15.1786 8.63732 15.1786 7.59228C15.1786 6.54612 15.2898 5.48784 15.5779 4.48001C15.8284 3.60322 16.2182 2.78422 16.7963 2.07795C17.3492 1.40268 18.0375 0.89003 18.8356 0.541403C19.7423 0.145147 20.7334 0 21.7166 0C22.6663 0 23.6026 0.149371 24.4781 0.53379C25.2658 0.880162 25.9542 1.38098 26.5163 2.0368C27.1011 2.72025 27.5054 3.51163 27.7707 4.37094C28.072 5.34834 28.1943 6.37336 28.1943 7.395ZM33.7776 6.41423C35.9088 6.39365 38.0403 6.37505 40.172 6.35983V2.53734C40.172 2.3099 40.1452 2.05879 40.0506 1.85051C39.9788 1.69381 39.8727 1.56896 39.7297 1.47539C39.5845 1.37929 39.417 1.32377 39.2458 1.29812C39.0375 1.26684 38.8266 1.25134 38.6152 1.25246H38.2321V0.215604H38.3396C40.3159 0.215604 42.2913 0.215602 44.2672 0.21363H44.3756V1.24457H44.005C43.7933 1.24485 43.5825 1.26176 43.3736 1.29333C43.2019 1.31926 43.0346 1.37562 42.8891 1.47145C42.747 1.56614 42.6406 1.68789 42.5688 1.84572C42.4747 2.05343 42.4471 2.30398 42.4471 2.53058V12.0613C42.4471 12.2668 42.4714 12.5083 42.5666 12.6935C42.6406 12.8366 42.7439 12.9581 42.8835 13.039C43.0354 13.1261 43.2116 13.1692 43.3834 13.192C43.5878 13.2185 43.7964 13.227 44.0019 13.2227L44.2675 13.2196H44.3756V14.2472L44.2692 14.2483C42.2935 14.2802 40.3175 14.3148 38.3413 14.3461L38.2321 14.3475V13.3124L38.3377 13.3101L38.6138 13.3056C38.8252 13.3025 39.0363 13.2822 39.2452 13.2492C39.417 13.2213 39.5837 13.1607 39.7297 13.0632C39.873 12.9665 39.9785 12.84 40.0506 12.6813C40.1447 12.4725 40.172 12.2211 40.172 11.9939V7.54635C38.0403 7.5641 35.9088 7.58552 33.7776 7.60976V12.1008C33.7776 12.3228 33.7996 12.5861 33.8976 12.7884C33.9714 12.9395 34.0766 13.0714 34.2179 13.1624C34.3679 13.2585 34.5385 13.3093 34.7131 13.3318C34.9225 13.3589 35.1325 13.369 35.3436 13.3639L35.608 13.3589L35.7169 13.3575V14.3937L35.6122 14.396C33.636 14.4422 31.66 14.487 29.6844 14.5327L29.5743 14.5355V13.4888L29.6799 13.4865L29.9427 13.482C30.1543 13.4764 30.3649 13.4558 30.5732 13.4186C30.7503 13.3876 30.9214 13.3304 31.07 13.2275C31.2124 13.1289 31.3191 12.993 31.3931 12.8363C31.4886 12.6357 31.502 12.3589 31.502 12.1399V2.48774C31.502 2.27439 31.4799 2.03652 31.3822 1.84347C31.3082 1.69579 31.2004 1.56417 31.0613 1.47568C30.9117 1.37985 30.7394 1.32912 30.5654 1.3046C30.359 1.27585 30.1535 1.26458 29.9455 1.26458H29.5743V0.21842L35.7169 0.21673V1.25472H35.3464C35.1356 1.25669 34.9247 1.27219 34.7158 1.30376C34.5396 1.3311 34.3699 1.38549 34.2202 1.48526C34.0786 1.58024 33.9722 1.71298 33.8976 1.86658C33.7996 2.07006 33.7776 2.33527 33.7776 2.55876V6.41423ZM53.7278 7.47137C52.7398 7.47335 51.7513 7.47645 50.7633 7.48012V11.8891C50.7633 12.1072 50.7862 12.366 50.8881 12.5635C50.9663 12.7146 51.0766 12.847 51.2221 12.9367C51.3791 13.0336 51.5606 13.0829 51.7418 13.1072C51.9596 13.1371 52.1794 13.1514 52.4 13.1514L52.6739 13.1503H52.7817V14.1736L52.6748 14.175C50.619 14.1908 48.5631 14.2091 46.5076 14.2297L46.3995 14.2308V13.2027L46.5051 13.2007L46.7799 13.1974C46.9999 13.1954 47.2197 13.1785 47.4375 13.1452C47.6198 13.1176 47.8008 13.0641 47.9575 12.9646C48.1018 12.8724 48.2174 12.7405 48.2912 12.5855C48.3861 12.3851 48.4056 12.125 48.4056 11.9063V2.44293C48.4056 2.23324 48.3822 2.00073 48.2811 1.81303C48.2018 1.66676 48.0893 1.53683 47.9468 1.45031C47.7941 1.35815 47.6148 1.30686 47.4392 1.2829C47.2214 1.25275 47.0008 1.24316 46.781 1.24316H46.3995V0.213913H52.7817V1.24006H52.4C52.1794 1.24006 51.9599 1.25613 51.7421 1.28741C51.56 1.3139 51.3805 1.3652 51.2232 1.46469C51.0783 1.55741 50.9666 1.6862 50.8881 1.8398C50.7862 2.03708 50.7633 2.29609 50.7633 2.51536V6.30234C51.7611 6.29839 52.7591 6.2967 53.7574 6.29501C53.8211 5.43457 53.9816 4.57921 54.2802 3.76895C54.5583 3.01307 54.964 2.32118 55.5253 1.74342C56.0861 1.16651 56.7621 0.747701 57.506 0.455441C58.36 0.120343 59.2999 0.000283674 60.2119 0.000283674C61.1468 0.000283674 62.0795 0.145709 62.9446 0.514628C63.7232 0.846626 64.4073 1.32743 64.9644 1.96945C65.5377 2.62922 65.9262 3.40792 66.1945 4.23848C66.5003 5.18572 66.6234 6.18199 66.6234 7.1763C66.6234 8.17004 66.5 9.16124 66.1945 10.1082C65.9253 10.9441 65.5302 11.7158 64.9519 12.3775C64.3906 13.019 63.7137 13.5032 62.9324 13.8383C62.065 14.2094 61.1237 14.343 60.1868 14.343C59.2429 14.343 58.2723 14.2187 57.3929 13.8574C56.6214 13.5406 55.9386 13.072 55.3846 12.4435C54.8183 11.802 54.4243 11.0521 54.1662 10.235C53.8848 9.34246 53.7574 8.40593 53.7278 7.47137ZM72.3195 13.0486C73.9766 13.0643 75.6331 13.0872 77.2898 13.1123V2.45702C77.2898 2.25466 77.2689 2.03201 77.1904 1.84375C77.129 1.69663 77.0327 1.58136 76.9042 1.49005C76.7746 1.39733 76.6325 1.33476 76.4775 1.30178C76.2999 1.26402 76.1173 1.24767 75.9366 1.24767L75.8769 1.24598H75.7696V0.215323H81.0974V1.25218H80.9301C80.7433 1.25218 80.5584 1.27022 80.3761 1.30629C80.2178 1.33786 80.0695 1.39338 79.9449 1.49878C79.8257 1.5994 79.7366 1.74004 79.6752 1.88236C79.5883 2.08331 79.5646 2.32315 79.5646 2.54016V13.1472C81.2255 13.1726 82.886 13.2047 84.5466 13.2402V2.55876C84.5466 2.32596 84.5156 2.07767 84.414 1.86658C84.3386 1.70931 84.2364 1.58052 84.092 1.48357C83.9471 1.38662 83.7784 1.33138 83.6075 1.30404C83.4006 1.27163 83.187 1.25472 82.9781 1.25472H82.595V0.21673L88.7499 0.218704V1.26458H88.3785C88.1671 1.26458 87.9565 1.28178 87.7471 1.3125C87.5675 1.33871 87.4042 1.38802 87.2523 1.49033C87.1132 1.58362 87.0143 1.72228 86.9423 1.87278C86.8409 2.08443 86.8097 2.33385 86.8097 2.56721V12.2141C86.8097 12.4361 86.8415 12.6639 86.9415 12.864C87.0185 13.0181 87.1216 13.1438 87.264 13.2391C87.4092 13.3355 87.579 13.3938 87.749 13.4217C87.9582 13.4567 88.1701 13.4719 88.3812 13.4769L88.6457 13.4831L88.7499 13.4865V14.5304L88.6396 14.5279C81.8352 14.3712 75.0293 14.2596 68.2232 14.1886L68.1171 14.1874V13.1607L68.2263 13.1624L68.4888 13.1658C68.6969 13.1678 68.9024 13.1593 69.1082 13.1306C69.2808 13.1072 69.4558 13.0607 69.6044 12.9668C69.7415 12.8806 69.851 12.7549 69.9253 12.6112C70.0236 12.4226 70.0451 12.1893 70.0451 11.9801V2.51846C70.0451 2.30398 70.0317 2.03398 69.9364 1.83896C69.8591 1.68057 69.7482 1.56107 69.6022 1.46553C69.4572 1.36914 69.29 1.31475 69.1188 1.2891C68.9096 1.25697 68.6991 1.24119 68.488 1.24119L68.2227 1.2395L68.1171 1.23697V0.213349H74.2595V1.24429H73.8886C73.6778 1.24429 73.4667 1.26008 73.2581 1.29136C73.083 1.31785 72.911 1.36858 72.7616 1.46638C72.62 1.56079 72.5153 1.68874 72.4404 1.84206C72.3427 2.04188 72.3195 2.30313 72.3195 2.52296V13.0486ZM94.8092 7.74983V12.3197C94.8092 12.5573 94.8402 12.8129 94.9422 13.0297C95.0176 13.1895 95.12 13.3279 95.2653 13.4288C95.4107 13.5296 95.5772 13.5931 95.75 13.6249C95.9583 13.6621 96.1686 13.6869 96.3803 13.692L96.7486 13.703V14.7618L96.6377 14.7587C94.6663 14.6998 92.6939 14.6432 90.7222 14.5834L90.6183 14.5798V13.5311L90.7294 13.5356L90.9796 13.5432C91.1944 13.5482 91.4086 13.5409 91.6219 13.5127C91.7914 13.4905 91.9601 13.4386 92.1047 13.3453C92.2483 13.252 92.3533 13.1275 92.4239 12.9705C92.5197 12.7583 92.5462 12.4995 92.5462 12.269V2.51507C92.5462 2.29355 92.5138 2.06048 92.4139 1.86066C92.3371 1.70791 92.236 1.58023 92.0927 1.48638C91.9478 1.39253 91.7777 1.33786 91.6082 1.31278C91.3996 1.28178 91.188 1.27078 90.9766 1.26937H90.6183V0.220114L96.7486 0.222082V1.28234H96.378C96.1667 1.28149 95.9555 1.29756 95.7472 1.32997C95.5763 1.35618 95.4088 1.41283 95.2641 1.51091C95.12 1.60814 95.0164 1.74116 94.9422 1.89814C94.8388 2.11431 94.8092 2.36795 94.8092 2.60497V6.53541C96.9449 6.56444 99.0803 6.5977 101.216 6.63208V2.64274C101.216 2.41079 101.194 2.13685 101.095 1.92407C101.021 1.76653 100.915 1.62646 100.772 1.52725C100.624 1.42495 100.465 1.36943 100.289 1.34068C100.076 1.3063 99.8622 1.29023 99.6472 1.29023H99.2758V0.223494L99.3836 0.223778C101.356 0.224905 103.327 0.226595 105.299 0.226595H105.407V1.30573H105.299L105.048 1.30404C104.837 1.30404 104.626 1.31954 104.417 1.35167C104.241 1.37845 104.071 1.43453 103.923 1.53683C103.779 1.6366 103.674 1.77414 103.6 1.93281C103.504 2.14136 103.491 2.42855 103.491 2.65514V12.6726C103.491 12.8966 103.514 13.1464 103.612 13.3496C103.686 13.5046 103.785 13.639 103.931 13.7309C104.081 13.825 104.249 13.887 104.421 13.9203C104.629 13.9608 104.84 13.9803 105.051 13.9882L105.303 13.9989L105.407 14.0026V15.0792L105.295 15.0749C103.324 14.9983 101.351 14.9258 99.38 14.8565L99.2758 14.8526V13.7909L99.3858 13.7932L99.6506 13.8013C99.8659 13.8075 100.079 13.7991 100.293 13.7737C100.468 13.7526 100.626 13.7027 100.774 13.6052C100.916 13.5102 101.022 13.3758 101.095 13.2213C101.194 13.0133 101.216 12.7377 101.216 12.5097V7.86199C99.0803 7.82141 96.9449 7.78196 94.8092 7.74983ZM17.6444 7.56579C17.6444 8.45441 17.7038 9.35909 17.87 10.2328C17.9984 10.908 18.2076 11.5963 18.5737 12.1816C18.8873 12.6819 19.3017 13.0753 19.8256 13.3456C20.3938 13.6393 21.0584 13.7227 21.689 13.7016C22.3377 13.6801 22.9978 13.5511 23.5683 13.2287C24.0913 12.9319 24.4979 12.5221 24.8101 12.0052C25.1673 11.4136 25.3781 10.7302 25.5026 10.0532C25.6618 9.18887 25.7286 8.30278 25.7286 7.42459C25.7286 6.54838 25.6627 5.6654 25.5026 4.80327C25.3792 4.13702 25.1695 3.45836 24.8112 2.88089C24.5015 2.38205 24.098 1.97565 23.582 1.69973C23.0115 1.39479 22.3564 1.29643 21.7166 1.29784C21.0749 1.29868 20.4106 1.40437 19.8392 1.71326C19.3112 1.99932 18.8948 2.41164 18.5737 2.92204C18.2051 3.50853 17.9984 4.20917 17.87 4.88697C17.7038 5.76573 17.6444 6.67267 17.6444 7.56579ZM56.2824 7.16926C56.2824 8.01334 56.3393 8.87293 56.5041 9.70124C56.6339 10.3492 56.8403 10.9985 57.1882 11.563C57.487 12.0486 57.8788 12.437 58.3804 12.7039C58.9316 12.9973 59.5699 13.0951 60.1868 13.0951C60.809 13.0959 61.437 12.9998 61.993 12.7039C62.4951 12.437 62.8899 12.0531 63.1848 11.5636C63.5266 10.9968 63.7324 10.3503 63.8564 9.70208C64.0147 8.87321 64.0664 8.01222 64.0664 7.16926C64.0664 6.3277 64.0147 5.46699 63.8564 4.63953C63.733 3.99413 63.5274 3.34225 63.1854 2.77887C62.8921 2.29862 62.5006 1.90491 62.005 1.64027C61.4557 1.34632 60.8277 1.25049 60.2119 1.25049C59.59 1.25049 58.9492 1.34716 58.3924 1.64027C57.8869 1.90688 57.4935 2.29609 57.1874 2.78084C56.8353 3.33887 56.6331 3.9961 56.5041 4.64009C56.3396 5.46811 56.2824 6.32658 56.2824 7.16926ZM116.456 1.51034L115.541 1.5078C115.01 1.5064 114.439 1.54755 113.925 1.68762C113.529 1.79612 113.144 1.96352 112.835 2.24226C112.545 2.5038 112.352 2.84172 112.23 3.21148C112.077 3.67115 112.036 4.18408 112.036 4.66658C112.036 5.10511 112.087 5.54984 112.217 5.96949C112.332 6.33446 112.508 6.66561 112.767 6.9466C113.032 7.23492 113.353 7.44009 113.713 7.58749C114.137 7.76025 114.615 7.8293 115.071 7.83945C115.533 7.84931 115.994 7.86256 116.456 7.87299V1.51034ZM13.5419 15.0902L13.5886 15.0887C13.6037 15.0879 13.6148 15.0758 13.6148 15.0614V14.7567L13.6067 14.7373L13.5866 14.7288L13.5364 14.7308C13.0792 14.7441 12.621 14.7486 12.1647 14.7105C11.8251 14.6823 11.4691 14.6217 11.1566 14.48C10.9059 14.365 10.6844 14.2041 10.5046 13.9916C10.2683 13.7117 10.0709 13.3989 9.89805 13.0751C9.25103 11.8654 8.60234 10.6564 7.96845 9.43913C7.81822 9.15082 7.65011 8.86645 7.43788 8.61985C7.24883 8.40086 7.01929 8.22528 6.75624 8.10775C6.4675 7.9798 6.14525 7.92034 5.83166 7.89892C5.49851 7.87553 5.16788 7.87609 4.83419 7.8837C4.67446 7.88821 4.53679 8.00348 4.50523 8.16187L4.49295 8.2219L4.49909 8.24529L4.52059 8.25515L4.58119 8.25318C4.90707 8.24557 5.23016 8.24557 5.55548 8.2684C5.8579 8.28982 6.16954 8.34647 6.44767 8.47019C6.6976 8.58123 6.91597 8.74808 7.09469 8.95579C7.30245 9.19619 7.46609 9.47492 7.61353 9.75647C8.24658 10.974 8.89583 12.1831 9.54313 13.3932C9.71961 13.7224 9.92123 14.0412 10.1619 14.3267C10.3507 14.5504 10.5836 14.7207 10.848 14.8407C11.1706 14.9884 11.5372 15.051 11.888 15.08C12.4378 15.1257 12.9913 15.1127 13.5419 15.0902ZM11.9765 1.45341C11.3898 1.22033 10.487 1.39254 10.1396 1.96015C10.1323 1.97142 10.1337 1.98495 10.1432 1.99425L10.177 1.99791C10.4624 1.81726 10.7417 1.70847 11.0823 1.70762C11.2851 1.70678 11.4822 1.74173 11.6713 1.81613C11.8458 1.88602 11.9941 1.99058 12.122 2.12784C12.2437 2.25889 12.3448 2.4077 12.4169 2.572C12.4375 2.61794 12.4554 2.66585 12.4721 2.7132L12.4914 2.76985L12.5079 2.78676L12.5311 2.78479L12.5816 2.75491C12.6791 2.69573 12.7592 2.61879 12.8338 2.53255L12.8522 2.51254L12.8578 2.4852L12.8489 2.45927C12.8282 2.39191 12.8042 2.3254 12.7754 2.26114C12.6989 2.0864 12.5911 1.92858 12.4624 1.78964C12.3241 1.64196 12.1639 1.52781 11.9765 1.45341ZM9.37223 1.93703L9.39931 1.89871C9.40713 1.88631 9.4049 1.8694 9.39289 1.8601L9.31777 1.80345C9.30577 1.79415 9.28929 1.79697 9.28008 1.80824L9.25076 1.84516C9.10108 2.03511 8.96201 2.23437 8.83216 2.43869C8.54426 2.89329 8.27702 3.36114 8.03463 3.84194C7.7054 4.49467 7.37533 5.14767 7.05113 5.80321C6.89112 6.12563 6.72357 6.44523 6.52558 6.74622L6.50073 6.78427C6.49263 6.79639 6.49515 6.81217 6.50632 6.82119L6.57752 6.87671C6.58953 6.88629 6.60517 6.88488 6.61466 6.87333L6.64538 6.83979L6.71045 6.76116C6.98997 6.39957 7.20471 5.98471 7.40717 5.57549C7.73165 4.92079 8.06144 4.26835 8.39067 3.61591C8.63138 3.13764 8.89723 2.67234 9.18374 2.22056C9.24433 2.12474 9.30716 2.03004 9.37223 1.93703ZM5.59039 0.868045C4.98777 0.96725 4.79202 1.16256 4.45441 1.65633C4.44659 1.6676 4.44882 1.68367 4.45916 1.69297C4.47005 1.70255 4.48541 1.70199 4.49602 1.69212C4.99671 1.22428 5.34465 1.18595 6.00172 1.17834L6.05003 1.17778C6.06455 1.17778 6.07656 1.16538 6.07656 1.15016V0.844089L6.0679 0.823797L6.04751 0.816188L5.99529 0.820133C5.85958 0.829433 5.72415 0.846344 5.59039 0.868045ZM1.80966 14.7923C1.79849 14.8016 1.79626 14.8171 1.80352 14.8292C1.81162 14.8416 1.8267 14.845 1.83982 14.8382C2.60216 14.4273 2.77558 13.98 2.77558 13.1317V2.62358C2.77558 2.09571 2.67253 1.60334 2.24082 1.26261C1.88338 0.979649 1.38521 0.846626 0.937573 0.829153C0.772818 0.82267 0.609179 0.822671 0.445261 0.822671C0.430461 0.822671 0.417895 0.834506 0.417616 0.848879L0.415661 0.916518V1.1696C0.415661 1.18426 0.427668 1.19694 0.443027 1.19694L0.490778 1.19723C0.707753 1.19779 0.925287 1.21075 1.13947 1.2426C1.36761 1.27698 1.58989 1.3559 1.78453 1.48216C1.99257 1.61631 2.13945 1.80598 2.24696 2.0275C2.3757 2.29355 2.40893 2.60188 2.40893 2.89442V13.4028C2.40893 14.102 2.37123 14.345 1.80966 14.7923ZM0.442189 15.3173C0.42711 15.3176 0.415661 15.3297 0.415661 15.3444V15.6468L0.424317 15.6668L0.444144 15.6747L0.494967 15.6724C2.33185 15.585 4.16818 15.5016 6.00451 15.4134L6.05058 15.412C6.06566 15.4112 6.07683 15.399 6.07683 15.3841V15.082L6.06874 15.0617L6.04835 15.0544L5.99781 15.0566C4.51333 15.1217 3.02969 15.1967 1.54549 15.266L0.442189 15.3173ZM17.0417 2.66021L17.0688 2.62188C17.0769 2.60977 17.0744 2.59258 17.0624 2.58356L16.9879 2.52691C16.9758 2.51789 16.9588 2.51986 16.9496 2.5317L16.9203 2.56806C16.3978 3.22416 16.0404 3.98511 15.8105 4.7903C15.5316 5.76742 15.4249 6.78934 15.4249 7.80394C15.4249 8.81656 15.5313 9.83651 15.8105 10.8111C16.0457 11.6309 16.414 12.4026 16.9599 13.059C17.4785 13.6827 18.1168 14.1336 18.863 14.4383C19.7167 14.7863 20.6633 14.883 21.5762 14.8506C22.4859 14.8185 23.3941 14.6502 24.2231 14.2607C24.6317 14.0688 25.0173 13.8287 25.3686 13.5437L25.4049 13.5144C25.4164 13.5054 25.4186 13.4882 25.4097 13.4758L25.3535 13.4003C25.3446 13.389 25.3278 13.3862 25.3158 13.3944L25.2779 13.4211C25.017 13.6052 24.7397 13.7647 24.451 13.9003C23.6336 14.2838 22.7387 14.4487 21.842 14.4803C20.9425 14.5132 20.0082 14.4177 19.1688 14.0753C18.4371 13.7765 17.8125 13.3355 17.304 12.7245C16.7664 12.0782 16.4042 11.3195 16.1736 10.5121C15.8966 9.54622 15.7918 8.53558 15.7918 7.53282C15.7918 6.52752 15.8968 5.5149 16.1736 4.54652C16.3646 3.87689 16.6438 3.23177 17.0417 2.66021ZM19.1649 1.67606L19.1294 1.70537C19.1188 1.71523 19.1163 1.73158 19.1252 1.74313L19.1805 1.8181C19.1892 1.82938 19.2051 1.83248 19.2176 1.8243L19.2559 1.79837C19.3556 1.73045 19.4586 1.6676 19.5653 1.61067C20.1897 1.27275 20.9068 1.15298 21.6091 1.15213C22.3078 1.15044 23.0174 1.26261 23.6412 1.59574C24.2117 1.90124 24.6621 2.35246 25.0039 2.90259C25.3882 3.52065 25.6116 4.23594 25.7439 4.94898C25.9084 5.83421 25.9754 6.73607 25.9754 7.63596C25.9754 8.53811 25.9076 9.44307 25.7439 10.3297C25.6107 11.0523 25.3865 11.7724 25.0059 12.4026C24.9696 12.4629 24.9319 12.5221 24.8928 12.5804L24.8662 12.6185C24.8581 12.6312 24.8607 12.6478 24.8724 12.6571L24.9461 12.7126C24.9581 12.7214 24.9743 12.7191 24.9841 12.7078L25.0134 12.6723C25.1405 12.5182 25.2547 12.3538 25.358 12.1831C25.745 11.5422 25.9737 10.8111 26.1092 10.0764C26.2736 9.18351 26.3426 8.27291 26.3426 7.36456C26.3426 6.45932 26.2742 5.55097 26.1086 4.65954C25.9743 3.93438 25.7459 3.20782 25.3558 2.5782C25.0053 2.01369 24.5418 1.55093 23.9562 1.23725C23.3181 0.895384 22.5935 0.780394 21.878 0.782367C21.1592 0.783494 20.4265 0.906091 19.7879 1.25246C19.567 1.37168 19.3587 1.51429 19.1657 1.67606H19.1649ZM35.2553 0.813371C35.2553 0.798152 35.2433 0.785748 35.228 0.785748C34.4159 0.785748 34.1663 0.873119 33.6871 1.55403C33.6787 1.56558 33.6812 1.5808 33.6913 1.5901C33.7019 1.59996 33.7173 1.59968 33.7279 1.59038C34.259 1.1262 34.5039 1.12028 35.1808 1.10986L35.2288 1.10901C35.2433 1.10901 35.2553 1.09661 35.2553 1.08167V0.813371ZM29.8486 0.787444L29.829 0.795612L29.8206 0.815342V1.09154C29.8206 1.10648 29.8332 1.11859 29.8483 1.11859L29.8963 1.11972C30.0999 1.12113 30.304 1.13381 30.5062 1.16171C30.7315 1.19356 30.9513 1.26261 31.1432 1.38577C31.3361 1.50893 31.4872 1.68846 31.5908 1.89279C31.7151 2.14024 31.7488 2.42517 31.7488 2.69996V12.1346C31.7488 12.833 31.746 13.1373 31.1736 13.5984C31.1624 13.6083 31.1602 13.6241 31.1683 13.6362C31.1764 13.6475 31.1917 13.6517 31.2038 13.6452C31.9996 13.2072 32.1152 12.7357 32.1152 11.8637V2.42883C32.1152 2.1377 32.0786 1.83867 31.946 1.57657C31.8349 1.35674 31.6721 1.16397 31.4646 1.03066C31.2602 0.900174 31.0289 0.824644 30.7938 0.79336L29.8486 0.787444ZM35.1816 14.2576L35.2288 14.2565C35.2436 14.2562 35.2553 14.2438 35.2553 14.2292V13.9611L35.2475 13.9411L35.228 13.9332L35.1788 13.9338C33.4168 13.9535 31.6547 13.9859 29.8941 14.0485L29.8469 14.0505C29.8326 14.0508 29.8206 14.0629 29.8206 14.0781V14.3523L29.8293 14.3723L29.8486 14.3802L29.898 14.3791C31.6592 14.3399 33.4204 14.2993 35.1816 14.2576ZM33.4933 7.37358L33.4813 7.43277L33.4869 7.45644L33.5084 7.46574H33.5684C35.7692 7.44545 37.9696 7.41783 40.1704 7.39923C40.2391 7.39867 40.2969 7.42262 40.346 7.47137C40.3954 7.52098 40.4195 7.57876 40.4195 7.64837V12.0974C40.4195 12.6968 40.3748 12.9592 39.9626 13.411C39.9528 13.422 39.9528 13.4369 39.9621 13.4485C39.9713 13.4589 39.9861 13.4612 39.9981 13.4533C40.6381 13.0181 40.7858 12.5852 40.7858 11.8263V7.37724C40.7858 7.28226 40.7506 7.19772 40.6836 7.13064C40.6166 7.06328 40.5331 7.0289 40.4382 7.02975C38.2344 7.04835 36.0305 7.07005 33.827 7.0957C33.6648 7.09711 33.5257 7.21378 33.4933 7.37358ZM43.8394 14.1074L43.8866 14.1071C43.9011 14.1068 43.9131 14.0944 43.9131 14.0792V13.8197L43.9053 13.7999L43.886 13.7917L43.8372 13.7923C43.6347 13.7949 43.4317 13.7856 43.2312 13.7582L43.2058 13.754C41.8567 13.7748 40.5119 13.7977 39.1662 13.8191C38.9626 13.849 38.7596 13.8693 38.5532 13.8735L38.5058 13.8749C38.491 13.8755 38.4787 13.8881 38.4787 13.9028V14.168L38.4871 14.1877L38.5069 14.1953L38.5563 14.1948C40.3167 14.1686 42.0779 14.135 43.8394 14.1074ZM42.5819 1.21188L42.3396 1.45792C42.3304 1.46779 42.3295 1.48244 42.3379 1.49371C42.346 1.50555 42.3608 1.50837 42.3728 1.50188L42.673 1.3325C43.0131 1.14086 43.456 1.10506 43.8397 1.09915L43.8869 1.0983C43.9011 1.0983 43.9131 1.08534 43.9131 1.07096V0.810268C43.9131 0.795331 43.9011 0.782931 43.886 0.782931C43.3605 0.783213 42.9709 0.817033 42.5819 1.21188ZM40.4195 2.74843V6.4565L40.4295 6.47848L40.4521 6.48412L40.5099 6.472C40.6699 6.43875 40.7858 6.29586 40.7858 6.13127V2.4773C40.7858 2.1811 40.7459 1.87193 40.6219 1.60024C40.5155 1.36689 40.3524 1.17468 40.1388 1.03376C39.9386 0.901865 39.7096 0.822672 39.4739 0.786879L39.465 0.785748L38.5061 0.784341C38.4915 0.784341 38.4787 0.797021 38.4787 0.811958V1.07857C38.4787 1.09407 38.4913 1.10619 38.5061 1.10619L38.5541 1.10647C38.7674 1.10732 38.9802 1.1248 39.1908 1.15664C39.4122 1.18962 39.6286 1.26346 39.8166 1.38774C40.0146 1.51823 40.1662 1.6955 40.2648 1.91251C40.3823 2.17095 40.4195 2.4666 40.4195 2.74843ZM52.245 1.09407L52.2925 1.09379C52.3076 1.09323 52.3201 1.08083 52.3201 1.06617V0.810268C52.3201 0.795613 52.307 0.782647 52.2925 0.782647C51.3891 0.782647 51.1219 0.821826 50.6603 1.64675C50.653 1.65943 50.6564 1.67465 50.6684 1.68282C50.6804 1.69156 50.6958 1.6893 50.705 1.67859C51.2397 1.04757 51.476 1.10281 52.245 1.09407ZM48.3403 1.09182C47.8396 0.789975 47.2392 0.783212 46.6735 0.782367C46.6584 0.782367 46.6458 0.795331 46.6458 0.810268V1.06927C46.6458 1.08421 46.6584 1.09661 46.6732 1.09661L46.7212 1.09718C46.9413 1.09858 47.1613 1.10986 47.38 1.1403C47.6036 1.17102 47.8268 1.23809 48.0211 1.35561C48.218 1.47455 48.3755 1.65097 48.4852 1.85361C48.6162 2.09796 48.6522 2.38092 48.6522 2.65458V12.0089C48.6522 12.6145 48.6218 12.8465 48.206 13.3036C48.1968 13.3146 48.1962 13.3304 48.2057 13.3411C48.2149 13.3521 48.2303 13.3538 48.242 13.3456C48.8871 12.9017 49.0186 12.5072 49.0186 11.7383V2.56806C49.0186 1.94323 48.9041 1.43255 48.3403 1.09182ZM52.2447 13.7202C50.4031 13.6993 48.5617 13.73 46.7207 13.7653L46.6729 13.767C46.6578 13.767 46.6458 13.7794 46.6458 13.7943V14.0536L46.6545 14.073L46.6735 14.0809L46.7226 14.0806C48.5631 14.0665 50.4042 14.046 52.2445 14.031H52.2925C52.3076 14.031 52.3201 14.0189 52.3201 14.0034V13.7492C52.3201 13.734 52.3076 13.7213 52.2925 13.7207L52.2447 13.7202ZM50.7728 7.24253L50.7608 7.30143L50.767 7.32426L50.7882 7.33441H50.8477C51.9046 7.33046 52.6681 7.32708 53.7253 7.32567C53.8585 7.32567 53.9683 7.43333 53.9716 7.56861C53.9939 8.50457 54.1143 9.44392 54.3961 10.3379C54.6384 11.1042 55.0093 11.8141 55.5418 12.4173C56.0592 13.004 56.6987 13.442 57.4186 13.7379C58.2566 14.0823 59.1801 14.1973 60.0796 14.1973C60.967 14.1973 61.8642 14.0722 62.6866 13.7202C63.1423 13.5249 63.5707 13.2692 63.9561 12.9553L63.9921 12.9262C64.0036 12.9167 64.0055 12.8995 63.9971 12.8876L63.9416 12.8124C63.9323 12.8 63.9156 12.7969 63.9036 12.8059L63.8656 12.833C63.5685 13.0409 63.2501 13.2157 62.917 13.3586C62.1075 13.7052 61.2228 13.827 60.3482 13.827C59.4622 13.827 58.5499 13.7148 57.7247 13.3755C57.0187 13.0852 56.3913 12.656 55.8833 12.0799C55.3603 11.4881 54.9959 10.7902 54.7582 10.0366C54.4784 9.15194 54.3606 8.22134 54.3385 7.29495C54.3335 7.10641 54.1802 6.95534 53.9934 6.95534C52.9339 6.95732 52.1682 6.95957 51.1088 6.96436C50.946 6.96493 50.8049 7.08132 50.7728 7.24253ZM55.4957 2.63119L55.5223 2.59258C55.5309 2.58046 55.5278 2.56327 55.5161 2.55509L55.4418 2.49816C55.4298 2.48971 55.4133 2.49168 55.4041 2.50267L55.3748 2.53931C54.9967 3.00659 54.7122 3.54038 54.5044 4.10433C54.2257 4.86274 54.0685 5.5645 54.0154 6.37195L54.0113 6.43649L54.0205 6.45932L54.0445 6.46524L54.1065 6.45284C54.2584 6.42099 54.3701 6.28994 54.3801 6.13465C54.4329 5.32804 54.5862 4.62572 54.8652 3.86815C55.0255 3.43244 55.233 3.01363 55.4957 2.63119ZM57.7216 1.59827L57.6867 1.62758C57.675 1.63716 57.6736 1.65379 57.6822 1.66535L57.737 1.73947C57.7456 1.75074 57.7615 1.75384 57.7744 1.74511L57.8121 1.71974C57.9118 1.65239 58.0151 1.59123 58.1209 1.53514C58.7294 1.21442 59.4239 1.10478 60.1044 1.10478C60.7791 1.10478 61.4613 1.21442 62.0633 1.53571C62.6146 1.8305 63.0538 2.26932 63.3789 2.80423C63.7452 3.40566 63.9642 4.09249 64.0963 4.7827C64.2599 5.63778 64.3124 6.51174 64.3124 7.38119C64.3124 8.25177 64.2599 9.12573 64.0963 9.9811C63.9642 10.6727 63.7436 11.357 63.3797 11.961L63.2873 12.1061L63.2621 12.1444C63.254 12.1571 63.2568 12.1732 63.2686 12.1825L63.342 12.2377C63.354 12.2462 63.3699 12.2445 63.3792 12.2332L63.4087 12.1977C63.5277 12.0543 63.6355 11.9012 63.7321 11.7411C64.1027 11.1273 64.3272 10.4323 64.461 9.72886C64.6257 8.86701 64.6788 7.98629 64.6788 7.11035C64.6788 6.23442 64.6257 5.35453 64.461 4.49325C64.3272 3.79149 64.1035 3.09283 63.7313 2.48041C63.3967 1.9314 62.9446 1.4799 62.3775 1.17721C61.7615 0.848316 61.0634 0.734735 60.3731 0.734735C59.6766 0.734735 58.967 0.848314 58.3443 1.17693C58.122 1.29389 57.9132 1.43481 57.7216 1.59827ZM88.2877 0.864097V0.815342C88.2877 0.799841 88.2757 0.787444 88.2603 0.787444H88.212C87.8066 0.787444 87.5094 0.819006 87.1629 1.05095C87.0906 1.09971 87.0238 1.15664 86.9638 1.22034L86.7471 1.44637C86.7379 1.45651 86.7368 1.47117 86.7451 1.48216C86.7538 1.49343 86.768 1.49681 86.78 1.49005L87.0543 1.34012C87.2213 1.2488 87.4022 1.19722 87.5893 1.17017C87.7957 1.14086 88.0046 1.12282 88.2132 1.11972L88.2612 1.11859C88.276 1.11859 88.288 1.10619 88.288 1.09126V1.04306L88.2877 0.864097ZM85.1596 2.5534C85.1596 2.23352 85.099 1.91195 84.9476 1.62815C84.8935 1.52612 84.8284 1.4303 84.7527 1.3435C84.5036 1.05659 84.1638 0.888335 83.7927 0.841269L82.8703 0.782647L82.8497 0.79026L82.8418 0.810268V1.08196C82.8418 1.09633 82.8538 1.10873 82.8686 1.10929L82.9164 1.10957C83.13 1.11211 83.3442 1.12959 83.555 1.16284C83.7767 1.19807 83.9929 1.27163 84.1803 1.39789C84.3774 1.53007 84.5221 1.70819 84.6251 1.92181C84.7516 2.18448 84.7932 2.48153 84.7932 2.77069V13.2002L84.8035 13.2213L84.8256 13.227L84.8834 13.216C84.9496 13.2033 85.0082 13.1706 85.056 13.123C85.1241 13.0556 85.1596 12.9711 85.1596 12.8752V2.5534ZM79.7179 1.18201L79.5124 1.39902C79.5026 1.40888 79.5015 1.42382 79.5104 1.43481C79.5185 1.44608 79.5328 1.4489 79.5448 1.44298L79.8084 1.30263C79.9312 1.23724 80.0642 1.19441 80.2002 1.1682C80.3214 1.14368 80.4437 1.12705 80.5662 1.11662L80.6104 1.11324C80.6249 1.11211 80.6358 1.10028 80.6358 1.08562V0.811958C80.6358 0.797021 80.6235 0.784341 80.6084 0.784341H80.5601C80.3345 0.784341 79.9885 0.944422 79.8167 1.08928C79.7824 1.11859 79.7486 1.14931 79.7179 1.18201ZM77.5364 2.66896V13.0841L77.5465 13.1052L77.5688 13.1114L77.6269 13.1007C77.6934 13.0872 77.7523 13.055 77.8003 13.0068C77.8682 12.9395 77.9028 12.8549 77.9028 12.7588V2.39727C77.9028 1.32715 77.0829 0.784341 76.0913 0.784341H76.043C76.0279 0.784341 76.0159 0.797025 76.0159 0.811681V1.08083C76.0159 1.0952 76.0265 1.10761 76.0408 1.10817L76.0855 1.11211C76.2053 1.12226 76.3248 1.13832 76.4423 1.16368C76.6442 1.20624 76.8324 1.2891 77.0014 1.40973C77.1837 1.53965 77.322 1.70875 77.4094 1.91702C77.5074 2.15207 77.5364 2.41503 77.5364 2.66896ZM72.4575 1.20624L72.2277 1.44185C72.2176 1.452 72.2168 1.46694 72.2249 1.47793C72.233 1.48921 72.248 1.4923 72.26 1.48554L72.548 1.32715C72.718 1.23274 72.9062 1.17919 73.0983 1.15044C73.305 1.1186 73.5139 1.10281 73.7239 1.09887L73.771 1.09858C73.7856 1.09774 73.7979 1.08562 73.7979 1.07068V0.810268C73.7979 0.795613 73.7856 0.782647 73.7702 0.782647H73.7219C73.3095 0.782647 73.0322 0.790262 72.6756 1.02616C72.5965 1.07745 72.5239 1.13804 72.4575 1.20624ZM69.7518 13.1286C69.7412 13.1373 69.7387 13.1531 69.7463 13.1652C69.7541 13.1771 69.7689 13.1802 69.782 13.1745C70.4756 12.8837 70.658 12.623 70.658 11.8122V2.45899C70.658 1.03207 69.6575 0.739245 68.4366 0.782647L68.3902 0.784622C68.3754 0.784903 68.3637 0.797023 68.3637 0.812242V1.06758C68.3637 1.08195 68.3757 1.09464 68.3905 1.0952L68.4385 1.09605C68.6471 1.09915 68.8563 1.11634 69.0635 1.14734C69.2855 1.18031 69.5011 1.25359 69.689 1.37788C69.8876 1.50893 70.0411 1.67718 70.1467 1.8925C70.2701 2.14503 70.2914 2.45223 70.2914 2.72983V12.083C70.2914 12.7016 70.2319 12.7287 69.7518 13.1286ZM68.4397 13.6832H68.3908C68.3757 13.6832 68.3637 13.6959 68.3637 13.7109V14.0183C68.3637 14.0333 68.3757 14.046 68.3905 14.0462L68.4388 14.0465C75.0296 14.1223 81.6212 14.2269 88.2109 14.3749L88.2601 14.376L88.2796 14.3678L88.2877 14.3481V14.0415C88.2877 14.0265 88.2763 14.0144 88.2612 14.0144L88.2148 14.0124C87.9456 14.0043 87.6767 13.9868 87.407 13.9811C81.5218 13.8504 75.635 13.7543 69.7485 13.6886C69.312 13.683 68.8756 13.6832 68.4397 13.6832ZM104.493 14.522C103.011 14.4648 101.53 14.4109 100.05 14.3577C99.8991 14.3692 99.7508 14.374 99.6 14.3712L99.5506 14.3701L99.531 14.3782L99.5226 14.3977V14.6922C99.5226 14.7074 99.5344 14.7195 99.5492 14.7201L99.5958 14.7215C101.353 14.7841 103.11 14.8517 104.866 14.916L104.917 14.9182L104.937 14.9106L104.945 14.8906V14.5843C104.945 14.569 104.934 14.5569 104.919 14.5558L104.873 14.5544C104.745 14.5479 104.616 14.538 104.493 14.522ZM103.636 1.26346L103.402 1.50217C103.392 1.51231 103.391 1.52753 103.399 1.53824C103.408 1.5498 103.423 1.55262 103.435 1.54642L103.726 1.38464C103.891 1.29305 104.071 1.23809 104.256 1.20934C104.46 1.17891 104.664 1.16171 104.871 1.15889L104.918 1.15777C104.933 1.15749 104.945 1.14537 104.945 1.13043V0.82464L104.936 0.804632L104.916 0.797025L104.864 0.800403C104.745 0.80914 104.628 0.822949 104.511 0.840986C104.266 0.878469 104.033 0.95964 103.828 1.10056C103.76 1.14875 103.695 1.20343 103.636 1.26346ZM100.229 0.79336L99.5503 0.792512L99.531 0.800125L99.5226 0.819849V1.11662C99.5226 1.13099 99.5349 1.14396 99.5495 1.14396L99.5975 1.14509C99.8117 1.14819 100.026 1.16538 100.237 1.19948C100.465 1.2364 100.674 1.31193 100.864 1.44383C101.06 1.57939 101.207 1.76794 101.308 1.98326C101.432 2.24902 101.463 2.56383 101.463 2.85411V6.73157L101.473 6.75271L101.496 6.7589L101.552 6.74735C101.62 6.73495 101.678 6.70198 101.726 6.65406C101.794 6.58727 101.83 6.50216 101.83 6.40634V2.58271C101.83 2.27693 101.795 1.94944 101.664 1.66986C101.557 1.43875 101.398 1.2364 101.189 1.09182C100.986 0.951465 100.763 0.870297 100.522 0.831405C100.423 0.815058 100.324 0.802097 100.229 0.79336ZM94.9695 1.2426L94.7366 1.48103C94.7271 1.49118 94.7266 1.50668 94.7344 1.51767C94.7433 1.52866 94.7579 1.53204 94.7699 1.52556L95.0597 1.3635C95.2231 1.27275 95.4024 1.21611 95.5864 1.18736C95.7936 1.15608 96.0027 1.13776 96.2122 1.13607H96.2599C96.275 1.13579 96.287 1.12367 96.287 1.10817V0.818723C96.287 0.802941 96.275 0.790538 96.2599 0.790538H96.2116C95.8444 0.790538 95.4825 0.863251 95.1739 1.07181C95.1002 1.12141 95.031 1.17919 94.9695 1.2426ZM93.1597 2.64021C93.1597 1.13466 92.2136 0.789977 90.892 0.789131C90.8774 0.789131 90.8646 0.801812 90.8646 0.816749V1.09605C90.8646 1.11099 90.8766 1.12367 90.8917 1.12367L90.9392 1.12423C91.1441 1.12761 91.3485 1.14086 91.551 1.17045C91.7721 1.20286 91.9891 1.27529 92.1765 1.39761C92.3731 1.52556 92.5175 1.70086 92.6225 1.91111C92.7487 2.16222 92.7928 2.44743 92.7928 2.72701V12.2634C92.7928 12.8783 92.6504 13.2371 92.2379 13.6872C92.2282 13.6976 92.2281 13.7128 92.2374 13.7238C92.2463 13.7343 92.2614 13.7371 92.2734 13.7286C92.909 13.3047 93.1594 12.8758 93.1594 12.101L93.1597 2.64021ZM96.2147 14.2596C94.4574 14.19 92.6998 14.1263 90.9411 14.1128L90.892 14.1122L90.873 14.1206L90.8646 14.1407V14.418C90.8646 14.4326 90.8763 14.4453 90.8917 14.4456L90.9386 14.4467C92.6951 14.4952 94.4521 14.5451 96.2091 14.6031L96.2585 14.6043L96.2786 14.5967L96.287 14.5775V14.2886C96.287 14.2737 96.2758 14.2616 96.2608 14.261L96.2147 14.2596ZM94.7942 7.51534L94.7827 7.57227L94.7886 7.59538L94.8092 7.60525L94.8673 7.6061C96.9857 7.63315 99.1029 7.67824 101.221 7.71826C101.355 7.72052 101.463 7.83184 101.463 7.96684V12.7211C101.463 13.3958 101.31 13.4998 100.885 13.9687C100.875 13.9797 100.875 13.9944 100.883 14.0051C100.892 14.0167 100.907 14.0189 100.919 14.0113C101.639 13.5821 101.83 13.3025 101.83 12.4497V7.69628C101.83 7.50661 101.679 7.35216 101.491 7.34821C99.3733 7.30791 97.2554 7.26761 95.1374 7.23605C95.0427 7.23436 94.9575 7.26902 94.8905 7.3361C94.8408 7.3857 94.807 7.44573 94.7942 7.51534ZM114.774 15.0437L114.725 15.0425L114.705 15.051L114.696 15.0704V15.3909C114.696 15.4052 114.708 15.4174 114.722 15.4182L114.768 15.4207C116.608 15.5168 118.451 15.5879 120.291 15.6814L120.342 15.6837L120.362 15.6764L120.37 15.6561V15.3291C120.37 15.3142 120.359 15.3021 120.344 15.3012L120.298 15.2993C118.457 15.2102 116.617 15.078 114.774 15.0437ZM118.98 1.31926L118.748 1.55572C118.738 1.56586 118.737 1.5808 118.746 1.59179C118.754 1.60334 118.769 1.60616 118.781 1.59968L119.07 1.43988C119.245 1.3435 119.438 1.28713 119.635 1.25838C119.853 1.22654 120.074 1.21329 120.295 1.21329H120.342C120.358 1.21329 120.37 1.20061 120.37 1.18511V0.875652L120.362 0.855644L120.342 0.847751L120.291 0.850573C120.157 0.8579 120.022 0.870865 119.89 0.890029C119.641 0.926386 119.398 1.00445 119.188 1.14565C119.113 1.19638 119.043 1.25444 118.98 1.31926ZM110.579 2.35837L110.604 2.31976C110.612 2.30764 110.609 2.29158 110.597 2.28284L110.525 2.22845C110.514 2.21971 110.497 2.22084 110.488 2.2324L110.458 2.2665C109.9 2.91838 109.712 3.74076 109.712 4.58457C109.712 5.10793 109.774 5.64003 109.948 6.13493C110.087 6.53203 110.285 6.91363 110.553 7.23774C110.796 7.53282 111.081 7.78844 111.404 7.99305C111.716 8.19033 112.047 8.3583 112.393 8.48879C112.467 8.51641 112.517 8.56968 112.542 8.64464C112.551 8.67508 112.556 8.70665 112.554 8.73878L112.564 8.7616L112.588 8.76724C112.963 8.67649 113.055 8.26079 112.696 8.12523C112.357 7.99672 112.032 7.83212 111.724 7.63766C111.41 7.43897 111.133 7.19039 110.896 6.90321C110.636 6.58812 110.444 6.21666 110.309 5.83112C110.139 5.34749 110.08 4.82497 110.08 4.31373C110.08 3.62831 110.208 2.94261 110.579 2.35837ZM107.561 14.7348L107.541 14.7429L107.532 14.7621V15.0856C107.532 15.1003 107.544 15.1127 107.559 15.1133L107.606 15.115C108.115 15.135 108.626 15.1465 109.135 15.104C109.463 15.0772 109.811 15.0211 110.114 14.8861C110.314 14.7962 110.498 14.6761 110.66 14.5265L110.692 14.4972C110.703 14.487 110.704 14.4729 110.696 14.4617C110.689 14.4495 110.676 14.4456 110.663 14.4507C110.281 14.6079 109.806 14.7009 109.395 14.7345C108.887 14.7765 108.376 14.7666 107.867 14.7446L107.833 14.7432L107.561 14.7348ZM114.603 8.90816L114.603 8.93606L114.627 8.95043L114.74 8.94959L116.463 9.00849C116.596 9.01272 116.702 9.12235 116.702 9.25707V13.4496C116.702 14.0916 116.658 14.1984 116.165 14.6046C116.154 14.6139 116.151 14.6288 116.159 14.6409C116.167 14.6533 116.182 14.6573 116.195 14.6511C116.93 14.2796 117.069 14.0003 117.069 13.1785V8.98594C117.069 8.79796 116.92 8.64408 116.734 8.63873C116.159 8.62154 115.583 8.59645 115.007 8.57982C114.883 8.57644 114.77 8.6376 114.704 8.74441L114.603 8.90816ZM112.71 1.82937L112.677 1.85925C112.666 1.86855 112.664 1.8849 112.673 1.89617L112.727 1.96832C112.735 1.98044 112.751 1.98353 112.763 1.97564L112.801 1.95141C113.085 1.76765 113.401 1.64309 113.725 1.55459C114.278 1.40353 114.864 1.36012 115.435 1.36238L116.457 1.36492C116.592 1.36576 116.702 1.47737 116.702 1.61406V7.97304L116.712 7.99361L116.735 8.0001L116.792 7.98882C116.859 7.97585 116.917 7.94345 116.966 7.89582C117.034 7.82903 117.069 7.74362 117.069 7.64752V1.55966C117.069 1.25021 116.895 0.995154 116.569 0.995154C116.281 0.995154 115.992 0.993178 115.703 0.992051C115.124 0.99036 114.529 1.03433 113.968 1.18764C113.51 1.31334 113.069 1.50865 112.71 1.82937Z" fill="#C7A17A"/>
</g>
<defs>
<clipPath id="clip0_2162_3492">
<rect width="120.664" height="24" fill="white" transform="translate(0.167969)"/>
</clipPath>
</defs>
</svg>
