<svg width="25" height="24" viewBox="0 0 25 24" fill="none" xmlns="http://www.w3.org/2000/svg">
<circle cx="12.0788" cy="7.27803" r="4.77803" stroke="#C7A17A" stroke-width="1.5" stroke-linecap="round" stroke-linejoin="round"/>
<path fill-rule="evenodd" clip-rule="evenodd" d="M4.50002 18.7016C4.49873 18.3657 4.57385 18.0339 4.7197 17.7313C5.17736 16.816 6.46798 16.3308 7.53892 16.1112C8.31128 15.9463 9.09431 15.8362 9.88217 15.7816C11.3408 15.6535 12.8079 15.6535 14.2666 15.7816C15.0544 15.8369 15.8374 15.947 16.6099 16.1112C17.6808 16.3308 18.9714 16.7702 19.4291 17.7313C19.7224 18.3481 19.7224 19.0642 19.4291 19.681C18.9714 20.6421 17.6808 21.0814 16.6099 21.2919C15.8384 21.4636 15.0551 21.5768 14.2666 21.6306C13.0794 21.7313 11.8866 21.7496 10.6968 21.6855C10.4222 21.6855 10.1568 21.6855 9.88217 21.6306C9.09663 21.5775 8.31632 21.4642 7.54807 21.2919C6.46798 21.0814 5.18652 20.6421 4.7197 19.681C4.5746 19.3749 4.49955 19.0403 4.50002 18.7016Z" stroke="#010103" stroke-width="1.5" stroke-linecap="round" stroke-linejoin="round"/>
</svg>
