<svg width="16" height="16" viewBox="0 0 16 16" fill="none" xmlns="http://www.w3.org/2000/svg">
<path d="M12.378 8.50869C12.3859 7.89542 12.5492 7.2941 12.8528 6.7607C13.1564 6.2273 13.5904 5.77914 14.1143 5.45793C13.7815 4.98389 13.3424 4.59378 12.8319 4.31857C12.3214 4.04337 11.7536 3.89065 11.1735 3.87255C9.93624 3.74304 8.73674 4.61086 8.10622 4.61086C7.46351 4.61086 6.49275 3.88541 5.44739 3.90686C4.77123 3.92864 4.11226 4.12471 3.53468 4.47597C2.9571 4.82723 2.48062 5.32169 2.15165 5.91118C0.726671 8.37146 1.78958 11.9873 3.15461 13.976C3.83757 14.9498 4.63575 16.0376 5.68017 15.999C6.70218 15.9567 7.08389 15.3491 8.31754 15.3491C9.53976 15.3491 9.89787 15.999 10.9635 15.9745C12.0602 15.9567 12.7511 14.9963 13.4101 14.0133C13.9008 13.3194 14.2784 12.5525 14.5289 11.741C13.8918 11.4723 13.3481 11.0225 12.9656 10.4477C12.5831 9.8729 12.3787 9.19854 12.378 8.50869Z" fill="#503D3B"/>
<path d="M10.3671 2.56477C10.9651 1.84896 11.2596 0.92891 11.1883 0C10.2748 0.0956801 9.43093 0.531068 8.8249 1.21941C8.52859 1.55569 8.30165 1.9469 8.15705 2.37069C8.01246 2.79447 7.95303 3.24253 7.98219 3.68923C8.43912 3.69392 8.89116 3.59516 9.30426 3.40038C9.71737 3.20561 10.0808 2.9199 10.3671 2.56477Z" fill="#503D3B"/>
</svg>
