<svg width="16" height="16" viewBox="0 0 16 16" fill="none" xmlns="http://www.w3.org/2000/svg">
<g clip-path="url(#clip0_882_2638)">
<path d="M0.879147 0.684957C0.702313 0.86544 0.599976 1.14644 0.599976 1.51034V14.4905C0.599976 14.8544 0.702313 15.1354 0.879147 15.3158L0.922791 15.3555L8.38292 8.08478V7.9131L0.922791 0.642405L0.879147 0.684957Z" fill="#503D3B"/>
<path d="M11.7698 10.5098L9.28589 8.08498V7.9133L11.7728 5.48851L11.8285 5.52006L14.7738 7.15395C15.6143 7.61763 15.6143 8.38065 14.7738 8.84726L11.8285 10.4782L11.7698 10.5098Z" fill="#503D3B"/>
<path d="M11.3771 10.9295L8.83446 8.45047L1.33069 15.7674C1.60986 16.0535 2.06511 16.088 2.58282 15.8019L11.3771 10.9295Z" fill="#503D3B"/>
<path d="M11.3771 5.0678L2.58282 0.195479C2.06511 -0.0877185 1.60986 -0.0532368 1.33069 0.232895L8.83446 7.54688L11.3771 5.0678Z" fill="#503D3B"/>
</g>
<defs>
<clipPath id="clip0_882_2638">
<rect width="16" height="16" fill="white"/>
</clipPath>
</defs>
</svg>
