<?xml version="1.0" encoding="utf-8"?><svg viewBox="0 0 240 167" xmlns="http://www.w3.org/2000/svg" xmlns:xlink="http://www.w3.org/1999/xlink"><style>:root>svg{display:none}:root>svg:target{display:block}</style><svg fill="none" viewBox="0 0 240 167" id="logo" xmlns="http://www.w3.org/2000/svg"><path fill="#fff" d="M0 0h240v166.667H0z"/><g clip-path="url(#aclip0_2162_3174)" fill="#C7A17A"><path d="M57.098 112.422c-.493 0-.925-.071-1.293-.212a2.452 2.452 0 01-.918-.602 2.463 2.463 0 01-.545-.937 3.85 3.85 0 01-.18-1.211c0-.437.064-.835.192-1.197a2.53 2.53 0 01.565-.933c.25-.259.56-.461.931-.606.372-.144.803-.216 1.291-.216.333 0 .625.024.872.072a2.5 2.5 0 01.624.199c.168.085.292.183.376.297a.619.619 0 01.126.368.556.556 0 01-.067.266.635.635 0 01-.2.219 1.029 1.029 0 01-.323.146 1.638 1.638 0 01-.444.054c0-.162-.019-.312-.059-.449a.926.926 0 00-.18-.35.83.83 0 00-.31-.226 1.122 1.122 0 00-.441-.08c-.291 0-.538.053-.744.161a1.29 1.29 0 00-.499.473c-.13.206-.222.462-.28.764a5.473 5.473 0 00-.088 1.038c0 .388.03.732.092 1.033.06.299.16.551.296.757.136.204.313.36.53.466.219.106.483.16.799.16.098 0 .197-.004.296-.012.098-.008.194-.023.289-.043v-1.186c0-.216-.048-.365-.145-.45-.096-.083-.237-.126-.425-.126h-.105v-.424h2.511v.424h-.106a.7.7 0 00-.21.029.32.32 0 00-.149.101.47.47 0 00-.086.187 1.359 1.359 0 00-.027.29v1.323a4.637 4.637 0 01-.943.325c-.318.072-.66.108-1.023.108zm122.298-.08l-3.113-4.439v3.487c0 .115.012.206.033.275a.402.402 0 00.088.157c.036.038.08.062.13.074a.752.752 0 00.159.017h.335v.429h-2.086v-.429h.335c.057 0 .11-.006.161-.017a.271.271 0 00.13-.074.358.358 0 00.088-.157c.02-.069.031-.16.031-.275v-3.884a.785.785 0 00-.034-.258.335.335 0 00-.089-.148.268.268 0 00-.13-.068.63.63 0 00-.157-.019h-.335v-.425h1.773l2.819 4.023v-3.105a.785.785 0 00-.034-.258.354.354 0 00-.089-.148.267.267 0 00-.131-.068.617.617 0 00-.156-.019h-.336v-.425h2.087v.425h-.335a.606.606 0 00-.156.019.265.265 0 00-.132.072.385.385 0 00-.088.157c-.019.069-.03.16-.03.276v4.805h-.738zm4.7-.492h1.598a.425.425 0 00.207-.045.43.43 0 00.148-.128.658.658 0 00.1-.194c.024-.076.043-.158.056-.246l.063-.378h.553l-.059 1.483h-4.678v-.429h.336c.056 0 .11-.005.16-.016a.294.294 0 00.13-.064.32.32 0 00.088-.146.883.883 0 00.031-.254v-3.896c0-.116-.011-.207-.031-.276a.383.383 0 00-.086-.157.245.245 0 00-.129-.072.64.64 0 00-.163-.019h-.336v-.425h4.435l.031 1.483h-.558l-.038-.381c-.022-.196-.071-.348-.149-.453-.078-.105-.199-.157-.363-.157h-1.346v2.015h1.896v.483h-1.896v2.272zm-66.776-1.347c0-.136.015-.249.047-.342a.536.536 0 01.136-.221.494.494 0 01.204-.119.922.922 0 01.509 0 .514.514 0 01.345.34.996.996 0 01.052.342.982.982 0 01-.052.339.516.516 0 01-.345.341.922.922 0 01-.509 0 .496.496 0 01-.204-.12.55.55 0 01-.136-.221 1.042 1.042 0 01-.047-.339zm-56.387 1.41h.335a.732.732 0 00.157-.016.302.302 0 00.13-.064.332.332 0 00.09-.146.798.798 0 00.033-.254v-3.927a.803.803 0 00-.033-.258.343.343 0 00-.09-.148.27.27 0 00-.13-.068.624.624 0 00-.157-.019h-.335v-.425h2.573c.754 0 1.307.128 1.66.382.352.255.528.625.528 1.111 0 .213-.031.401-.094.566a1.491 1.491 0 01-.597.747c-.13.086-.262.156-.397.211l.95 1.652c.068.115.135.213.198.297.063.082.127.15.19.204a.7.7 0 00.198.118.634.634 0 00.214.037h.03v.429h-.26a6.3 6.3 0 01-.625-.027 1.753 1.753 0 01-.469-.109 1.072 1.072 0 01-.346-.222 1.558 1.558 0 01-.271-.366l-.948-1.773h-.53v1.588c0 .106.011.189.033.254a.33.33 0 00.09.146.298.298 0 00.13.064c.05.011.102.016.156.016h.344v.429h-2.757v-.429zm2.004-2.537h.448c.185 0 .34-.025.464-.075a.664.664 0 00.295-.221.967.967 0 00.161-.371c.032-.149.048-.321.048-.519 0-.203-.018-.377-.055-.519a.834.834 0 00-.171-.348.653.653 0 00-.304-.197 1.492 1.492 0 00-.452-.061h-.434v2.311zm4.49 2.966v-.429h.336c.06 0 .114-.006.163-.017a.252.252 0 00.13-.074.376.376 0 00.086-.157c.02-.069.03-.16.03-.275v-3.849c0-.116-.01-.207-.03-.276a.383.383 0 00-.087-.157.25.25 0 00-.129-.072.685.685 0 00-.163-.019h-.336v-.429h2.757v.429h-.335a.704.704 0 00-.162.019.255.255 0 00-.13.072.377.377 0 00-.086.157.958.958 0 00-.032.276v3.849c0 .115.01.206.032.275.02.068.05.121.085.157.037.038.08.062.13.074.051.011.106.017.163.017h.335v.429h-2.757zm4.05 0v-.429h.336c.06 0 .114-.006.163-.017a.251.251 0 00.13-.074.376.376 0 00.086-.157c.02-.069.03-.16.03-.275v-3.853c0-.116-.01-.207-.03-.276a.383.383 0 00-.087-.157.242.242 0 00-.129-.072.637.637 0 00-.163-.019h-.336v-.425h2.757v.425H73.9a.634.634 0 00-.158.019.254.254 0 00-.13.068.368.368 0 00-.089.148.793.793 0 00-.033.258v4.344h1.485c.188 0 .332-.06.436-.179.106-.119.18-.292.227-.52l.129-.606h.448l-.058 1.797h-4.679zm6.07 0v-.429h.336c.06 0 .114-.006.163-.017a.25.25 0 00.13-.074.375.375 0 00.086-.157c.02-.069.03-.16.03-.275v-3.853c0-.116-.01-.207-.03-.276a.382.382 0 00-.087-.157.24.24 0 00-.129-.072.637.637 0 00-.163-.019h-.336v-.425h2.757v.425h-.335a.634.634 0 00-.158.019.255.255 0 00-.13.068.368.368 0 00-.088.148.792.792 0 00-.034.258v4.344h1.486c.187 0 .332-.06.436-.179.105-.119.18-.292.226-.52l.13-.606h.447l-.058 1.797h-4.679zm12.634 0l-.55-.59a2.04 2.04 0 01-.33.271 2.388 2.388 0 01-.873.35c-.17.033-.355.049-.554.049-.328 0-.618-.038-.87-.115a1.778 1.778 0 01-.635-.337 1.391 1.391 0 01-.39-.54 1.856 1.856 0 01-.133-.724 1.5 1.5 0 01.11-.604 1.43 1.43 0 01.298-.433c.125-.122.27-.225.435-.312.166-.084.339-.163.52-.237a4.27 4.27 0 01-.27-.36 2.204 2.204 0 01-.19-.34 1.71 1.71 0 01-.144-.728c0-.178.033-.339.1-.484a1.04 1.04 0 01.303-.374c.134-.105.3-.185.502-.242.2-.056.432-.084.697-.084.257 0 .481.029.671.09.192.06.35.144.475.248a1.03 1.03 0 01.381.806 1.138 1.138 0 01-.298.804c-.1.112-.226.217-.378.314a4.567 4.567 0 01-.539.291l.059.059 1.13 1.199c.034-.186.057-.37.067-.553.011-.183.015-.349.015-.502v-.355h1.749v.424h-.126c-.087 0-.174.006-.259.017a.696.696 0 00-.236.072.589.589 0 00-.192.167.817.817 0 00-.135.293c-.042.15-.09.309-.148.479a4.92 4.92 0 01-.203.513l.796.838a.53.53 0 00.276.161c.11.027.236.04.378.04h.075v.429H90.18zm-3.161-1.597c0 .161.025.31.076.447.05.138.12.258.212.36.09.104.202.184.333.243.132.059.277.089.435.089.284 0 .522-.047.718-.141a1.43 1.43 0 00.487-.376l-1.71-1.837c-.111.08-.201.166-.273.258a1.276 1.276 0 00-.255.605c-.015.111-.023.23-.023.352zm1.747-3.085c0-.093-.008-.181-.025-.263a.566.566 0 00-.087-.212.436.436 0 00-.172-.143.672.672 0 00-.276-.051.505.505 0 00-.232.051.433.433 0 00-.162.143.649.649 0 00-.094.215 1.058 1.058 0 00-.031.268 1.142 1.142 0 00.124.514c.04.082.091.166.154.249.061.085.134.174.218.269.112-.063.205-.131.28-.202a.888.888 0 00.275-.503c.018-.1.028-.211.028-.335zm10.86.392c0 .178-.023.333-.071.466a1.039 1.039 0 01-.205.343c-.09.095-.194.177-.318.246a2.406 2.406 0 01-.411.173v.039c.183.047.353.111.504.194.152.084.282.184.392.304.11.12.196.258.257.415.061.157.092.334.092.532 0 .529-.191.925-.573 1.186-.382.261-.952.392-1.71.392H95.01v-.429h.329a.779.779 0 00.165-.017.256.256 0 00.13-.074.367.367 0 00.088-.157.914.914 0 00.034-.275v-3.861a.844.844 0 00-.034-.262.371.371 0 00-.09-.155.296.296 0 00-.132-.076.565.565 0 00-.161-.023h-.329v-.425h2.333c.759 0 1.329.119 1.711.355.382.235.574.606.574 1.109zm-2.613 3.798h.53c.177 0 .327-.02.452-.059a.653.653 0 00.304-.191.801.801 0 00.17-.345c.034-.141.052-.314.052-.52 0-.195-.015-.368-.047-.512a.85.85 0 00-.16-.362.695.695 0 00-.295-.212 1.295 1.295 0 00-.46-.071h-.546v2.272zm0-2.763h.305c.188 0 .344-.021.466-.06a.652.652 0 00.296-.182.717.717 0 00.159-.321c.03-.132.046-.289.046-.473s-.017-.337-.052-.46a.66.66 0 00-.17-.3.656.656 0 00-.305-.164 1.853 1.853 0 00-.456-.05h-.289v2.01zm5.567 1.361l-.23.693a3.77 3.77 0 00-.066.231 1.016 1.016 0 00-.033.23.293.293 0 00.113.235.43.43 0 00.251.076h.335v.429h-2.078v-.429h.098a.74.74 0 00.193-.024.43.43 0 00.164-.088.697.697 0 00.143-.179c.045-.077.092-.175.139-.296l1.731-4.738h1.095l1.669 4.747c.038.112.079.206.122.28.044.076.09.134.141.177a.456.456 0 00.161.093.565.565 0 00.18.028h.145v.429h-2.636v-.429h.311c.04 0 .08-.006.121-.017a.302.302 0 00.192-.152.327.327 0 00.031-.142.829.829 0 00-.023-.189l-.047-.158-.281-.807h-1.941zm1.36-1.813l-.088-.29-.089-.309-.087-.313-.072-.297-.08.268-.1.299-.105.308-.1.294-.471 1.362h1.612l-.42-1.322zm3.985 3.278h.335a.74.74 0 00.157-.016.3.3 0 00.13-.064.33.33 0 00.089-.146.78.78 0 00.034-.254v-3.927a.785.785 0 00-.034-.258.344.344 0 00-.089-.148.268.268 0 00-.13-.068.63.63 0 00-.157-.019h-.335v-.425h2.573c.754 0 1.307.128 1.659.382.353.255.529.625.529 1.111 0 .213-.031.401-.094.566a1.493 1.493 0 01-.597.747 2.237 2.237 0 01-.397.211l.951 1.652c.067.115.134.213.197.297.063.082.127.15.191.204a.701.701 0 00.197.118.639.639 0 00.215.037h.03v.429h-.261c-.239 0-.447-.009-.625-.027a1.757 1.757 0 01-.469-.109 1.07 1.07 0 01-.346-.222 1.54 1.54 0 01-.271-.366l-.948-1.773h-.531v1.588c0 .106.012.189.034.254a.332.332 0 00.09.146.303.303 0 00.131.064.708.708 0 00.155.016h.344v.429h-2.757v-.429zm2.003-2.537h.449c.185 0 .339-.025.463-.075a.662.662 0 00.295-.221.954.954 0 00.161-.371c.032-.149.048-.321.048-.519a2.1 2.1 0 00-.054-.519.843.843 0 00-.172-.348.654.654 0 00-.303-.197 1.5 1.5 0 00-.453-.061h-.434v2.311zm17.847 2.966v-.429h.077c.084 0 .158-.005.221-.016a.344.344 0 00.157-.063.274.274 0 00.095-.135c.02-.06.03-.137.03-.234v-4.082l-1.61 4.959h-.541l-1.689-4.959v4.007c0 .115.014.206.042.275a.34.34 0 00.117.157c.05.038.111.062.184.074.074.011.156.017.25.017h.047v.429h-1.981v-.429h.335a.751.751 0 00.161-.016.3.3 0 00.13-.064.32.32 0 00.088-.146.883.883 0 00.031-.254v-3.927a.889.889 0 00-.031-.258.334.334 0 00-.088-.148.268.268 0 00-.13-.068.64.64 0 00-.161-.019h-.335v-.425h2.301l1.325 3.892 1.271-3.892h2.258v.425h-.336a.619.619 0 00-.159.019.241.241 0 00-.129.072.384.384 0 00-.087.157c-.019.069-.03.16-.03.276v3.853c0 .115.011.206.03.275a.378.378 0 00.087.157.251.251 0 00.129.074.725.725 0 00.159.017h.336v.429h-2.554zm5.862-.492h1.599c.081 0 .15-.014.207-.045a.43.43 0 00.148-.128.683.683 0 00.1-.194c.024-.076.043-.158.056-.246l.062-.378h.554l-.059 1.483h-4.678v-.429h.335a.751.751 0 00.161-.016.3.3 0 00.13-.064.33.33 0 00.088-.146.883.883 0 00.031-.254v-3.896c0-.116-.011-.207-.031-.276a.395.395 0 00-.086-.157.245.245 0 00-.129-.072.642.642 0 00-.164-.019h-.335v-.425h4.434l.031 1.483h-.557l-.039-.381c-.021-.196-.07-.348-.148-.453-.078-.105-.199-.157-.363-.157h-1.347v2.015h1.897v.483h-1.897v2.272zm5.567-1.402l-.23.693a4.737 4.737 0 00-.065.231 1.016 1.016 0 00-.033.23c0 .052.01.098.032.138a.307.307 0 00.081.097.426.426 0 00.25.076h.335v.429h-2.078v-.429h.098c.07 0 .135-.008.193-.024a.424.424 0 00.164-.088.678.678 0 00.144-.179c.045-.077.091-.175.138-.296l1.731-4.738h1.095l1.669 4.747c.039.112.08.206.123.28.043.076.09.134.14.177a.465.465 0 00.161.093.574.574 0 00.18.028h.145v.429h-2.636v-.429h.312a.47.47 0 00.121-.017.302.302 0 00.191-.152.313.313 0 00.031-.142.777.777 0 00-.023-.189l-.046-.158-.281-.807h-1.942zm1.36-1.813l-.087-.29-.09-.309-.086-.313-.072-.297-.081.268-.1.299-.105.308-.1.294-.471 1.362h1.613l-.421-1.322zm6.523 2.755c0 .115.01.206.032.275.02.068.049.121.086.157a.277.277 0 00.132.074.727.727 0 00.16.017h.335v.429h-2.757v-.429h.335c.06 0 .115-.006.164-.017a.251.251 0 00.129-.074.377.377 0 00.086-.157c.02-.069.031-.16.031-.275v-4.31h-.639a.957.957 0 00-.299.04.512.512 0 00-.196.112.435.435 0 00-.113.18c-.025.07-.043.15-.053.24l-.055.5h-.537l.042-1.564h4.973l.039 1.564h-.534l-.059-.5c-.01-.09-.028-.17-.053-.24a.446.446 0 00-.31-.292.953.953 0 00-.299-.04h-.64v4.31zm9.608.952l-.55-.59c-.098.1-.209.191-.33.271a2.384 2.384 0 01-.873.35c-.17.033-.355.049-.555.049-.327 0-.617-.038-.87-.115a1.79 1.79 0 01-.635-.337 1.399 1.399 0 01-.389-.54 1.858 1.858 0 01-.134-.724c0-.236.038-.438.111-.604a1.44 1.44 0 01.298-.433c.125-.122.27-.225.435-.312.165-.084.338-.163.519-.237a4.267 4.267 0 01-.27-.36 2.194 2.194 0 01-.19-.34 1.615 1.615 0 01-.109-.346 2 2 0 01-.035-.382c0-.178.033-.339.101-.484a1.04 1.04 0 01.302-.374 1.45 1.45 0 01.502-.242c.2-.056.432-.084.697-.084.257 0 .482.029.672.09.192.06.35.144.475.248a1.029 1.029 0 01.381.806 1.15 1.15 0 01-.298.804c-.1.112-.227.217-.378.314a4.54 4.54 0 01-.539.291l.059.059 1.13 1.199c.034-.186.056-.37.067-.553a8.31 8.31 0 00.015-.502v-.355h1.748v.424h-.125c-.088 0-.174.006-.259.017a.596.596 0 00-.429.239.807.807 0 00-.134.293 11.2 11.2 0 01-.148.479c-.056.169-.124.34-.204.513l.796.838a.532.532 0 00.277.161c.109.027.235.04.378.04h.074v.429h-1.583zm-3.162-1.597c0 .161.025.31.076.447.051.138.121.258.213.36a.947.947 0 00.333.243c.131.059.276.089.435.089.283 0 .521-.047.717-.141.194-.093.356-.219.487-.376l-1.709-1.837c-.111.08-.202.166-.274.258a1.146 1.146 0 00-.169.287 1.31 1.31 0 00-.086.318c-.015.111-.023.23-.023.352zm1.748-3.085c0-.093-.008-.181-.026-.263a.56.56 0 00-.086-.212.44.44 0 00-.172-.143.672.672 0 00-.277-.051.505.505 0 00-.231.051.434.434 0 00-.163.143.648.648 0 00-.093.215 1.09 1.09 0 000 .532c.02.084.051.168.092.25.04.082.092.166.154.249.062.085.135.174.219.269.112-.063.204-.131.279-.202a.89.89 0 00.276-.503c.018-.1.028-.211.028-.335zm10.844-1.016l1.102 3.078c.048.125.09.254.131.382l.111.372.089.327c.027.1.046.185.059.256l.066-.322.076-.372.086-.4c.03-.136.06-.269.091-.398l.422-1.739.025-.11.025-.123.018-.115.005-.084c0-.14-.04-.238-.123-.296-.08-.058-.211-.087-.387-.087h-.184v-.425h2.082v.425h-.152a.793.793 0 00-.206.024.358.358 0 00-.16.093.667.667 0 00-.128.191 2.152 2.152 0 00-.11.322l-1.239 4.699h-.909l-1.341-3.782-1.15 3.782h-.99l-1.461-4.9a.87.87 0 00-.085-.208.428.428 0 00-.275-.201.896.896 0 00-.205-.02h-.106v-.425h2.667v.425h-.184c-.161 0-.28.032-.36.095-.079.064-.119.161-.119.294 0 .046.008.111.026.195.017.086.036.165.057.239l.534 1.861.09.333a11.765 11.765 0 01.17.714c.023.113.041.213.051.299.036-.173.076-.334.118-.486.043-.15.088-.305.135-.462l1.053-3.451h.585zm4.766 5.698v-.429h.335c.06 0 .114-.006.163-.017a.254.254 0 00.13-.074.377.377 0 00.086-.157c.02-.069.031-.16.031-.275v-3.849c0-.116-.011-.207-.031-.276a.383.383 0 00-.086-.157.25.25 0 00-.13-.072.682.682 0 00-.163-.019h-.335v-.429h2.757v.429h-.336a.698.698 0 00-.162.019.255.255 0 00-.13.072.372.372 0 00-.086.157.97.97 0 00-.032.276v3.849c0 .115.011.206.032.275.02.068.05.121.086.157.036.038.08.062.13.074a.76.76 0 00.162.017h.336v.429h-2.757zM191.693 92.782c-.59.959-1.18 1.918-1.762 2.882-.592.98-1.191 1.957-1.79 2.933a8.065 8.065 0 01-.904 1.223 3.12 3.12 0 01-1.031.742c-.443.199-.962.288-1.442.327-.685.057-1.398.041-2.085.015l-.394-.016-.137-.005v-1.427h.141l.106.002a2.32 2.32 0 00.775-.094c.242-.073.474-.2.677-.353.246-.183.466-.403.668-.632.25-.286.472-.603.678-.923.588-.922 1.198-1.83 1.789-2.75.565-.88 1.138-1.754 1.71-2.628a7.71 7.71 0 01-1.223-.63 5.223 5.223 0 01-1.232-1.093 5.196 5.196 0 01-.879-1.598c-.245-.702-.337-1.459-.337-2.2 0-1.695.547-3.17 1.968-4.139 1.569-1.068 3.732-1.32 5.58-1.318 2.429.002 4.86.004 7.289.004H200v1.48h-.519c-.285 0-.568.014-.85.055-.24.035-.478.107-.681.244-.194.13-.342.321-.444.531-.135.281-.166.626-.166.934v13.985c0 .31.032.66.167.942.1.212.249.407.444.539.206.14.444.222.687.27.28.056.563.082.848.094l.379.016.135.007v1.478l-.148-.006c-2.71-.13-5.419-.257-8.127-.385l-.135-.006v-1.456l.492.022c.288.014.578.01.866-.021.231-.023.464-.087.667-.2a1.13 1.13 0 00.453-.483c.133-.262.165-.615.165-.905v-5.386l-2.54-.07zM46.718 91.86v6.18c0 .318.031.71.167 1.001.1.214.242.41.44.538.206.134.442.2.68.23.286.034.576.04.864.028.121-.006.243-.01.365-.013l.143-.003v1.452l-.135.007c-2.703.126-5.407.255-8.11.38l-.15.006v-1.482l.14-.002.342-.013c.288-.013.58-.04.864-.098.237-.048.47-.136.674-.268.203-.13.34-.322.441-.539.134-.284.167-.632.167-.943v-13.99c0-.309-.03-.656-.166-.937a1.25 1.25 0 00-.442-.53 1.681 1.681 0 00-.667-.245 5.71 5.71 0 00-.865-.056h-.487v-1.48h.142c2.704 0 5.406-.003 8.11-.005h.142v1.459h-.141l-.361.001c-.29 0-.579.025-.864.072-.243.04-.478.116-.682.258a1.34 1.34 0 00-.444.55c-.137.297-.168.677-.168 1v5.975c.302-.009.609-.024.907-.066.213-.029.44-.076.64-.154a1.05 1.05 0 00.377-.246c.118-.123.246-.235.352-.372.328-.424.617-.98.855-1.46.428-.864.863-1.726 1.298-2.587.326-.647.685-1.278 1.074-1.891a8.332 8.332 0 011.136-1.447 4.588 4.588 0 011.321-.93 3.671 3.671 0 011.553-.33c.364 0 .741.03 1.092.137.27.082.544.2.758.388.188.166.326.374.417.608.09.232.14.48.14.73 0 .26-.038.51-.122.755a1.872 1.872 0 01-.785 1.017c-.173.104-.353.18-.552.221l-.134.028-.032-.135a3.37 3.37 0 00-.173-.564 1.619 1.619 0 00-.302-.453 1.125 1.125 0 00-.424-.294 1.598 1.598 0 00-.605-.112c-.582.001-1.073.342-1.457.757-.623.674-1.151 1.633-1.57 2.448-.258.503-.516 1.006-.771 1.511-.2.393-.41.778-.627 1.16-.171.3-.347.606-.551.886a4.357 4.357 0 01-.371.447c.322.023.643.074.953.164.349.102.669.252.963.467.285.208.534.469.738.758.231.323.451.653.649 1 .868 1.527 1.733 3.056 2.61 4.58.343.596.79 1.22 1.38 1.587.494.309 1.047.45 1.629.428l.078-.005.15-.01v1.436l-.135.006-.395.017c-.741.029-1.51.046-2.25-.015-.513-.043-1.052-.141-1.524-.356a3.01 3.01 0 01-1.067-.802 7.549 7.549 0 01-.871-1.312c-.854-1.595-1.71-3.19-2.546-4.796a5.075 5.075 0 00-.621-.966 1.953 1.953 0 00-.69-.518c-.313-.14-.68-.203-1.02-.226a15.71 15.71 0 00-1.474-.022zm31.2-1.32c0 1.348-.166 2.697-.558 3.989-.35 1.149-.887 2.206-1.653 3.13a7.71 7.71 0 01-2.684 2.077c-1.152.541-2.404.775-3.67.82-1.268.046-2.582-.094-3.766-.578a6.732 6.732 0 01-2.69-1.95c-.764-.918-1.278-1.988-1.606-3.135-.38-1.326-.527-2.716-.527-4.094 0-1.378.147-2.773.527-4.101.33-1.156.844-2.235 1.605-3.166a7.111 7.111 0 012.688-2.025c1.195-.522 2.5-.713 3.796-.713 1.252 0 2.486.197 3.64.703a7.45 7.45 0 012.686 1.981c.77.9 1.303 1.944 1.653 3.076.397 1.288.558 2.64.558 3.985zm7.357-1.293c2.809-.027 5.618-.052 8.427-.072v-5.037c0-.3-.035-.63-.16-.905a1.148 1.148 0 00-.423-.495 1.571 1.571 0 00-.638-.233 5.391 5.391 0 00-.83-.06h-.505v-1.367h.141c2.605 0 5.208 0 7.812-.002h.143v1.358h-.489a5.62 5.62 0 00-.832.064 1.586 1.586 0 00-.638.235 1.15 1.15 0 00-.422.493c-.124.274-.16.604-.16.903v12.56c0 .27.031.589.157.833.097.189.233.349.417.455.2.115.433.172.66.202.269.035.543.046.814.04l.35-.004h.143v1.355l-.14.001c-2.604.042-5.208.088-7.813.129l-.144.002v-1.364l.14-.003.364-.006c.278-.004.556-.031.832-.075.226-.036.446-.116.638-.245.189-.127.328-.294.423-.503.124-.275.16-.606.16-.906V90.74c-2.81.023-5.618.051-8.427.084v5.918c0 .293.03.64.158.906.097.2.236.373.422.493.198.127.423.194.653.223.276.036.553.05.83.043l.35-.007.143-.002v1.366l-.138.003-7.812.18-.145.004v-1.38l.139-.003.346-.006c.28-.007.557-.034.831-.083a1.63 1.63 0 00.655-.252c.188-.13.328-.31.426-.516.126-.264.143-.629.143-.917v-12.72c0-.282-.029-.595-.158-.85a1.212 1.212 0 00-.422-.484 1.625 1.625 0 00-.654-.226 5.891 5.891 0 00-.817-.053h-.49v-1.378l8.096-.002v1.368h-.488a5.932 5.932 0 00-.831.064 1.605 1.605 0 00-.654.24c-.186.124-.326.3-.425.502-.129.268-.158.617-.158.912v5.08zm26.292 1.393c-1.302.003-2.605.007-3.907.012v5.81c0 .287.03.628.164.889.103.199.249.373.44.492.207.127.446.192.685.224.287.04.577.059.868.059l.361-.002h.142v1.349l-.141.002c-2.709.02-5.419.044-8.128.072l-.142.001v-1.355l.139-.002.362-.005c.29-.003.58-.025.867-.069.24-.036.479-.107.685-.238a1.21 1.21 0 00.44-.5c.125-.263.151-.606.151-.894V84.013c0-.276-.031-.582-.164-.83a1.254 1.254 0 00-.441-.478 1.76 1.76 0 00-.669-.22 6.334 6.334 0 00-.867-.053h-.503v-1.356h8.411v1.352h-.503c-.291 0-.58.021-.867.063a1.73 1.73 0 00-.684.233 1.261 1.261 0 00-.442.495c-.134.26-.164.6-.164.89v4.99c1.315-.005 2.63-.007 3.946-.01.083-1.133.295-2.26.688-3.328.367-.996.902-1.908 1.641-2.67.739-.76 1.63-1.312 2.611-1.697 1.125-.442 2.364-.6 3.566-.6 1.232 0 2.461.192 3.601.678a7.237 7.237 0 012.662 1.917c.755.87 1.267 1.896 1.621 2.99.403 1.249.565 2.562.565 3.872s-.163 2.616-.565 3.864c-.355 1.102-.876 2.119-1.638 2.99a7.327 7.327 0 01-2.661 1.926c-1.143.489-2.384.665-3.618.665-1.244 0-2.523-.164-3.682-.64a7.065 7.065 0 01-2.647-1.863c-.746-.846-1.266-1.834-1.606-2.91-.371-1.177-.538-2.41-.577-3.642zm24.501 7.35c2.183.02 4.366.05 6.55.084V84.032c0-.267-.028-.56-.131-.808a1.066 1.066 0 00-.377-.466 1.486 1.486 0 00-.563-.248 3.429 3.429 0 00-.713-.072l-.078-.002h-.142v-1.358h7.022v1.366h-.221c-.246 0-.49.024-.73.071a1.223 1.223 0 00-.568.254 1.376 1.376 0 00-.356.506c-.114.264-.145.58-.145.866V98.12c2.189.033 4.377.076 6.565.123V84.166c0-.307-.041-.634-.175-.912a1.222 1.222 0 00-.424-.505 1.596 1.596 0 00-.638-.236 5.403 5.403 0 00-.83-.066h-.505V81.08l8.111.003v1.379h-.489c-.279 0-.556.022-.832.063-.237.034-.452.1-.652.234a1.233 1.233 0 00-.409.504c-.133.279-.174.608-.174.915V96.89c0 .293.042.593.173.857.102.203.238.368.425.494.192.127.415.204.64.24.275.047.554.067.833.074l.348.008.137.004v1.376l-.145-.003c-8.967-.207-17.936-.354-26.906-.448l-.139-.001v-1.353l.143.002.346.004c.275.003.545-.008.817-.046.227-.03.458-.092.654-.216.18-.113.325-.279.422-.468.13-.249.158-.556.158-.832v-12.47c0-.282-.017-.638-.143-.895a1.21 1.21 0 00-.44-.492 1.562 1.562 0 00-.637-.232 5.478 5.478 0 00-.832-.063l-.349-.003-.139-.003v-1.349h8.094v1.359h-.488c-.278 0-.557.02-.831.062a1.628 1.628 0 00-.655.23 1.234 1.234 0 00-.423.496c-.129.263-.159.607-.159.897V97.99zm29.638-6.983v6.022c0 .314.041.65.175.936.099.21.234.393.426.526.192.133.411.217.639.258.274.05.551.082.83.089l.486.014v1.396l-.146-.004c-2.599-.078-5.198-.153-7.796-.231l-.137-.005v-1.382l.146.006.33.01a5.45 5.45 0 00.846-.04c.224-.03.446-.098.637-.22.189-.124.327-.288.42-.495.127-.28.162-.62.162-.924V84.108c0-.291-.043-.599-.175-.862a1.22 1.22 0 00-.423-.493 1.61 1.61 0 00-.639-.229 5.91 5.91 0 00-.832-.057h-.472v-1.383l8.079.003v1.397h-.489a5.27 5.27 0 00-.831.063c-.225.034-.446.109-.637.238-.19.128-.326.303-.424.51-.136.285-.175.62-.175.932v5.18c2.814.038 5.629.082 8.443.127v-5.257c0-.306-.029-.667-.16-.947a1.285 1.285 0 00-.425-.523 1.513 1.513 0 00-.637-.246 5.293 5.293 0 00-.845-.067h-.49v-1.406h.142c2.599.002 5.197.005 7.796.005h.142v1.422h-.142l-.331-.002c-.278 0-.556.02-.831.062-.233.035-.456.11-.652.244a1.285 1.285 0 00-.425.522c-.127.275-.144.653-.144.952v13.201c0 .296.03.625.16.893.097.204.228.381.421.502.196.124.418.206.645.25.273.053.552.079.83.09l.332.013.137.005v1.419l-.148-.006c-2.597-.101-5.197-.196-7.795-.287l-.137-.006v-1.399l.145.003.349.011c.284.008.564-.003.847-.036.231-.028.438-.094.633-.222.188-.126.327-.303.423-.506.131-.274.16-.638.16-.938v-6.125c-2.814-.054-5.629-.106-8.443-.148zm-101.692-.243c0 1.172.078 2.364.297 3.515.17.89.445 1.797.928 2.569.413.659.959 1.177 1.65 1.534.748.386 1.624.496 2.455.469.855-.029 1.725-.199 2.477-.624a4.455 4.455 0 001.636-1.612c.471-.78.749-1.68.913-2.572.21-1.14.298-2.307.298-3.465 0-1.154-.087-2.318-.298-3.454-.163-.878-.44-1.772-.911-2.533-.408-.658-.94-1.194-1.62-1.557-.752-.402-1.615-.532-2.459-.53-.845.001-1.72.14-2.474.548-.696.377-1.244.92-1.667 1.593-.486.773-.758 1.696-.928 2.59-.219 1.157-.297 2.353-.297 3.53zm50.919-.522c0 1.112.075 2.245.292 3.337.171.854.443 1.71.902 2.453.394.64.91 1.152 1.571 1.504.726.386 1.568.515 2.381.515.819.001 1.647-.125 2.38-.515a4.004 4.004 0 001.57-1.503c.451-.747.722-1.599.886-2.453.208-1.093.276-2.227.276-3.338 0-1.11-.068-2.243-.276-3.334-.163-.85-.434-1.71-.885-2.452-.386-.633-.902-1.152-1.555-1.5-.724-.388-1.552-.514-2.363-.514-.82 0-1.664.127-2.398.514-.666.35-1.185.864-1.588 1.503-.464.735-.731 1.601-.901 2.45-.216 1.091-.292 2.222-.292 3.333zm79.3-7.458l-1.205-.003c-.7-.002-1.452.052-2.13.237-.523.143-1.03.364-1.437.73-.382.346-.636.79-.798 1.278-.201.606-.254 1.282-.254 1.918 0 .578.066 1.164.238 1.717.152.48.384.917.725 1.287.349.38.772.65 1.246.845.559.228 1.189.319 1.79.332.608.013 1.216.03 1.825.044v-8.385zM58.608 100.681l.061-.002a.036.036 0 00.035-.036v-.402l-.011-.025-.027-.012-.066.003a16.27 16.27 0 01-1.808-.027c-.447-.037-.916-.117-1.328-.304a2.447 2.447 0 01-.86-.643 6.898 6.898 0 01-.799-1.208c-.852-1.594-1.707-3.188-2.542-4.792-.198-.38-.42-.754-.7-1.08a2.575 2.575 0 00-.898-.674c-.38-.169-.805-.247-1.218-.275-.44-.031-.875-.03-1.315-.02a.456.456 0 00-.433.366l-.017.08.008.03.029.013.08-.003c.429-.01.855-.01 1.284.02.398.029.809.103 1.175.266.33.147.617.367.853.64.274.317.49.684.684 1.055.834 1.605 1.69 3.198 2.543 4.793.232.434.498.854.815 1.23.249.295.556.52.904.678.425.194.909.277 1.37.315.725.06 1.455.043 2.18.014zm-2.063-17.972c-.774-.307-1.964-.08-2.421.668a.035.035 0 00.005.045l.044.005c.376-.238.744-.382 1.193-.383a2.08 2.08 0 01.776.143c.23.092.426.23.594.411a2.103 2.103 0 01.462.772l.025.074.022.022.03-.002.067-.04c.128-.078.234-.179.332-.293l.025-.026.007-.036-.012-.034a2.258 2.258 0 00-.51-.883 1.762 1.762 0 00-.64-.443zm-3.433.638l.036-.05a.038.038 0 00-.008-.052l-.1-.074a.036.036 0 00-.049.006l-.039.049c-.197.25-.38.513-.551.782-.38.599-.732 1.215-1.051 1.849-.434.86-.87 1.72-1.296 2.585-.211.425-.432.846-.693 1.242l-.033.05a.036.036 0 00.008.05l.093.072c.016.013.037.011.05-.004l.04-.044.086-.104c.368-.476.651-1.023.918-1.562.427-.863.862-1.723 1.296-2.583.317-.63.667-1.243 1.045-1.839.08-.126.163-.25.248-.373zm-4.983-1.41c-.795.132-1.053.389-1.497 1.04a.037.037 0 00.006.048.036.036 0 00.048-.001c.66-.617 1.119-.667 1.985-.677h.063c.02 0 .035-.017.035-.037v-.404l-.011-.026-.027-.01-.069.005a5.858 5.858 0 00-.534.063zm-4.983 18.351a.038.038 0 00-.008.049c.01.016.03.02.048.011 1.005-.541 1.233-1.13 1.233-2.248V84.25c0-.695-.136-1.344-.705-1.793-.47-.373-1.127-.548-1.717-.571-.217-.009-.433-.009-.649-.009a.036.036 0 00-.036.035l-.003.089v.333c0 .02.016.036.036.036h.063c.286.001.573.019.855.06.3.046.593.15.85.316.274.177.468.427.61.719.169.35.213.757.213 1.142v13.849c0 .921-.05 1.242-.79 1.831zm-1.802.692a.035.035 0 00-.035.036v.398l.011.026.026.011.068-.003c2.42-.115 4.84-.225 7.26-.341l.061-.002a.036.036 0 00.035-.037v-.398l-.011-.027-.027-.01-.067.003c-1.956.086-3.911.185-5.867.276l-1.454.068zM63.22 84.3l.035-.05a.038.038 0 00-.008-.051l-.098-.075a.036.036 0 00-.05.006l-.04.048c-.688.865-1.159 1.868-1.462 2.929-.367 1.287-.508 2.634-.508 3.971 0 1.335.14 2.679.508 3.963.31 1.08.795 2.098 1.515 2.963a6.289 6.289 0 002.508 1.817c1.125.459 2.372.587 3.575.544 1.2-.043 2.396-.264 3.489-.778a7.372 7.372 0 001.51-.944l.047-.04a.037.037 0 00.006-.05l-.074-.1a.037.037 0 00-.05-.007l-.05.035c-.343.243-.708.453-1.089.631-1.077.506-2.257.723-3.438.765-1.186.043-2.417-.083-3.523-.534a6.164 6.164 0 01-2.458-1.78c-.708-.852-1.185-1.852-1.49-2.916-.364-1.273-.503-2.605-.503-3.926 0-1.325.139-2.66.504-3.935.251-.883.62-1.733 1.144-2.486zm2.798-1.297l-.047.038c-.014.013-.017.035-.006.05l.073.099a.036.036 0 00.05.008l.05-.034c.131-.09.267-.172.407-.248.823-.445 1.768-.603 2.694-.604.92-.002 1.856.146 2.678.585.752.402 1.345.997 1.796 1.722.506.815.8 1.757.975 2.697.217 1.167.305 2.355.305 3.541 0 1.189-.09 2.382-.305 3.55-.176.952-.471 1.901-.973 2.732-.048.08-.097.157-.149.234l-.035.05a.038.038 0 00.008.051l.097.073a.037.037 0 00.05-.006l.04-.047c.167-.203.317-.42.453-.645.51-.844.812-1.808.99-2.776.217-1.177.308-2.377.308-3.574 0-1.193-.09-2.39-.309-3.564-.177-.956-.478-1.914-.992-2.743-.462-.744-1.072-1.354-1.844-1.768-.841-.45-1.796-.602-2.739-.599-.947.001-1.913.163-2.754.62a4.901 4.901 0 00-.82.558h-.001zm21.205-1.137a.036.036 0 00-.037-.037c-1.07 0-1.399.116-2.03 1.013a.036.036 0 00.005.047.035.035 0 00.049 0c.7-.61 1.022-.619 1.914-.632l.064-.002c.019 0 .035-.016.035-.036v-.353zm-7.126-.034l-.025.01-.012.026v.364c0 .02.017.036.037.036l.063.002c.268.001.538.018.804.055.297.042.587.133.84.295.254.162.453.4.59.668.163.326.207.702.207 1.064v12.433c0 .92-.003 1.322-.758 1.93a.038.038 0 00-.007.05c.011.014.031.02.047.011 1.049-.577 1.201-1.198 1.201-2.347V83.995c0-.384-.048-.778-.223-1.123a1.829 1.829 0 00-.634-.72 2.168 2.168 0 00-.884-.313l-1.246-.007zm7.028 17.751l.063-.001c.02 0 .035-.017.035-.036v-.353l-.01-.027-.026-.01h-.065c-2.322.027-4.644.07-6.965.152l-.062.002a.036.036 0 00-.035.037v.361l.012.026.025.01h.065c2.321-.052 4.642-.106 6.963-.161zM84.9 90.511l-.015.078.007.031.028.013H85c2.9-.027 5.8-.063 8.7-.088.09 0 .167.03.231.095a.315.315 0 01.097.233v5.864c0 .79-.059 1.135-.602 1.73a.037.037 0 000 .05.036.036 0 00.047.006c.843-.573 1.038-1.144 1.038-2.144v-5.863a.449.449 0 00-.135-.325.438.438 0 00-.323-.133 2720.3 2720.3 0 00-8.713.087.455.455 0 00-.44.366zm13.635 8.874h.062c.02 0 .035-.017.035-.037v-.342l-.01-.026-.025-.01h-.065a5.422 5.422 0 01-.798-.045l-.034-.005c-1.778.027-3.55.057-5.324.085-.268.04-.535.067-.807.072l-.063.002a.037.037 0 00-.035.037v.35l.01.025.027.01h.065c2.32-.035 4.64-.08 6.962-.116zm-1.657-16.994l-.32.324a.036.036 0 00-.002.047c.011.016.03.02.046.011l.396-.223c.448-.253 1.032-.3 1.537-.308h.063c.018 0 .034-.018.034-.037v-.343a.036.036 0 00-.035-.036c-.693 0-1.206.045-1.719.565zm-2.85 2.025v4.887l.013.029.03.007.076-.016a.46.46 0 00.364-.449v-4.815c0-.39-.053-.798-.216-1.156a1.755 1.755 0 00-.637-.747 2.182 2.182 0 00-.876-.325l-.012-.002-1.263-.001a.037.037 0 00-.037.036v.351c0 .02.017.037.037.037h.063c.281.001.561.024.839.066.292.044.577.141.825.305.26.172.46.405.59.691.155.34.204.73.204 1.102zm15.584-2.18h.063c.02-.001.036-.018.036-.037v-.337a.037.037 0 00-.036-.037c-1.19 0-1.543.052-2.151 1.14a.035.035 0 00.011.047.035.035 0 00.048-.006c.705-.832 1.016-.759 2.029-.77zm-5.145-.003c-.66-.398-1.451-.407-2.197-.408a.037.037 0 00-.036.037v.341c0 .02.016.036.036.036h.063c.29.003.58.017.868.058.295.04.589.129.845.283.259.157.467.39.612.657.172.322.22.695.22 1.055V96.62c0 .798-.04 1.104-.588 1.706a.037.037 0 00-.001.05.035.035 0 00.048.005c.85-.585 1.024-1.105 1.024-2.118V84.178c0-.823-.151-1.496-.894-1.945zm5.145 16.642c-2.427-.027-4.854.013-7.28.06l-.063.002a.035.035 0 00-.035.036v.341l.011.026.025.01h.065c2.425-.018 4.852-.046 7.277-.065h.063c.02 0 .036-.016.036-.037v-.335a.038.038 0 00-.036-.037h-.063zm-1.94-8.537l-.015.078.008.03.028.014h.078c1.393-.006 2.399-.01 3.792-.012.176 0 .32.142.325.32.029 1.234.188 2.472.559 3.65.32 1.01.808 1.945 1.51 2.74a6.617 6.617 0 002.474 1.74c1.104.454 2.321.606 3.506.606 1.17 0 2.352-.165 3.436-.629a7.026 7.026 0 001.673-1.008l.047-.038a.039.039 0 00.007-.051l-.073-.1a.035.035 0 00-.05-.008l-.05.036a6.983 6.983 0 01-1.25.693c-1.067.456-2.233.617-3.386.617-1.167 0-2.37-.148-3.457-.595a6.499 6.499 0 01-2.427-1.708c-.689-.78-1.169-1.7-1.482-2.692-.369-1.166-.525-2.393-.554-3.613a.457.457 0 00-.454-.448c-1.397.003-2.406.006-3.802.012-.215 0-.4.154-.443.367zm6.224-6.077l.035-.05a.035.035 0 00-.008-.05l-.098-.075a.036.036 0 00-.049.006l-.039.048a7.252 7.252 0 00-1.147 2.063c-.367 1-.574 1.924-.644 2.988l-.006.085.012.03.032.008.082-.016a.457.457 0 00.36-.42c.07-1.063.272-1.988.639-2.986a7.406 7.406 0 01.831-1.63zm2.934-1.36l-.046.038a.036.036 0 00-.006.05l.072.097a.035.035 0 00.049.008l.05-.034a4.44 4.44 0 01.407-.243c.802-.423 1.717-.567 2.614-.567.889 0 1.788.144 2.582.568a4.528 4.528 0 011.733 1.672c.483.792.772 1.697.946 2.607.215 1.127.284 2.278.284 3.424 0 1.147-.069 2.3-.284 3.427-.174.911-.465 1.813-.945 2.609l-.121.191-.034.05a.038.038 0 00.009.05l.097.073a.036.036 0 00.049-.006l.039-.046c.156-.19.298-.391.426-.602.488-.809.784-1.725.96-2.652.217-1.136.287-2.296.287-3.45 0-1.155-.07-2.315-.287-3.45-.176-.925-.471-1.845-.961-2.652-.441-.724-1.037-1.319-1.784-1.718-.812-.433-1.732-.583-2.642-.583-.918 0-1.853.15-2.674.583-.292.154-.568.34-.82.555zm40.281-.968v-.065a.036.036 0 00-.036-.036h-.063c-.535 0-.926.041-1.383.347-.095.064-.183.14-.262.223l-.286.298a.037.037 0 00-.002.047c.011.015.03.02.046.01l.361-.197c.22-.12.458-.188.705-.224.272-.039.547-.062.822-.066l.063-.002c.02 0 .036-.016.036-.036v-.064l-.001-.235zm-4.122 2.226c0-.422-.08-.845-.279-1.22a1.982 1.982 0 00-1.522-1.037l-1.216-.077-.027.01-.01.027v.358c0 .019.015.035.035.036h.063c.281.004.564.026.841.07.293.047.577.144.824.31a1.7 1.7 0 01.587.69c.166.347.221.738.221 1.12V98.19l.014.028.029.007.076-.014a.433.433 0 00.227-.123c.09-.089.137-.2.137-.326V84.159zm-7.171-1.807l-.271.286a.034.034 0 00-.003.047c.011.015.03.018.046.01l.347-.184c.162-.087.337-.143.516-.178.16-.032.321-.054.483-.067l.058-.005a.036.036 0 00.033-.036v-.361a.036.036 0 00-.036-.036h-.063c-.298 0-.754.21-.98.401-.045.04-.09.08-.13.123zm-2.875 1.96v13.725l.013.028.029.008.077-.014a.447.447 0 00.229-.124.449.449 0 00.135-.327V83.953c0-1.41-1.081-2.125-2.388-2.125h-.063a.036.036 0 00-.036.036v.354c0 .02.014.036.033.036l.059.005c.158.014.315.035.47.069.266.056.514.165.737.324.24.171.422.394.537.668.13.31.168.657.168.991zm-6.693-1.928l-.303.31a.035.035 0 00-.004.048.035.035 0 00.046.01l.38-.21c.224-.124.472-.194.725-.232.272-.042.548-.063.824-.068h.063a.037.037 0 00.035-.037v-.343a.037.037 0 00-.036-.037h-.064c-.544 0-.909.01-1.379.321-.104.068-.2.148-.287.238zm-3.566 15.712a.037.037 0 00-.007.048c.01.015.029.02.047.012.914-.383 1.154-.727 1.154-1.795V84.034c0-1.88-1.318-2.266-2.927-2.209l-.062.003a.035.035 0 00-.034.036v.337c0 .019.015.036.035.036l.063.001c.275.004.551.027.824.068.292.043.576.14.824.304.262.172.464.394.603.678.163.333.191.738.191 1.103v12.326c0 .816-.079.851-.711 1.379zm-1.729.73h-.065a.036.036 0 00-.035.037v.405c0 .02.015.036.035.037h.064c8.685.1 17.372.238 26.056.433l.065.001.026-.01.01-.026v-.404a.035.035 0 00-.035-.036l-.061-.003c-.354-.01-.709-.034-1.064-.041-7.756-.172-15.514-.299-23.272-.385-.575-.008-1.15-.008-1.724-.008zm47.512 1.106c-1.952-.076-3.904-.147-5.854-.217-.2.015-.395.022-.594.018l-.065-.001-.026.01-.011.026v.388c0 .02.016.036.035.037l.062.002c2.316.082 4.631.171 6.946.256l.067.003.025-.01.011-.026v-.404a.037.037 0 00-.034-.038l-.061-.001a6.453 6.453 0 01-.501-.043zm-1.129-17.473l-.308.315a.036.036 0 00-.004.047.037.037 0 00.047.01l.384-.212c.217-.121.455-.194.699-.231.268-.04.538-.063.809-.067l.063-.001c.02 0 .035-.017.035-.036v-.403l-.011-.027-.027-.01-.069.005c-.156.011-.31.03-.465.053-.322.05-.63.157-.9.342a1.87 1.87 0 00-.253.215zm-4.49-.62h-.894l-.026.01-.011.025v.392c0 .018.017.035.036.035l.063.002c.282.004.564.027.843.072.3.048.575.148.827.322.257.178.451.427.584.71.163.35.204.766.204 1.148v5.11l.013.028.03.008.075-.015a.43.43 0 00.229-.123c.09-.088.137-.2.137-.326v-5.04c0-.402-.045-.834-.218-1.203a1.883 1.883 0 00-.626-.761 2.109 2.109 0 00-.88-.343 5.317 5.317 0 00-.386-.05zm-6.931.593l-.307.314a.04.04 0 00-.003.048.037.037 0 00.047.01l.382-.213c.215-.12.451-.194.694-.232.273-.041.549-.066.825-.068h.063c.02 0 .035-.016.035-.037v-.381c0-.02-.015-.037-.035-.037h-.064c-.484 0-.961.096-1.368.37a1.697 1.697 0 00-.269.225zm-2.385 1.841c0-1.984-1.247-2.438-2.989-2.44a.037.037 0 00-.036.037v.368c0 .02.016.037.036.037h.063c.27.005.539.022.806.061.291.043.577.139.824.3.259.168.45.4.588.677.166.33.224.706.224 1.075v12.567c0 .81-.187 1.284-.731 1.877a.036.036 0 00-.001.048.036.036 0 00.048.006c.838-.558 1.168-1.124 1.168-2.145V84.273zm4.026 15.313c-2.316-.092-4.632-.176-6.95-.194h-.065l-.025.01-.011.027v.366c0 .019.016.036.036.036l.062.002c2.315.064 4.63.13 6.946.206l.065.001.026-.01.011-.025v-.38a.035.035 0 00-.034-.037l-.061-.002zm-1.872-8.888l-.015.075.008.03.027.014h.076c2.792.036 5.582.096 8.373.149.177.002.319.15.319.327v6.265c0 .89-.201 1.027-.762 1.645-.012.014-.013.034-.001.048a.034.034 0 00.047.008c.949-.566 1.2-.934 1.2-2.058v-6.264a.458.458 0 00-.446-.46c-2.791-.052-5.582-.105-8.374-.147a.437.437 0 00-.325.132.442.442 0 00-.127.236zm26.33 9.921l-.065-.001-.025.011-.012.026v.422c0 .019.015.035.034.036l.061.003c2.425.127 4.853.22 7.278.344l.067.003.027-.01.01-.027v-.431a.035.035 0 00-.034-.036l-.06-.003c-2.427-.117-4.851-.291-7.281-.337zm5.543-18.087l-.305.312a.035.035 0 00-.003.048c.011.015.03.019.046.01l.382-.21c.23-.128.484-.202.743-.24.288-.042.579-.06.87-.06h.063c.02 0 .036-.016.036-.036v-.408l-.01-.026-.027-.01-.068.003c-.176.01-.353.027-.528.052-.328.048-.648.15-.925.337a1.741 1.741 0 00-.274.228zm-11.071 1.37l.033-.051a.036.036 0 00-.009-.049l-.095-.071a.035.035 0 00-.049.005l-.039.045c-.736.859-.983 1.943-.983 3.055 0 .69.081 1.39.311 2.043.183.523.443 1.026.797 1.453.32.39.696.726 1.121.996.412.26.848.48 1.304.653a.317.317 0 01.196.205c.012.04.019.082.016.124l.013.03.032.008c.493-.12.615-.668.142-.846a7.145 7.145 0 01-1.281-.643 4.643 4.643 0 01-1.091-.968 4.604 4.604 0 01-.774-1.413c-.224-.637-.302-1.325-.302-2 0-.902.169-1.806.658-2.576zm-3.978 16.31l-.026.011-.011.025v.427c0 .019.015.035.035.036l.062.002c.67.027 1.344.042 2.015-.014.432-.036.891-.109 1.291-.287.263-.119.505-.277.718-.474l.043-.039a.037.037 0 00.006-.047c-.01-.016-.027-.02-.045-.014-.502.207-1.129.33-1.67.374-.67.055-1.343.042-2.014.013l-.044-.002-.36-.011zm9.282-7.678l-.001.036.032.02.149-.002 2.27.078c.176.005.315.15.315.327v5.526c0 .846-.058.986-.707 1.522-.015.012-.019.032-.008.047.01.017.03.022.047.014.969-.49 1.152-.858 1.152-1.94v-5.526a.456.456 0 00-.441-.457c-.759-.023-1.517-.056-2.276-.078a.448.448 0 00-.399.217l-.133.216zm-2.495-9.33l-.044.04a.035.035 0 00-.005.049l.07.095c.012.016.033.02.048.01l.051-.032c.373-.243.79-.407 1.217-.523.729-.2 1.501-.257 2.254-.254l1.346.004a.327.327 0 01.323.328v8.38l.014.027.03.009.075-.015a.445.445 0 00.229-.123.45.45 0 00.136-.327V82.85c0-.407-.229-.744-.659-.744-.38 0-.76-.002-1.141-.004-.763-.002-1.547.056-2.287.258-.604.166-1.185.423-1.657.846z"/><path fill-rule="evenodd" clip-rule="evenodd" d="M128.129 121.331v.878c.471 5.545-2.351 11.258-7.023 14.214-.322.205-.676.403-1.106.622-.43-.219-.784-.418-1.106-.622-4.672-2.956-7.494-8.669-7.023-14.214v-.878h-34.34c-1.723 0-3.202.782-4.165 2.203-1.027 1.513-.977 3.65.117 4.969.59.712 1.525 1.172 2.501 1.229.919.053 1.77-.242 2.38-.823.621-.593.95-1.424.88-2.221a2.357 2.357 0 00-.71-1.472 1.125 1.125 0 00-1.003-.612c-.627 0-1.136.514-1.136 1.147s.51 1.148 1.136 1.148c.191 0 .374-.048.536-.137l.004.032c.038.432-.16.912-.517 1.253-.375.359-.906.54-1.502.5-.658-.039-1.28-.34-1.667-.806-.767-.925-.788-2.446-.048-3.537.737-1.086 1.871-1.685 3.194-1.685h33.141c-.338 5.84 2.693 11.807 7.597 14.911.117.074.241.149.373.227a15.406 15.406 0 01-11.32-.075.596.596 0 00-.178-.076l-.026-.008a14.232 14.232 0 01-1.749-.885c-2.72-1.632-5.23-4.846-4.315-8.047.449-1.57 1.747-2.87 3.307-3.311 1.558-.442 3.336-.013 4.529 1.092 1.425 1.32 1.846 3.588.959 5.16-.45.798-1.298 1.408-2.268 1.634a3.323 3.323 0 01-1.388.03 1.143 1.143 0 00-1.088-1.473c-.627 0-1.137.514-1.137 1.147 0 1.524 2.821 1.698 3.877 1.453 1.285-.299 2.416-1.123 3.026-2.203 1.167-2.068.658-4.914-1.185-6.622-1.486-1.377-3.702-1.913-5.643-1.361-1.943.55-3.559 2.169-4.119 4.125a6.193 6.193 0 00-.16 2.68c-.75-.952-1.588-1.949-2.554-2.819-2.165-1.949-4.688-2.843-6.922-2.454-1.286.225-2.377.855-3.072 1.775-.816 1.077-1.003 2.506-.477 3.64.587 1.266 2.085 1.978 3.338 1.588.678-.211 1.252-.761 1.536-1.471.345-.862.307-2.518-.973-2.518-.627 0-1.136.516-1.136 1.148 0 .558.396 1.024.92 1.126a1.262 1.262 0 01-.694.58c-.69.215-1.59-.233-1.926-.957-.336-.726-.197-1.697.347-2.416.508-.672 1.36-1.154 2.338-1.324 1.876-.332 4.04.461 5.938 2.169 1.172 1.056 2.174 2.352 3.145 3.608.444.575.904 1.17 1.381 1.743 1.949 2.344 3.781 3.705 5.739 4.272a16.558 16.558 0 006.38 1.271h.002c2.408 0 4.801-.521 6.926-1.507a16.55 16.55 0 006.927 1.507c2.201 0 4.408-.439 6.357-1.262 1.983-.576 3.814-1.937 5.763-4.281.477-.572.937-1.167 1.393-1.759.966-1.249 1.965-2.54 3.134-3.592 1.896-1.707 4.062-2.499 5.937-2.169.979.17 1.83.652 2.338 1.324.544.719.684 1.69.347 2.416-.341.737-1.224 1.174-1.927.957a1.26 1.26 0 01-.692-.58c.524-.102.92-.568.92-1.126 0-.632-.511-1.148-1.137-1.148-1.28 0-1.318 1.655-.973 2.517.284.711.858 1.261 1.537 1.472 1.253.389 2.751-.323 3.338-1.589.525-1.133.338-2.562-.478-3.64-.695-.92-1.787-1.549-3.071-1.774-2.235-.389-4.757.505-6.923 2.454-.964.869-1.802 1.866-2.554 2.819.143-.912.09-1.81-.159-2.68-.56-1.956-2.177-3.575-4.12-4.125-1.94-.552-4.157-.016-5.644 1.361-1.842 1.708-2.351 4.554-1.184 6.622.61 1.08 1.741 1.904 3.026 2.203 1.057.245 3.877.071 3.877-1.453 0-.633-.509-1.147-1.136-1.147a1.143 1.143 0 00-1.089 1.474 3.34 3.34 0 01-1.388-.031c-.97-.226-1.817-.836-2.267-1.634-.888-1.572-.467-3.839.957-5.16 1.194-1.104 2.971-1.533 4.531-1.092 1.559.441 2.857 1.741 3.306 3.311.916 3.201-1.595 6.415-4.315 8.047-.544.326-1.136.626-1.732.88l-.072.021a.572.572 0 00-.151.069 15.396 15.396 0 01-11.318.074c.132-.077.255-.152.373-.227 4.904-3.104 7.934-9.071 7.597-14.911h33.141c1.323 0 2.457.599 3.194 1.686.741 1.09.72 2.61-.048 3.536-.387.466-1.01.767-1.667.806-.592.039-1.125-.141-1.502-.5-.357-.341-.555-.821-.517-1.253l.004-.032c.162.089.345.137.536.137.627 0 1.137-.515 1.137-1.148 0-.633-.51-1.147-1.137-1.147-.425 0-.805.233-1.003.612a2.372 2.372 0 00-.709 1.472c-.07.797.259 1.628.881 2.221.608.581 1.455.875 2.379.823.976-.057 1.91-.517 2.5-1.229 1.094-1.319 1.145-3.456.117-4.969-.962-1.421-2.442-2.203-4.165-2.203h-34.34zM67.194 119.423h105.612v-1.188H67.194v1.188z"/><path fill-rule="evenodd" clip-rule="evenodd" d="M121.457 143.681c0 .811-.653 1.471-1.457 1.471-.803 0-1.457-.66-1.457-1.471 0-.437.59-1.576 1.457-2.826.867 1.25 1.457 2.389 1.457 2.826zM120 138.872l-.467.614c-.362.477-2.167 2.921-2.167 4.195 0 1.466 1.182 2.658 2.634 2.658s2.634-1.192 2.634-2.658c0-1.272-1.805-3.718-2.167-4.195l-.467-.614zM116.596 126.188c0-1.894 1.527-3.436 3.404-3.436s3.405 1.542 3.405 3.436c0 1.389-2.059 4.616-3.405 6.489-1.346-1.873-3.404-5.1-3.404-6.489zm3.404 8.46l.467-.615c.422-.556 4.114-5.495 4.114-7.845 0-2.549-2.055-4.624-4.581-4.624-2.526 0-4.581 2.075-4.581 4.624 0 2.36 3.693 7.291 4.114 7.845l.467.615zM100.866 47.038c0-10.649 8.583-19.312 19.134-19.312s19.134 8.663 19.134 19.312c0 10.648-8.583 19.312-19.134 19.312s-19.134-8.664-19.134-19.312zM120 67.538c11.199 0 20.311-9.197 20.311-20.5 0-11.304-9.112-20.5-20.311-20.5-11.2 0-20.31 9.197-20.31 20.5s9.11 20.5 20.31 20.5zM40 73.873h160v-1.188H40v1.188z"/><path fill-rule="evenodd" clip-rule="evenodd" d="M98.727 57.343c-1.566-1.384-3.03-2.299-4.446-3.184-.794-.496-1.615-1.009-2.444-1.597-1.732-1.232-2.962-3.07-3.373-5.04-.324-1.551.07-3.21 1.026-4.33.8-.936 1.995-1.477 3.159-1.477.29 0 .578.034.858.103 1.438.356 2.574 1.696 2.643 3.117.07 1.454-1.024 2.868-2.39 3.088-.672.11-1.4-.099-1.996-.57a2.717 2.717 0 01-.562-.603c.376-.19.627-.582.627-1.024 0-.633-.51-1.147-1.137-1.147s-1.137.514-1.137 1.147c0 .221.063.435.183.622.2.748.661 1.436 1.302 1.941.852.672 1.91.966 2.905.807 1.069-.172 2.048-.856 2.677-1.826.05 3.598.922 7.14 2.536 10.341a25.624 25.624 0 00-.431-.368zm47.328-8.148c.996.159 2.054-.135 2.905-.806a3.726 3.726 0 001.302-1.941c.12-.187.183-.4.183-.622 0-.633-.51-1.147-1.136-1.147a1.148 1.148 0 00-.511 2.172 2.7 2.7 0 01-.562.602c-.596.47-1.324.68-1.996.57-1.366-.22-2.46-1.634-2.39-3.088.069-1.42 1.206-2.76 2.642-3.117 1.405-.348 3.018.204 4.018 1.374.957 1.12 1.35 2.78 1.026 4.33-.411 1.971-1.641 3.809-3.373 5.04-.824.585-1.642 1.096-2.444 1.598-1.418.886-2.884 1.802-4.443 3.181-.145.12-.289.244-.434.37a23.711 23.711 0 002.536-10.341c.63.97 1.608 1.654 2.677 1.826zm-43.452 13.621l.466.495a.428.428 0 00.095.075 23.298 23.298 0 009.967 6.203H86.854c.443-.255.84-.565 1.174-.92 1.737-1.84 1.854-4.947.257-6.785-.81-.932-2.086-1.488-3.439-1.488-1.054.005-2.04.358-2.783.996a1.15 1.15 0 00-.705 1.058c0 .633.51 1.147 1.137 1.147s1.137-.514 1.137-1.147c0-.205-.053-.401-.152-.574.414-.19.886-.29 1.39-.293.995 0 1.94.406 2.53 1.084 1.214 1.396 1.11 3.77-.224 5.183-1.29 1.37-3.536 1.74-5.337.882-1.713-.815-2.965-2.668-3.19-4.72-.21-1.933.436-4 1.774-5.673a8.36 8.36 0 01.7-.76 11.32 11.32 0 012.488-1.746c2.648-1.306 5.866-1.554 8.828-.681 4.085 1.203 6.902 4.197 10.164 7.664zM77.48 64.142c.25 2.287 1.583 4.374 3.444 5.447h-9.808a8.43 8.43 0 00.424-.23c2.692-1.567 4.356-4.26 5.936-6.906a7.996 7.996 0 00.004 1.689zm20.316-17.104c0-12.357 9.961-22.41 22.204-22.41s22.204 10.053 22.204 22.41c0 12.356-9.961 22.41-22.204 22.41s-22.204-10.054-22.204-22.41zm64.728 15.414c1.579 2.647 3.244 5.34 5.936 6.907.137.08.278.156.423.23h-9.806c1.86-1.073 3.193-3.16 3.443-5.447.061-.555.061-1.12.004-1.69zm-25.785.719l.001.002-.002-.002h.001zm24.611.84c-.224 2.053-1.476 3.905-3.188 4.72-1.802.859-4.047.487-5.338-.88-1.335-1.414-1.437-3.788-.224-5.184.59-.678 1.536-1.084 2.548-1.084.49.003.958.103 1.373.293-.1.173-.153.37-.153.574 0 .633.51 1.147 1.137 1.147s1.137-.514 1.137-1.147a1.15 1.15 0 00-.706-1.058c-.742-.638-1.728-.991-2.782-.996h-.021c-1.331 0-2.607.556-3.418 1.488-1.598 1.838-1.48 4.945.257 6.786a5.15 5.15 0 001.174.919h-26.277a23.295 23.295 0 009.968-6.204.433.433 0 00.093-.074l.469-.497c3.262-3.466 6.079-6.46 10.162-7.662 2.961-.873 6.178-.626 8.825.68a11.256 11.256 0 012.484 1.74c.289.282.513.526.707.767 1.338 1.672 1.984 3.74 1.773 5.673zM47.899 70.777H192.1c1.723 0 3.202-.782 4.166-2.202 1.027-1.514.976-3.65-.117-4.969-.591-.712-1.525-1.172-2.502-1.23-.923-.053-1.766.24-2.379.823-.622.594-.951 1.425-.879 2.222a2.347 2.347 0 001.012 1.713c.168.21.422.334.688.334.488 0 .886-.4.886-.894a.892.892 0 00-.886-.894.872.872 0 00-.384.089 1.143 1.143 0 01-.144-.454c-.039-.432.159-.912.516-1.253.374-.356.911-.533 1.502-.5.658.039 1.281.34 1.667.806.767.926.788 2.446.048 3.536-.736 1.087-1.871 1.686-3.194 1.686h-14.572c2.284-1.201 4.003-3.334 4.593-5.772.75-3.096-.441-6.541-2.896-8.38-2.557-1.913-6.315-1.892-8.74.05-2.266 1.813-3.064 5.137-1.818 7.564.66 1.289 1.954 2.272 3.46 2.631 1.235.294 2.464.133 3.468-.452a1.14 1.14 0 00.907-1.12c0-.633-.51-1.148-1.137-1.148a1.144 1.144 0 00-1.068 1.54 3.73 3.73 0 01-1.899.024c-1.177-.28-2.181-1.035-2.687-2.02-.995-1.942-.334-4.616 1.505-6.09 2.022-1.619 5.164-1.63 7.308-.024 2.085 1.56 3.094 4.498 2.454 7.143-.621 2.568-2.715 4.749-5.334 5.555-2.167.667-4.634.383-6.597-.76-2.524-1.47-4.131-4.165-5.685-6.772l-.092-.154c-.166-.278-.331-.555-.498-.83-.829-1.368-1.764-2.562-2.773-3.542-1.014-1.08-2.273-1.942-3.742-2.56a11.726 11.726 0 00-2.716-.813l-.103-.002a13.81 13.81 0 00-4.816.029l.217-.154c1.973-1.402 3.375-3.503 3.848-5.766.397-1.906-.096-3.955-1.287-5.35-1.281-1.499-3.366-2.203-5.189-1.752-1.379.343-2.549 1.34-3.135 2.61C141.268 31.9 131.515 23.443 120 23.443c-11.515 0-21.268 8.458-23.076 19.832-.587-1.27-1.757-2.267-3.136-2.61-1.822-.45-3.907.253-5.188 1.752-1.192 1.395-1.685 3.445-1.288 5.35.472 2.262 1.875 4.364 3.848 5.767l.218.153a13.821 13.821 0 00-4.817-.03l-.104.004c-.937.16-1.85.433-2.71.809-1.472.619-2.733 1.481-3.739 2.554-1.016.988-1.952 2.183-2.781 3.55-.187.31-.374.622-.56.936l-.031.051c-1.554 2.606-3.16 5.3-5.684 6.77-1.964 1.143-4.429 1.427-6.597.76-2.619-.806-4.712-2.987-5.334-5.556-.64-2.644.37-5.582 2.454-7.142 2.145-1.606 5.286-1.596 7.309.024 1.84 1.473 2.5 4.148 1.504 6.09-.505.984-1.509 1.74-2.686 2.02a3.734 3.734 0 01-1.9-.024 1.147 1.147 0 00-1.067-1.54c-.627 0-1.137.514-1.137 1.147 0 .547.378 1.012.906 1.12 1.004.586 2.234.747 3.468.453 1.507-.359 2.8-1.342 3.46-2.63 1.246-2.429.448-5.752-1.817-7.566-2.425-1.942-6.183-1.963-8.741-.048-2.454 1.837-3.645 5.282-2.897 8.378.59 2.438 2.31 4.571 4.594 5.772H47.899c-1.323 0-2.457-.598-3.195-1.685-.74-1.09-.719-2.61.049-3.536.386-.467 1.01-.768 1.668-.806.59-.034 1.126.142 1.501.5.357.34.555.82.516 1.252a1.14 1.14 0 01-.144.455.87.87 0 00-.384-.09.891.891 0 00-.886.894.89.89 0 00.886.894c.266 0 .52-.123.688-.333a2.347 2.347 0 001.012-1.713c.071-.798-.258-1.629-.88-2.222-.61-.583-1.453-.876-2.379-.823-.975.058-1.91.517-2.5 1.23-1.094 1.318-1.144 3.455-.117 4.969.963 1.42 2.441 2.202 4.165 2.202z"/><path fill-rule="evenodd" clip-rule="evenodd" d="M145.295 64.618c-.306.31-1.522.693-3.011.96.263-1.504.644-2.73.951-3.04a1.44 1.44 0 011.03-.43c.389 0 .755.152 1.03.43a1.482 1.482 0 010 2.08zm-1.03-3.698c-.703 0-1.365.277-1.862.779-.896.903-1.33 3.917-1.408 4.513l-.1.768.761-.102c.589-.079 3.575-.517 4.471-1.42.497-.501.77-1.17.77-1.88a2.65 2.65 0 00-.77-1.88 2.603 2.603 0 00-1.862-.778zM94.705 62.538a1.44 1.44 0 011.03-.43c.39 0 .756.153 1.03.43.307.31.688 1.536.95 3.04-1.488-.267-2.704-.65-3.01-.96a1.481 1.481 0 010-2.08zm3.64 4.34l.76.102-.1-.769c-.078-.595-.514-3.61-1.407-4.512a2.604 2.604 0 00-1.863-.778c-.704 0-1.365.276-1.862.778a2.679 2.679 0 000 3.759c.895.903 3.882 1.341 4.471 1.42zM96.715 36.355c.49 0 .888-.402.888-.897a.893.893 0 00-.888-.896.893.893 0 00-.888.896c0 .494.398.897.888.897zM143.756 37.375a.892.892 0 00.885-.974.885.885 0 00-1.565-.498.903.903 0 00.11 1.263c.166.14.368.209.57.209zM141.135 33.252a.888.888 0 001.213-.328.899.899 0 00-.325-1.224.88.88 0 00-1.213.328.9.9 0 00.325 1.224zM138.442 29.758a.889.889 0 001.138-.536.9.9 0 00-.531-1.15.887.887 0 00-1.138.537.9.9 0 00.531 1.149zM135.189 26.788a.876.876 0 00.663-.148.893.893 0 00.365-.58.896.896 0 00-.72-1.037.892.892 0 00-1.029.727.894.894 0 00.721 1.038zM131.474 24.434a.894.894 0 00.888-.896.893.893 0 00-.888-.897.893.893 0 00-.888.897c0 .494.398.896.888.896zM127.256 22.78a.883.883 0 00.728-.382.897.897 0 00-.219-1.248.875.875 0 00-.663-.148.895.895 0 00-.721 1.039c.076.434.452.74.875.74zM122.443 21.807a.876.876 0 00.679.03.9.9 0 00.53-1.15.886.886 0 00-1.639-.071.899.899 0 00.43 1.19zM118.296 21.792c.15 0 .302-.038.442-.12a.902.902 0 00.325-1.224.885.885 0 00-1.213-.329.902.902 0 00-.325 1.225.886.886 0 00.771.448zM113.823 22.488a.889.889 0 00.884-.818.891.891 0 00-1.456-.764.903.903 0 00-.109 1.263c.175.21.427.32.681.32zM109.537 23.958l.078-.003a.877.877 0 00.603-.317.903.903 0 00-.109-1.263.883.883 0 00-1.251.11.903.903 0 00.109 1.263c.161.137.361.21.57.21zM105.128 26.036a.874.874 0 00.674.09.897.897 0 00.627-1.098.884.884 0 00-1.626-.216.902.902 0 00.325 1.224zM101.74 28.96a.868.868 0 00.679-.029.899.899 0 00-.072-1.654.886.886 0 00-1.138.535.896.896 0 00.531 1.149zM98.907 32.436a.885.885 0 001.03-.727.897.897 0 00-.721-1.038.89.89 0 00-1.029.727.897.897 0 00.72 1.039zM114.529 37.245c-.22-.656-.139-1.336.305-1.875 1.049-1.272 3.184-.957 3.428.994-.709-1.628-2.464-1.803-3.343-.362-.21.346-.372.818-.327 1.228l.003.03-.056.012-.01-.028zm1.159 4.607l-.023.02c-.82.7-1.47 1.097-2.484 1.425-.351.113-.698.25-1.06.32l-.254.048c.157-.258 3.801-1.84 3.821-1.813zm15.306-3.666c.276.025.785.066.997-.158.216-.228.074-.678-.021-.929l-.041-.108.091.07c.285.225.619.527.797.85.096.175.169.407.053.592-.141.229-.478.25-.716.223-.414-.047-.838-.25-1.181-.48l-.104-.071.125.011zm-15.902.43c.309.091.626.186.927.306.214.085.415.184.602.319.186.134.348.294.501.464.218.238.422.49.629.737l.02.023-.043.043-.022-.02c-.473-.42-.956-.858-1.482-1.209a6.571 6.571 0 00-1.154-.603l-.028-.011.02-.059.03.01zm-7.045 12.742c-.125.125-.261.254-.377.387-.025.029-.112.129-.097.173.026.072.385.093.446.098l.124.01-.114.052c-.414.191-1.058.501-1.506.323l-.013-.005-.485-1.079c.06.026.122.049.183.07.616.201 1.294.147 1.895-.085l-.056.056zm.142-.232c-.605.266-1.308.344-1.942.137a1.653 1.653 0 01-.628-.359c-.126-.124-.233-.292-.221-.478.014-.198.159-.341.32-.435.269-.157.638-.22.942-.248l.137-.013-.118.073c-.187.116-.439.254-.592.413-.046.05-.102.12-.1.193.005.169.334.27.456.305.811.235 1.54.014 2.246-.404l.034-.02.013.038c.105.31.14.686.17 1.013.024.272.042.55.081.82.054.368.138.703.255 1.056.103.309.215.61.308.924l.039.133-.094-.101c-.73-.791-1.021-2.021-1.306-3.046zm-.974-5.805c.17-.019.559.143.734.206.436.158.869.328 1.298.505.495.205 1.531.607 1.902.967-1.068-.255-3.467-.585-3.934-1.678zm12.374 8.19a2.042 2.042 0 01-.417-.07 5.145 5.145 0 01-.488-.153 7.15 7.15 0 01-.511-.208 3.567 3.567 0 01-.385-.198c-.278-.17-.557-.336-.827-.52-.236-.161-.542-.382-.717-.61l-.074-.096.111.047c.071.029.535.224.599.132.042-.057-.066-.257-.094-.308-.102-.192-.217-.376-.316-.57l-.014-.025.048-.033.02.023c.191.228.413.445.63.648a17.325 17.325 0 001.706 1.398c.238.171.489.341.746.482l.121.066-.138-.005zm-6.523 1.064c-.066-.402-.179-.542-.071-.975l.016-.065.041.053c.214.283.31.526.667.613.146.035.298.062.446.093.205.042.752.224.753.46.002.203-.415.295-.557.326-.367.078-.78.096-1.154.1-.536.004-1.417.12-1.794-.306.341-.195.632-.26 1.024-.26.125 0 .253.009.378.005a.645.645 0 00.251-.044zm3.624-17.868l-1.382.08c1.073-.468 2.676-.492 3.879.407-.622-.239-1.227-.428-1.901-.415.381.1.601.098.769.493l.216.53.013.03-.03.013c-.273.115-.311.175-.373.453-.201.906-.673.712-1.48.492l-.086-.024.081-.037c.396-.182.709-.32.985-.672-.073-.276-.223-.471-.436-.654l-.24-.199a.4.4 0 01-.137-.2c-.023-.11.047-.215.122-.297zm-2.675 9.093c2.169.215 1.964 2.214 1.261 3.745-.373.812-.892 1.555-1.649 2.042.908-1.64 2.511-4.376.388-5.787zm15.185-8.752c-2.02-1.662-6.151.267-6.074-2.902.316.652.75.9 1.419 1.1.357.106.754.147 1.123.185 1.355.137 2.795.241 3.581 1.575l.093.158-.142-.116zm-5.495.318l-.299.07c-.418.1-.846.21-1.272.257-.364.04-.759.036-1.095-.128-.571-.28-.734-.884-.835-1.462.151.209.267.36.494.5.391.242.882.284 1.33.276.278-.006.557-.032.833-.063.306-.034.61-.076.915-.115 1.544-.198 2.829-.318 4.234.304-1.602-.203-2.779.013-4.305.361zm-7.313 13.294a8.38 8.38 0 01-.503.567c-.219.229-.447.451-.681.665a9.988 9.988 0 01-.671.563 4.038 4.038 0 01-.616.398l-.026.012-.031-.047.022-.019c1.402-1.214 3.472-4.234 2.195-6.102-.505-.738-1.152-.947-1.939-1.246 2.986-.14 4.2 2.745 2.25 5.209zm5.37 1.94c-1.199 2.896-8.312 6.192-11.048 6.595 4.02-1.823 7.735-3.575 11.048-6.595zm-11.182-4.37c.09.176.2.31.347.44.109.095.237.185.325.299.182.239.129.559.059.83-.122.478-.359 1.206-.827 1.441l-.012.006-.013-.004c-.752-.257-1.084-1.296-1.209-2.02a7.527 7.527 0 01-.571.207 5.382 5.382 0 01-.562.139 3.375 3.375 0 01-.395.044l-.351.02c-.066.003-.155.005-.219.019l-.028.007-.019-.055.026-.013c.258-.126.518-.252.772-.386.2-.105.397-.218.583-.346.334-.23.619-.504.894-.802.06-.065.115-.14.169-.212a7.52 7.52 0 01.216-.28c.116-.144.292-.347.465-.419.279-.116.412.157.477.385.033.113.052.221.005.332l-.073.147a.77.77 0 00-.059.22zm2.849 2.086a14.12 14.12 0 00-.162.611c-.047.202-.09.404-.129.607-.083.425-.172.844-.212 1.275l-.01.11-.05-.097a2.896 2.896 0 01-.187-.475 6.375 6.375 0 01-.153-.608 13.22 13.22 0 01-.206-1.443 16.734 16.734 0 01-.066-1.343c-.002-.357.007-.731.056-1.085.021-.155.057-.422.208-.51.075-.045.167-.04.25-.025a2 2 0 01.371.123c.53.214.918.372.839-.417-.071-.703-.733-1.384-1.25-1.808a7.114 7.114 0 00-.868-.609c-.251-.15-.52-.29-.793-.396l-.027-.01.015-.056.028.004c1.291.185 3.192 1.554 3.23 2.983.008.271-.039.555-.098.819a8.853 8.853 0 01-.263.903c-.164.487-.356.962-.523 1.448zm1.546-11.908c-.947.015-1.866.44-2.608 1.013-.663.513-1.263 1.205-1.631 1.966-.296.615-.486 1.377-.236 2.04.081.216.205.407.366.571l.04.04-.055.015c-.442.108-.834.097-1.247-.1a4.037 4.037 0 01-.533-.321c-.216-.149-.449-.274-.718-.27-.17 0-.34.05-.501.1-.233.072-.46.148-.697.207l-.079.02.044-.069c.152-.239.315-.472.482-.7.229-.312.468-.616.714-.913a16.694 16.694 0 011.955-2.01c1.24-1.063 3.019-2.18 4.713-1.653l.193.06-.202.004zm10.63 4.743c.261.297.631.545.973.736.5.28 1.046.498 1.592.67 1.405.444 2.938.624 4.409.578-.209-.218-.655-.378-.912-.468-.513-.177-1.038-.32-1.553-.49-.462-.152-.941-.33-1.363-.575-.354-.206-.704-.484-.875-.87-.162-.366-.125-.698-.013-1.068.342 1.159 2.42 1.555 3.482 1.423.273-.033.667-.112.793-.393.075-.165.049-.368.011-.538-.054-.246-.147-.494-.229-.731-.096-.28-.182-.63-.373-.86a.802.802 0 00-.178-.16c-.165-.106-.29-.13-.475-.167a.953.953 0 01-.445-.193l-.01-.007-.002-.012a.97.97 0 01.025-.493c.05-.17.118-.321.151-.498a1.726 1.726 0 00-.03-.704c-.085.099-.171.198-.275.275a.746.746 0 01-.616.132c-.396-.072-.676-.248-.955-.527.454.163 1.265.56 1.298-.19.007-.13-.011-.268-.021-.397-.047-.661.109-1.034.762-1.245.115.367.1 1.399-.023 1.76.085.207.218.416.343.6.181.265.379.52.58.77.495.614 1.02 1.208 1.535 1.805.284.328.567.658.843.993.255.307.506.62.743.941.278.379.739 1.033.807 1.507v.008l-.002.008a.788.788 0 01-.28.407c-.05.04-.1.075-.146.121a.886.886 0 00-.153.212 2.517 2.517 0 00-.103.225c-.026.064-.053.13-.091.187-.11.163-.301.221-.483.258-.263.055-.444-.005-.682-.106a1.98 1.98 0 00-.237-.089l-.244-.07a.515.515 0 01-.15-.068.59.59 0 01-.139-.163c-.064-.102-.123-.21-.185-.315-.552.038-1.128.012-1.679-.037a16.138 16.138 0 01-2.05-.316c-1.153-.255-2.808-.765-3.629-1.677-.468.378-1.071 1.328-1.128 1.92-.096.996.539 1.888.537 2.87.166-.034.335-.06.5-.084.252-.038.505-.071.757-.1.251-.03.502-.054.753-.07a3.38 3.38 0 01.552-.003.7.7 0 01.305.092c.143.09.267.293.362.432.178.259.35.558.342.883-.007.28-.149.57-.271.816l-.277.558c-.119.247-.231.496-.335.75-.101.244-.204.485-.298.731-.049.13-.096.263-.137.396a2.16 2.16 0 00-.08.336c-.021.153-.028.304-.04.458a1.234 1.234 0 01-.07.371c-.116.293-.427.44-.703.543-.269.1-.461.221-.648.44l-.252.311c-.113.133-.232.25-.369.356a7.548 7.548 0 01-.585.421c-.15.095-.309.188-.474.257-.189.08-.459.158-.645.028-.193-.135-.213-.435-.206-.649a3.48 3.48 0 01.069-.557c.047-.24.109-.477.177-.71.069-.238.182-.5.441-.568.175-.046.379-.003.56-.014.257-.016.434-.134.589-.338a23.98 23.98 0 00.92-1.347c.155-.246.306-.496.45-.75.117-.209.234-.425.33-.645.046-.103.073-.214.115-.318a3.842 3.842 0 00-.335.208c-.168.112-.332.23-.498.345a6.454 6.454 0 01-.575.364c-.619.334-1.244.584-1.937.712l-.138.025.115-.084c.136-.101.287-.191.436-.275.173-.098.348-.19.525-.28.288-.147.58-.287.862-.442.308-.17.611-.345.913-.522.149-.087.303-.165.447-.258.245-.158.275-.272.244-.34-.035-.077-.16-.097-.367-.052-.299.065-.691.321-.798.37-.451.207-.892.462-1.084.573-.384.223-.761.458-1.136.696-.261.165-.521.337-.785.497-.674.408-1.636.922-2.447.728-.683-.162-1.075-.774-1.319-1.392l-.06-.153.113.118c.414.43.907.71 1.505.76 1.457.118 3.054-1.18 4.16-2.021.566-.43 1.164-.814 1.736-1.236-.495-.074-1.034-.025-1.528.019-.68.06-1.536.16-2.179-.113l-.112-.048.121-.014c.316-.038.642-.034.96-.052.287-.016.598-.046.871-.142l.01-.11c.025-.505-.262-1.063-.457-1.516-.201-.467-.388-.973-.297-1.489.06-.343.248-.676.45-.954.178-.246.383-.474.597-.688.142-.143.288-.275.436-.41a37.33 37.33 0 01-.705-.816c-.277-.325-.554-.653-.835-.975-.337-.388-.68-.773-1.041-1.139-.158-.159-.32-.316-.488-.464a4.495 4.495 0 00-.429-.337 1.134 1.134 0 00-.59.33 1.72 1.72 0 00-.313.523c-.093.225-.165.462-.243.693a7.19 7.19 0 01-.321.811 4.579 4.579 0 01-.544.878c-.153.196-.347.386-.607.405-.219.015-.484-.097-.692-.162a7.209 7.209 0 01-.697-.264c-.142-.06-.298-.129-.452-.148a.76.76 0 00-.292.024c-.157.04-.313.12-.454.197a8.983 8.983 0 00-.69.438c-.414.28-.83.582-1.201.92a5.584 5.584 0 00-.659.718l-.208.274-.145.192.088-.224c.428-1.087 1.597-2.427 2.69-2.902-.516-.248-1.364-.752-1.626-1.227l-.067-.12.113.077c.09.062.195.118.292.17.159.085.322.166.484.244.428.202.867.388 1.311.55.515.188 1.53.523 2.092.39l-.151-.337a7.003 7.003 0 01-.118-.269c-.045-.11-.095-.243-.068-.364.022-.107.102-.195.177-.27.134-.132.287-.255.428-.38.2-.175.404-.381.475-.647.034-.132.036-.27.03-.404-.008-.172-.029-.345-.045-.517-.219.05-.455.155-.656.248-.285.135-.564.282-.845.428-.158.083-.318.165-.478.244l-.026.013-.031-.05.023-.017c.23-.179.462-.36.707-.517.165-.104.333-.196.507-.283.258-.13.522-.253.784-.375a.528.528 0 00.171-.119l.096-.114a.291.291 0 01.187-.081 1.7 1.7 0 01.422.03c.182.028.413.076.571.179a.65.65 0 01.203.223.633.633 0 00.083.107c.449-.207.902-.407 1.359-.593.383-.155.77-.3 1.163-.425 1.981-.627 3.362-.398 5.364-.002-2.026.2-3.212-.184-5.35.51-.671.218-1.318.497-1.957.796a37.76 37.76 0 011.734 1.8c.58.64 1.144 1.296 1.711 1.948.74-.524 1.469-.646 2.174-.51-.808.158-1.327.285-1.851.863z"/></g><defs><clipPath id="aclip0_2162_3174"><path fill="#fff" transform="translate(40 20)" d="M0 0h160v126.667H0z"/></clipPath></defs></svg><svg fill="none" viewBox="0 0 161 32" id="logo-mob" xmlns="http://www.w3.org/2000/svg"><g clip-path="url(#bclip0_2162_3352)" fill="#C7A17A"><path d="M16.362 32c-.5 0-.935-.072-1.308-.215a2.48 2.48 0 01-.93-.61 2.485 2.485 0 01-.55-.947 3.898 3.898 0 01-.183-1.225c0-.442.065-.845.194-1.21.128-.368.32-.681.572-.945a2.6 2.6 0 01.943-.613 3.608 3.608 0 011.306-.22c.336 0 .631.026.881.074.252.05.463.118.632.202.17.085.296.184.38.3.085.115.128.24.128.372a.562.562 0 01-.068.27.64.64 0 01-.202.22 1.03 1.03 0 01-.327.149 1.638 1.638 0 01-.45.054 1.61 1.61 0 00-.059-.454.936.936 0 00-.183-.354.837.837 0 00-.313-.229 1.125 1.125 0 00-.446-.081c-.295 0-.545.054-.753.163a1.31 1.31 0 00-.504.478c-.131.21-.225.468-.284.774-.06.306-.089.656-.089 1.05 0 .392.031.74.093 1.044.062.303.161.559.3.767.137.207.317.364.536.471.221.108.489.162.808.162.1 0 .2-.004.3-.012.1-.008.197-.023.292-.044v-1.2c0-.218-.049-.369-.147-.455-.097-.084-.24-.127-.43-.127h-.106v-.43h2.54v.43h-.107c-.08 0-.152.01-.213.03a.324.324 0 00-.15.102.477.477 0 00-.087.188 1.381 1.381 0 00-.027.294v1.338a4.68 4.68 0 01-.954.329 4.65 4.65 0 01-1.035.11zm123.735-.081l-3.15-4.491v3.527c0 .117.012.21.033.279a.41.41 0 00.089.159.265.265 0 00.132.075c.052.01.105.017.161.017h.339v.434h-2.111v-.434h.339a.775.775 0 00.163-.017.279.279 0 00.132-.075.375.375 0 00.089-.16c.02-.069.031-.16.031-.278v-3.93a.804.804 0 00-.034-.26.356.356 0 00-.09-.15.286.286 0 00-.132-.069.67.67 0 00-.159-.02h-.339v-.429h1.794l2.852 4.07v-3.141a.804.804 0 00-.034-.26.366.366 0 00-.09-.15.284.284 0 00-.133-.07.656.656 0 00-.158-.02h-.339v-.429h2.111v.43h-.339a.656.656 0 00-.158.019.266.266 0 00-.133.073.375.375 0 00-.089.16c-.02.069-.031.161-.031.278v4.862h-.746zm4.755-.498h1.617a.423.423 0 00.359-.175.696.696 0 00.101-.197c.024-.076.043-.159.056-.248l.064-.383h.56l-.06 1.5h-4.733v-.433h.34a.774.774 0 00.162-.016.304.304 0 00.132-.065.335.335 0 00.089-.148.898.898 0 00.031-.257v-3.942c0-.117-.011-.21-.031-.279a.396.396 0 00-.087-.159.252.252 0 00-.131-.073.684.684 0 00-.165-.02h-.34v-.429h4.487l.031 1.5h-.564l-.039-.385c-.022-.199-.071-.352-.15-.458-.079-.106-.201-.16-.367-.16h-1.362v2.039h1.918v.49h-1.918v2.298zm-67.561-1.363c0-.137.016-.252.048-.346a.543.543 0 01.137-.223.493.493 0 01.207-.12.922.922 0 01.515 0c.08.023.149.063.208.12.06.055.106.13.14.223a.99.99 0 01.053.346.98.98 0 01-.052.343.595.595 0 01-.141.224.512.512 0 01-.208.12.922.922 0 01-.515 0 .5.5 0 01-.207-.12.562.562 0 01-.137-.224 1.053 1.053 0 01-.048-.343zm-57.05 1.427h.34a.754.754 0 00.159-.016.304.304 0 00.132-.065.336.336 0 00.09-.148.802.802 0 00.034-.257v-3.973a.812.812 0 00-.034-.26.344.344 0 00-.09-.15.286.286 0 00-.132-.07.667.667 0 00-.159-.02h-.34v-.429h2.604c.763 0 1.323.13 1.679.387.357.258.535.632.535 1.123 0 .217-.032.406-.095.574a1.506 1.506 0 01-.604.755c-.13.087-.265.158-.402.213l.962 1.672c.068.116.136.216.199.3.065.083.13.152.194.206a.68.68 0 00.199.12c.068.025.14.038.217.038h.03v.434h-.263c-.243 0-.453-.01-.633-.028a1.793 1.793 0 01-.473-.11 1.082 1.082 0 01-.35-.224c-.1-.097-.192-.22-.275-.37l-.959-1.795h-.537V31c0 .107.012.191.034.257a.334.334 0 00.091.148.3.3 0 00.132.065c.05.01.102.016.158.016h.347v.434h-2.79v-.434zm2.028-2.567h.454c.187 0 .343-.025.469-.076a.678.678 0 00.298-.224c.076-.1.13-.226.164-.375.032-.15.048-.325.048-.525 0-.206-.018-.381-.055-.525a.843.843 0 00-.174-.352.658.658 0 00-.307-.2 1.507 1.507 0 00-.458-.06h-.438v2.337zm4.544 3v-.433h.339c.06 0 .116-.007.165-.017a.256.256 0 00.13-.075.381.381 0 00.088-.16c.02-.069.032-.16.032-.278v-3.894c0-.117-.012-.21-.032-.279a.381.381 0 00-.087-.159.248.248 0 00-.13-.073.68.68 0 00-.166-.02h-.34v-.433h2.79v.434h-.34a.698.698 0 00-.164.02.252.252 0 00-.131.072.376.376 0 00-.087.16.967.967 0 00-.032.278v3.894c0 .117.01.21.032.279.02.069.05.122.087.159.036.038.08.063.131.075a.79.79 0 00.165.017h.339v.434h-2.79zm4.097 0v-.433h.34c.06 0 .115-.007.165-.017a.256.256 0 00.13-.075.381.381 0 00.088-.16c.02-.069.031-.16.031-.278v-3.898c0-.117-.01-.21-.031-.279a.381.381 0 00-.088-.159.248.248 0 00-.13-.073.68.68 0 00-.166-.02h-.339v-.429h2.79v.43h-.34a.68.68 0 00-.16.019.267.267 0 00-.132.07.368.368 0 00-.089.15.801.801 0 00-.034.26v4.395h1.503c.19 0 .336-.06.441-.18.107-.121.182-.297.23-.528l.13-.613h.454l-.06 1.819H30.91zm6.141 0v-.433h.34c.06 0 .115-.007.165-.017a.256.256 0 00.13-.075.381.381 0 00.088-.16c.02-.069.031-.16.031-.278v-3.898c0-.117-.01-.21-.03-.279a.381.381 0 00-.088-.159.246.246 0 00-.131-.073.68.68 0 00-.165-.02h-.34v-.429h2.79v.43h-.34a.68.68 0 00-.16.019.269.269 0 00-.132.07.367.367 0 00-.088.15.801.801 0 00-.034.26v4.395h1.503c.19 0 .336-.06.44-.18.107-.121.182-.297.23-.528l.13-.613h.454l-.06 1.819h-4.733zm12.783 0l-.556-.596c-.1.1-.212.193-.334.274a2.405 2.405 0 01-.883.353c-.173.035-.36.051-.562.051-.331 0-.624-.04-.88-.116a1.788 1.788 0 01-.642-.342 1.41 1.41 0 01-.395-.546 1.883 1.883 0 01-.134-.732c0-.24.037-.444.111-.612.076-.168.177-.314.302-.437a1.85 1.85 0 01.44-.316c.167-.085.342-.166.525-.24a4.402 4.402 0 01-.273-.364 2.267 2.267 0 01-.193-.344 1.73 1.73 0 01-.145-.736 1.046 1.046 0 01.408-.868c.136-.107.304-.188.508-.246.202-.057.437-.085.705-.085.26 0 .487.03.68.091.193.061.354.146.48.252a1.042 1.042 0 01.386.814 1.154 1.154 0 01-.302.814 1.83 1.83 0 01-.383.318 4.67 4.67 0 01-.545.294l.06.06 1.144 1.213c.034-.189.056-.375.067-.56.011-.184.015-.353.015-.508v-.358h1.769v.429h-.127c-.088 0-.176.005-.262.016a.72.72 0 00-.238.074.6.6 0 00-.195.168.827.827 0 00-.137.296 9.881 9.881 0 01-.15.485 4.955 4.955 0 01-.205.52l.805.847c.077.083.17.138.28.163.11.028.238.04.382.04h.076v.434h-1.602zm-3.199-1.615c0 .163.026.314.077.452.05.14.122.262.215.365a.97.97 0 00.337.246c.133.06.28.09.44.09.287 0 .528-.049.726-.143.196-.094.36-.222.492-.381l-1.728-1.858a1.365 1.365 0 00-.278.26 1.28 1.28 0 00-.258.613 2.775 2.775 0 00-.023.356zm1.768-3.121c0-.095-.008-.184-.026-.266a.579.579 0 00-.087-.215.442.442 0 00-.174-.144.673.673 0 00-.28-.052.506.506 0 00-.234.052.44.44 0 00-.164.144.66.66 0 00-.095.217 1.082 1.082 0 00-.032.272 1.152 1.152 0 00.125.52c.04.083.093.167.156.252.062.086.136.175.221.272.113-.064.207-.132.283-.204a.904.904 0 00.279-.51c.018-.1.028-.213.028-.338zm10.988.397c0 .18-.024.337-.072.471a1.05 1.05 0 01-.208.347c-.09.096-.196.179-.322.248a2.47 2.47 0 01-.416.176v.039c.186.047.357.113.51.197.154.085.286.186.398.307.111.12.198.26.26.42.061.159.093.338.093.538 0 .536-.194.936-.58 1.2-.387.265-.963.397-1.731.397h-2.604v-.434h.333c.06 0 .116-.007.167-.017a.261.261 0 00.132-.075.37.37 0 00.089-.16.92.92 0 00.034-.278V27.05a.854.854 0 00-.034-.265.374.374 0 00-.09-.156.3.3 0 00-.135-.078.578.578 0 00-.163-.023h-.333v-.43h2.36c.768 0 1.345.12 1.732.36.386.237.58.612.58 1.122zm-2.644 3.842h.536c.179 0 .33-.02.458-.06a.67.67 0 00.306-.193.815.815 0 00.173-.349c.034-.142.052-.318.052-.526 0-.198-.015-.372-.047-.518a.857.857 0 00-.162-.366.697.697 0 00-.298-.215 1.313 1.313 0 00-.466-.072h-.552v2.3zm0-2.796h.308c.19 0 .348-.02.471-.06a.655.655 0 00.3-.185.722.722 0 00.16-.324c.032-.134.048-.293.048-.479s-.018-.34-.053-.466a.667.667 0 00-.172-.303.67.67 0 00-.308-.165 1.86 1.86 0 00-.462-.05h-.292v2.032zm5.632 1.377l-.233.702a3.853 3.853 0 00-.066.233 1.03 1.03 0 00-.033.233.293.293 0 00.114.237.432.432 0 00.253.078h.34v.434H60.65v-.434h.1c.07 0 .135-.008.195-.025a.431.431 0 00.165-.089.704.704 0 00.146-.18c.045-.078.092-.177.14-.3l1.751-4.794h1.108l1.688 4.802c.04.115.08.21.124.284a.679.679 0 00.143.18.46.46 0 00.163.093c.058.02.118.029.181.029h.147v.434h-2.667v-.434h.315c.04 0 .081-.007.123-.017a.336.336 0 00.112-.058.292.292 0 00.081-.096.321.321 0 00.032-.144.807.807 0 00-.023-.192l-.047-.159-.285-.817H62.38zm1.376-1.834l-.089-.293-.09-.313-.088-.316-.072-.3-.082.27-.101.303-.107.311-.1.298-.477 1.378h1.631l-.425-1.338zm4.031 3.317h.34a.76.76 0 00.159-.016.304.304 0 00.131-.065.336.336 0 00.09-.148.79.79 0 00.034-.257v-3.973a.801.801 0 00-.034-.26.346.346 0 00-.09-.15.286.286 0 00-.131-.07.672.672 0 00-.159-.02h-.34v-.429h2.604c.763 0 1.322.13 1.679.387.357.258.535.632.535 1.123 0 .217-.032.406-.095.574a1.508 1.508 0 01-.604.755c-.13.087-.265.158-.402.213l.962 1.672c.068.116.136.216.2.3.064.083.128.152.193.206.065.055.13.094.2.12.068.025.14.038.216.038h.03v.434h-.263c-.242 0-.453-.01-.633-.028a1.793 1.793 0 01-.473-.11 1.082 1.082 0 01-.35-.224c-.1-.097-.192-.22-.276-.37l-.958-1.795h-.537V31c0 .107.012.191.034.257a.335.335 0 00.091.148.298.298 0 00.132.065c.05.01.102.016.157.016h.348v.434h-2.79v-.434zm2.028-2.567h.454c.187 0 .343-.025.468-.076a.68.68 0 00.299-.224c.076-.1.13-.226.163-.375.032-.15.049-.325.049-.525 0-.206-.018-.381-.056-.525a.843.843 0 00-.174-.352.659.659 0 00-.306-.2 1.51 1.51 0 00-.458-.06h-.44v2.337zm18.056 3v-.433h.078c.085 0 .16-.005.224-.016a.344.344 0 00.159-.064.28.28 0 00.096-.137c.02-.06.03-.139.03-.237v-4.13l-1.628 5.018h-.549l-1.708-5.017v4.053c0 .117.014.21.042.279a.35.35 0 00.118.159.42.42 0 00.187.075c.074.01.158.017.253.017h.048v.434h-2.005v-.434h.34a.776.776 0 00.162-.016.302.302 0 00.132-.065.328.328 0 00.089-.148.893.893 0 00.031-.257v-3.973a.905.905 0 00-.031-.26.338.338 0 00-.09-.15.284.284 0 00-.131-.07.685.685 0 00-.163-.02h-.339v-.429h2.328l1.34 3.938 1.286-3.938h2.285v.43h-.34a.666.666 0 00-.16.019.249.249 0 00-.132.073.385.385 0 00-.087.16c-.02.069-.031.161-.031.278v3.898c0 .117.011.21.031.279.022.069.051.122.087.159a.26.26 0 00.131.075c.05.01.104.017.162.017h.339v.434H87.87zm5.931-.497h1.617a.436.436 0 00.21-.046.432.432 0 00.15-.13.678.678 0 00.1-.196c.025-.076.044-.159.057-.248l.064-.383h.56l-.06 1.5h-4.733v-.433h.34a.776.776 0 00.162-.016.304.304 0 00.132-.065.33.33 0 00.089-.148.88.88 0 00.03-.257v-3.942c0-.117-.01-.21-.03-.279a.385.385 0 00-.088-.159.248.248 0 00-.13-.073.682.682 0 00-.165-.02h-.34v-.429h4.487l.031 1.5h-.564l-.039-.385c-.021-.199-.071-.352-.15-.458-.079-.106-.202-.16-.367-.16h-1.362v2.039h1.918v.49h-1.918v2.298zm5.633-1.419l-.233.702a4.169 4.169 0 00-.066.233 1.027 1.027 0 00-.033.233.293.293 0 00.114.237.437.437 0 00.253.078h.339v.434h-2.103v-.434h.1c.07 0 .136-.008.195-.025a.431.431 0 00.166-.089.712.712 0 00.145-.18c.046-.078.093-.177.14-.3l1.752-4.794h1.108l1.688 4.802c.039.115.081.21.124.284a.678.678 0 00.142.18.476.476 0 00.163.093c.058.02.119.029.182.029h.147v.434h-2.667v-.434h.315c.04 0 .081-.007.122-.017a.333.333 0 00.113-.058.295.295 0 00.081-.096.322.322 0 00.031-.144.802.802 0 00-.023-.192l-.047-.159-.284-.817h-1.964zm1.376-1.834l-.089-.293-.09-.313-.088-.316-.073-.3-.081.27-.102.303-.106.311-.101.298-.477 1.378h1.632l-.425-1.338zm6.599 2.787c0 .117.01.21.032.279.02.069.05.122.087.159a.285.285 0 00.134.075c.05.01.103.017.161.017h.34v.434h-2.79v-.434h.339a.776.776 0 00.166-.017.262.262 0 00.131-.075.384.384 0 00.087-.16c.02-.069.031-.16.031-.278v-4.36h-.646a.979.979 0 00-.303.04.509.509 0 00-.198.113.445.445 0 00-.114.182 1.043 1.043 0 00-.054.244l-.055.505h-.544l.042-1.582h5.032l.039 1.582h-.54l-.059-.505a1.156 1.156 0 00-.054-.244.447.447 0 00-.115-.181.506.506 0 00-.199-.114.974.974 0 00-.303-.04h-.647v4.36zm9.721.964l-.556-.597a2.147 2.147 0 01-.738.488 2.42 2.42 0 01-.479.14c-.173.034-.36.05-.562.05-.331 0-.625-.04-.88-.116a1.792 1.792 0 01-.643-.342 1.418 1.418 0 01-.394-.546 1.885 1.885 0 01-.135-.732c0-.24.038-.444.112-.612.076-.168.177-.314.302-.437.126-.124.273-.229.44-.316a6.86 6.86 0 01.525-.24 4.243 4.243 0 01-.273-.364 2.289 2.289 0 01-.193-.344 1.71 1.71 0 01-.11-.35 2.046 2.046 0 01-.035-.386 1.046 1.046 0 01.408-.868c.136-.107.304-.188.507-.246a2.61 2.61 0 01.706-.085c.26 0 .487.03.679.091.194.061.355.146.481.252.128.105.224.23.289.37.064.14.096.289.096.445a1.16 1.16 0 01-.301.814 1.822 1.822 0 01-.383.317 4.604 4.604 0 01-.545.294l.06.06 1.144 1.213c.033-.189.056-.375.067-.56.011-.184.015-.353.015-.508v-.358h1.769v.429h-.127a2.09 2.09 0 00-.262.016.71.71 0 00-.238.074.602.602 0 00-.196.168.822.822 0 00-.135.296c-.044.152-.092.313-.15.485a5 5 0 01-.206.52l.805.847a.54.54 0 00.28.163c.11.028.238.04.382.04h.076v.434h-1.602zm-3.199-1.616c0 .163.025.314.077.452.051.14.122.262.215.365a.965.965 0 00.337.246c.133.06.28.09.44.09.287 0 .528-.049.725-.143.197-.094.361-.222.493-.381l-1.728-1.858a1.35 1.35 0 00-.278.26 1.288 1.288 0 00-.258.613 2.704 2.704 0 00-.023.356zm1.768-3.121c0-.095-.008-.184-.026-.266a.577.577 0 00-.087-.215.448.448 0 00-.174-.144.673.673 0 00-.28-.052.504.504 0 00-.234.052.442.442 0 00-.165.144.643.643 0 00-.094.217 1.059 1.059 0 00-.033.272c0 .092.011.182.033.266.02.086.051.17.093.253.04.084.093.168.156.253.062.086.136.175.221.272.113-.064.207-.132.283-.204a.91.91 0 00.279-.51c.018-.1.028-.213.028-.338zm10.971-1.029l1.115 3.115c.049.126.092.256.133.387l.112.376.09.33c.027.102.047.188.06.26l.067-.326.076-.376.088-.405c.03-.138.061-.272.092-.403l.427-1.76.025-.11.026-.125.017-.116.006-.086c0-.141-.041-.24-.124-.299-.082-.058-.214-.088-.392-.088h-.186v-.43h2.106v.43h-.154a.799.799 0 00-.209.025.362.362 0 00-.161.093.664.664 0 00-.129.193 2.099 2.099 0 00-.112.326l-1.253 4.755h-.92l-1.357-3.827-1.163 3.827h-1.002l-1.478-4.957a.84.84 0 00-.086-.21.482.482 0 00-.121-.135.439.439 0 00-.158-.07.91.91 0 00-.207-.02h-.107v-.43h2.698v.43h-.186c-.162 0-.283.032-.364.096-.08.065-.12.163-.12.298 0 .046.008.112.025.197.018.087.037.167.058.242l.54 1.883.092.337a10.046 10.046 0 01.223 1.025c.037-.175.077-.338.12-.492.043-.152.089-.309.136-.468l1.065-3.492h.592zm4.822 5.766v-.434h.34c.06 0 .115-.007.165-.017a.262.262 0 00.131-.075.396.396 0 00.087-.16c.02-.069.031-.16.031-.278v-3.894c0-.117-.011-.21-.031-.279a.396.396 0 00-.087-.159.252.252 0 00-.131-.073.684.684 0 00-.165-.02h-.34v-.433h2.789v.434h-.339a.7.7 0 00-.164.02.255.255 0 00-.132.072.372.372 0 00-.086.16.95.95 0 00-.033.278v3.894c0 .117.011.21.033.279.02.069.05.122.086.159a.265.265 0 00.132.075c.051.01.107.017.164.017h.339v.434h-2.789zM152.538 12.13c-.597.97-1.194 1.94-1.783 2.915-.599.992-1.205 1.98-1.811 2.967a8.137 8.137 0 01-.914 1.238 3.17 3.17 0 01-1.044.75c-.448.201-.972.291-1.458.331-.694.058-1.415.042-2.11.016l-.398-.017-.139-.005v-1.444h.143l.106.002c.27.012.526-.018.784-.095a2.22 2.22 0 00.686-.357c.248-.185.472-.408.676-.64.253-.288.477-.609.685-.933.596-.933 1.212-1.851 1.81-2.783.572-.89 1.152-1.774 1.731-2.659a7.779 7.779 0 01-1.237-.638 5.298 5.298 0 01-1.248-1.105 5.302 5.302 0 01-.889-1.616c-.248-.71-.34-1.476-.34-2.226 0-1.715.552-3.207 1.991-4.187 1.587-1.081 3.776-1.336 5.645-1.335a6891 6891 0 007.375.005h.143V1.81h-.525c-.288 0-.574.014-.86.056a1.642 1.642 0 00-.688.246 1.351 1.351 0 00-.45.538c-.137.285-.168.633-.168.944v14.15c0 .314.033.667.169.954.102.214.252.41.449.544.209.142.45.225.695.273.284.057.57.084.859.096l.382.016.137.007v1.496l-.15-.007c-2.741-.131-5.482-.26-8.222-.389l-.137-.006v-1.473l.499.022c.291.014.585.01.876-.021.233-.024.469-.088.675-.203.202-.116.351-.28.458-.488.134-.265.166-.623.166-.916v-5.449l-2.569-.072zM5.86 11.195v6.252c0 .323.032.718.169 1.014.101.216.245.414.446.544.207.135.446.202.688.232.289.035.582.04.873.028.123-.005.246-.01.37-.012l.145-.003v1.469l-.137.007c-2.735.127-5.47.258-8.206.384l-.15.006v-1.499l.14-.002.346-.013c.292-.013.587-.04.874-.1.24-.048.476-.137.682-.27.206-.133.343-.327.447-.546.135-.288.169-.64.169-.954V3.578c0-.312-.031-.663-.169-.947a1.265 1.265 0 00-.447-.536 1.7 1.7 0 00-.675-.249A5.773 5.773 0 00.55 1.79H.057V.292h.144c2.736 0 5.47-.003 8.206-.004h.143v1.475h-.143l-.365.002c-.294 0-.585.024-.874.072-.245.04-.484.118-.69.261-.2.14-.347.336-.449.558-.139.3-.17.684-.17 1.01v6.046a8.47 8.47 0 00.917-.067c.216-.03.445-.077.649-.156.142-.056.275-.138.38-.249.12-.124.25-.238.357-.376.332-.429.624-.991.865-1.478.433-.874.873-1.745 1.313-2.617.33-.655.693-1.293 1.086-1.913a8.431 8.431 0 011.15-1.464 4.642 4.642 0 011.337-.94 3.715 3.715 0 011.57-.336c.37 0 .75.032 1.106.14.273.083.55.202.767.393.19.168.33.378.421.614.091.236.142.487.142.74 0 .263-.038.515-.123.763a1.89 1.89 0 01-.794 1.029 1.794 1.794 0 01-.559.224l-.136.028-.032-.136a3.425 3.425 0 00-.175-.571 1.64 1.64 0 00-.306-.459 1.14 1.14 0 00-.429-.297 1.617 1.617 0 00-.612-.113c-.59.001-1.085.345-1.474.765-.63.682-1.165 1.653-1.588 2.477-.262.51-.522 1.019-.78 1.53-.202.397-.416.786-.635 1.172-.173.305-.351.613-.557.897-.116.16-.24.31-.376.452.326.024.65.075.965.166.353.104.676.255.974.473.288.21.54.474.747.766.233.328.456.661.656 1.012.878 1.546 1.754 3.092 2.64 4.633.348.604.8 1.235 1.398 1.607.5.312 1.059.456 1.647.433l.079-.005.152-.01v1.452l-.136.007-.4.017c-.75.03-1.527.046-2.277-.016-.519-.043-1.064-.142-1.542-.36a3.042 3.042 0 01-1.08-.81 7.632 7.632 0 01-.88-1.328c-.864-1.614-1.731-3.228-2.577-4.852-.174-.338-.38-.69-.628-.978a1.976 1.976 0 00-.698-.524c-.317-.141-.688-.205-1.032-.229a15.909 15.909 0 00-1.491-.022zM37.426 9.86c0 1.364-.167 2.729-.565 4.036-.354 1.163-.896 2.232-1.671 3.167a7.8 7.8 0 01-2.716 2.102c-1.166.547-2.432.784-3.712.83-1.284.046-2.614-.096-3.811-.585a6.811 6.811 0 01-2.722-1.974c-.773-.928-1.293-2.01-1.625-3.171-.384-1.342-.533-2.749-.533-4.142 0-1.395.148-2.806.533-4.15.334-1.169.854-2.26 1.624-3.202a7.197 7.197 0 012.72-2.05C26.155.195 27.477 0 28.787 0c1.267 0 2.515.2 3.683.712a7.538 7.538 0 012.717 2.004c.78.911 1.319 1.966 1.673 3.112.402 1.303.565 2.67.565 4.032zm7.444-1.308c2.842-.027 5.684-.052 8.526-.072V3.383c0-.303-.036-.638-.162-.916a1.162 1.162 0 00-.428-.5 1.59 1.59 0 00-.645-.236 5.467 5.467 0 00-.84-.061h-.512V.287h.144c2.635 0 5.268 0 7.903-.002h.145v1.374h-.494c-.283 0-.564.023-.842.065-.23.035-.452.11-.646.238-.19.126-.332.289-.427.499-.126.277-.163.611-.163.913v12.708c0 .274.033.596.16.843.098.19.236.352.422.46.203.116.438.174.667.204.272.036.55.047.824.041l.354-.004h.145v1.37l-.142.002c-2.635.042-5.27.088-7.904.13l-.146.002v-1.38l.141-.003.368-.006c.282-.004.564-.031.842-.075.23-.038.451-.118.646-.248.191-.13.332-.298.428-.51.125-.278.162-.613.162-.916v-5.93c-2.843.024-5.684.052-8.526.084v5.988c0 .296.03.647.16.917.098.202.239.378.427.499.2.128.428.196.66.226.28.036.56.05.841.043l.353-.007.145-.002v1.382l-.14.003-7.904.182-.146.004v-1.396l.14-.003.35-.006a5.63 5.63 0 00.841-.084c.236-.042.465-.118.663-.255.19-.132.332-.313.43-.522.128-.267.146-.636.146-.928V3.317c0-.284-.03-.602-.16-.86a1.226 1.226 0 00-.428-.49c-.2-.127-.429-.195-.661-.228a5.963 5.963 0 00-.827-.053h-.494V.291l8.19-.002v1.384h-.494a6.001 6.001 0 00-.841.065 1.624 1.624 0 00-.66.242c-.19.127-.332.304-.431.509-.13.271-.16.625-.16.923v5.14zm26.6 1.41c-1.317.002-2.635.007-3.952.011v5.88c0 .29.03.635.166.898.104.202.251.378.445.498.21.13.452.195.693.227.29.04.584.06.878.06l.365-.002h.144v1.364l-.143.002c-2.74.021-5.482.046-8.223.073l-.144.002v-1.371l.141-.003.366-.005c.294-.002.587-.025.877-.069.243-.037.485-.108.693-.24.193-.124.347-.3.445-.506.127-.267.153-.614.153-.906V3.257c0-.28-.031-.59-.166-.84a1.267 1.267 0 00-.446-.483 1.784 1.784 0 00-.677-.223 6.401 6.401 0 00-.877-.053h-.509V.285h8.51v1.368h-.51c-.293 0-.586.022-.876.064a1.753 1.753 0 00-.692.236 1.271 1.271 0 00-.447.5c-.136.263-.166.608-.166.9v5.05c1.33-.005 2.66-.007 3.992-.01.085-1.147.299-2.287.697-3.368.37-1.008.912-1.93 1.66-2.7.748-.77 1.649-1.328 2.64-1.718C77.648.16 78.9 0 80.117 0c1.246 0 2.49.194 3.643.686a7.324 7.324 0 012.693 1.94c.765.88 1.283 1.918 1.64 3.025.408 1.263.572 2.592.572 3.917 0 1.325-.164 2.647-.572 3.91-.358 1.114-.885 2.143-1.656 3.025a7.415 7.415 0 01-2.693 1.948c-1.156.495-2.412.673-3.66.673-1.26 0-2.553-.166-3.726-.647a7.149 7.149 0 01-2.678-1.886c-.755-.855-1.28-1.855-1.624-2.944-.376-1.19-.545-2.44-.585-3.685zm24.79 7.436c2.209.021 4.417.052 6.626.085V3.276c0-.27-.028-.567-.132-.818a1.08 1.08 0 00-.382-.471 1.505 1.505 0 00-.569-.251 3.475 3.475 0 00-.721-.072l-.08-.003h-.143V.287h7.104V1.67h-.223c-.249 0-.496.024-.739.072a1.241 1.241 0 00-.575.256 1.388 1.388 0 00-.359.512c-.116.268-.148.588-.148.877V17.53c2.215.033 4.429.076 6.643.124V3.412c0-.31-.041-.642-.177-.923-.1-.21-.237-.382-.429-.51a1.613 1.613 0 00-.646-.24 5.469 5.469 0 00-.839-.066h-.511V.289l8.206.003v1.394h-.495c-.282 0-.562.023-.842.064-.239.035-.457.1-.659.237-.186.124-.318.31-.414.51-.135.282-.177.615-.177.926v12.862c0 .296.043.6.176.867.103.206.24.373.43.5.194.129.42.206.647.244.279.046.561.066.843.073l.352.008.139.005v1.392l-.147-.003c-9.072-.21-18.147-.358-27.222-.453l-.141-.001v-1.37l.146.003.35.004c.277.003.551-.008.825-.047a1.65 1.65 0 00.662-.218c.183-.115.329-.283.428-.474.13-.252.16-.563.16-.842V3.358c0-.286-.018-.646-.145-.906a1.222 1.222 0 00-.446-.498 1.579 1.579 0 00-.644-.235 5.536 5.536 0 00-.842-.064l-.353-.002-.141-.004V.284h8.19V1.66h-.495c-.28 0-.562.021-.84.063a1.644 1.644 0 00-.662.233 1.242 1.242 0 00-.429.501c-.13.267-.16.615-.16.908v14.034zm29.985-7.065v6.093c0 .317.042.658.178.947.1.213.237.397.431.532.193.134.415.22.646.261.278.05.558.083.84.09l.491.015v1.411l-.147-.004c-2.629-.078-5.259-.154-7.888-.233l-.138-.005V18.04l.148.006.333.01c.287.007.572-.002.857-.04.226-.03.451-.099.643-.223.192-.125.332-.29.426-.5.128-.283.163-.628.163-.935V3.353c0-.295-.043-.606-.176-.872a1.246 1.246 0 00-.429-.5 1.629 1.629 0 00-.646-.23 5.999 5.999 0 00-.842-.058h-.477v-1.4l8.173.003V1.71h-.494a5.336 5.336 0 00-.841.063c-.228.035-.451.11-.644.242a1.25 1.25 0 00-.429.516c-.138.288-.178.626-.178.942v5.24c2.848.04 5.695.084 8.543.13v-5.32c0-.309-.03-.674-.162-.958a1.303 1.303 0 00-.431-.529 1.521 1.521 0 00-.643-.248 5.359 5.359 0 00-.856-.068h-.495V.298h.144c2.629.002 5.258.004 7.887.004h.144v1.439h-.144l-.335-.002c-.281 0-.563.02-.841.063-.235.036-.461.11-.659.247a1.285 1.285 0 00-.43.528c-.129.278-.146.661-.146.963v13.357c0 .299.031.632.162.902.098.207.231.386.425.509.2.125.424.208.654.252.276.055.558.08.839.09l.336.015.139.005v1.435l-.15-.005c-2.628-.102-5.258-.199-7.886-.291l-.139-.006v-1.415l.147.003.353.01c.287.009.571-.002.857-.036.233-.028.443-.095.64-.225.19-.126.331-.306.428-.512.132-.277.162-.644.162-.948v-6.197c-2.848-.055-5.695-.107-8.543-.15zm-102.886-.245c0 1.185.08 2.39.3 3.556.172.9.451 1.818.94 2.598.417.667.97 1.192 1.668 1.552.758.392 1.644.503 2.485.475.865-.029 1.745-.2 2.506-.63a4.507 4.507 0 001.655-1.632c.477-.789.758-1.7.924-2.603.212-1.152.3-2.334.3-3.505 0-1.168-.087-2.345-.3-3.495-.165-.888-.445-1.793-.922-2.563-.413-.665-.951-1.207-1.64-1.575-.76-.406-1.633-.537-2.486-.536-.856.002-1.742.143-2.504.554-.704.382-1.259.932-1.687 1.612-.491.782-.767 1.716-.938 2.62-.222 1.172-.301 2.38-.301 3.572zm51.517-.529c0 1.126.076 2.272.296 3.376.173.864.448 1.73.912 2.482.399.648.92 1.166 1.59 1.522.735.39 1.586.521 2.408.521.83.001 1.667-.127 2.409-.521a4.053 4.053 0 001.589-1.52c.455-.757.73-1.619.895-2.483.211-1.105.28-2.253.28-3.377 0-1.122-.069-2.27-.28-3.373-.165-.86-.439-1.73-.895-2.48-.39-.641-.913-1.166-1.573-1.519-.733-.392-1.57-.52-2.391-.52-.83 0-1.684.13-2.426.52-.674.356-1.199.874-1.607 1.52-.47.745-.739 1.621-.911 2.48-.22 1.104-.296 2.248-.296 3.372zm80.231-7.545l-1.219-.004c-.708-.001-1.469.053-2.154.24-.529.145-1.042.368-1.454.74-.386.348-.644.799-.807 1.292-.204.613-.258 1.297-.258 1.94 0 .585.067 1.178.242 1.737.153.487.387.928.732 1.303.354.385.781.658 1.262.855.565.23 1.203.322 1.81.336.616.013 1.231.03 1.846.044V2.014zM17.889 20.12l.062-.002a.037.037 0 00.035-.036v-.406l-.01-.026-.027-.011-.067.002c-.61.018-1.22.024-1.83-.027-.452-.038-.927-.118-1.343-.307a2.476 2.476 0 01-.87-.652 6.972 6.972 0 01-.808-1.222c-.863-1.612-1.728-3.224-2.573-4.848-.2-.384-.425-.763-.708-1.092a2.605 2.605 0 00-.909-.683c-.384-.17-.814-.25-1.232-.278-.444-.031-.885-.03-1.33-.02a.462.462 0 00-.439.37l-.016.08.008.032.029.013.08-.003c.435-.01.866-.01 1.3.02.403.03.818.105 1.19.27.332.148.623.37.862.647.277.32.495.692.692 1.068.844 1.623 1.71 3.235 2.572 4.849.236.439.505.864.825 1.244.252.299.563.526.915.686.43.197.92.28 1.387.319.733.06 1.47.043 2.205.013zM15.802 1.938c-.782-.31-1.986-.081-2.45.676a.035.035 0 00.005.045l.046.005c.38-.241.752-.386 1.207-.387.27-.001.533.045.785.145.233.093.43.232.6.415a2.129 2.129 0 01.468.78l.025.076.022.023.031-.003.068-.04c.13-.079.236-.181.336-.296l.024-.027.008-.036-.012-.035a2.268 2.268 0 00-.515-.893 1.78 1.78 0 00-.648-.448zm-3.473.645l.037-.051a.039.039 0 00-.009-.052l-.1-.075a.036.036 0 00-.05.006l-.04.05c-.2.252-.384.518-.558.79-.383.607-.74 1.23-1.063 1.872-.439.87-.879 1.74-1.311 2.615-.214.43-.437.856-.701 1.257l-.033.05a.037.037 0 00.007.05l.095.074c.016.013.037.01.05-.005l.04-.044.087-.105c.373-.482.66-1.035.93-1.581.432-.873.872-1.743 1.31-2.613.322-.637.676-1.258 1.058-1.86a9.6 9.6 0 01.252-.378zM7.287 1.157c-.803.133-1.064.393-1.515 1.051a.038.038 0 00.007.05.036.036 0 00.049-.002c.667-.624 1.131-.675 2.007-.685H7.9c.02 0 .035-.017.035-.037v-.409l-.011-.027-.027-.01-.07.006a5.894 5.894 0 00-.54.063zm-5.04 18.566a.038.038 0 00-.01.05c.012.016.032.02.05.011 1.016-.548 1.247-1.144 1.247-2.275V3.499c0-.705-.137-1.361-.713-1.816-.477-.377-1.14-.554-1.738-.577-.22-.01-.438-.01-.656-.01a.037.037 0 00-.037.036l-.003.09v.337c0 .02.016.037.037.037h.064c.289.001.579.018.864.06.305.047.601.152.86.32.278.18.474.432.617.727.172.355.216.766.216 1.156V17.87c0 .933-.05 1.257-.799 1.853zm-1.824.7a.036.036 0 00-.036.036v.403l.012.027.026.01.068-.002c2.45-.117 4.898-.228 7.346-.346l.062-.002a.037.037 0 00.035-.037v-.403l-.011-.027-.027-.01-.068.004c-1.98.086-3.957.186-5.936.279l-1.471.068zM22.556 3.547l.036-.051a.038.038 0 00-.009-.051l-.1-.076a.037.037 0 00-.05.007l-.04.048c-.696.875-1.173 1.89-1.48 2.963-.371 1.303-.513 2.665-.513 4.018 0 1.35.142 2.71.514 4.01.313 1.093.804 2.122 1.532 2.997a6.363 6.363 0 002.538 1.839c1.138.464 2.4.593 3.617.55 1.213-.043 2.424-.267 3.53-.787a7.46 7.46 0 001.527-.956l.048-.039a.038.038 0 00.007-.051l-.075-.101a.038.038 0 00-.05-.008l-.051.036a7.282 7.282 0 01-1.102.639c-1.09.511-2.284.73-3.48.773-1.198.044-2.444-.083-3.563-.54a6.236 6.236 0 01-2.487-1.801c-.717-.862-1.2-1.873-1.507-2.95-.37-1.288-.509-2.635-.509-3.972 0-1.34.14-2.69.509-3.982.255-.893.627-1.753 1.157-2.515zm2.83-1.312l-.047.039c-.014.013-.017.035-.006.05l.074.1c.012.015.033.02.05.008l.05-.034c.134-.09.271-.175.413-.25.833-.451 1.789-.61 2.725-.612.932-.002 1.878.147 2.71.592.76.407 1.361 1.009 1.817 1.742.512.824.81 1.778.986 2.729.22 1.18.31 2.382.31 3.582 0 1.203-.091 2.41-.31 3.592-.177.963-.476 1.924-.984 2.764a5.72 5.72 0 01-.15.237l-.036.05a.039.039 0 00.008.052l.099.074a.037.037 0 00.05-.006l.04-.048a5.49 5.49 0 00.459-.652c.516-.854.82-1.83 1.001-2.809.22-1.19.312-2.405.312-3.616 0-1.207-.092-2.418-.312-3.606-.18-.967-.484-1.936-1.004-2.775-.467-.753-1.085-1.37-1.866-1.788-.851-.456-1.817-.61-2.771-.607-.959.002-1.936.165-2.787.627-.294.159-.572.35-.83.565zm21.454-1.15a.036.036 0 00-.036-.037c-1.083 0-1.416.116-2.055 1.024a.036.036 0 00.006.048.036.036 0 00.049 0c.708-.618 1.034-.626 1.937-.64l.064-.001c.02 0 .035-.017.035-.037v-.358zm-7.209-.035l-.026.01-.011.027v.368c0 .02.017.036.037.036l.064.002c.271.002.544.019.813.056.3.042.594.134.85.299.257.164.458.403.596.676.166.33.211.71.211 1.076v12.58c0 .93-.004 1.336-.767 1.951a.038.038 0 00-.007.05c.01.016.031.021.047.013 1.061-.584 1.215-1.213 1.215-2.376V3.238c0-.388-.048-.786-.225-1.136a1.85 1.85 0 00-.642-.728 2.194 2.194 0 00-.894-.316l-1.26-.008zm7.111 17.96l.063-.001c.02 0 .035-.017.035-.037v-.357l-.01-.027-.026-.01h-.066c-2.35.027-4.699.07-7.046.153l-.063.003a.036.036 0 00-.035.037v.365l.012.027.025.01h.066c2.348-.053 4.697-.107 7.045-.163zm-2.251-9.179l-.016.08.007.03.029.013h.08c2.934-.027 5.868-.064 8.803-.088.091-.001.168.03.234.096a.32.32 0 01.098.236v5.932c0 .8-.06 1.149-.61 1.751a.038.038 0 000 .05.036.036 0 00.048.007c.853-.58 1.05-1.158 1.05-2.17V9.836a.454.454 0 00-.136-.328.443.443 0 00-.327-.135c-2.939.025-5.877.054-8.815.088a.46.46 0 00-.445.37zm13.795 8.979h.063c.019 0 .035-.017.035-.038v-.346l-.01-.026-.026-.011h-.065c-.27.004-.54-.008-.808-.045l-.034-.005c-1.799.027-3.592.058-5.386.087a6.55 6.55 0 01-.818.072l-.063.002a.038.038 0 00-.036.037v.354l.011.026.027.01h.066c2.347-.036 4.695-.08 7.044-.117zM56.609 1.616l-.323.328a.037.037 0 00-.002.048c.01.015.03.02.046.01l.4-.225c.454-.256 1.045-.304 1.556-.311l.063-.002c.019 0 .035-.017.035-.036V1.08a.036.036 0 00-.036-.036c-.7 0-1.22.045-1.739.572zm-2.883 2.049v4.944l.013.029.03.007.077-.016a.464.464 0 00.368-.454V3.303c0-.395-.053-.807-.218-1.17a1.775 1.775 0 00-.644-.755 2.209 2.209 0 00-.887-.329l-.012-.001-1.278-.002a.037.037 0 00-.037.037v.355c0 .02.017.037.037.037h.064c.284.001.568.025.849.067.295.044.583.143.834.308.264.174.466.41.598.7.156.345.206.739.206 1.115zm15.767-2.206h.064c.02-.001.036-.018.036-.037V1.08a.038.038 0 00-.037-.036c-1.204 0-1.56.052-2.176 1.152a.036.036 0 00.011.048.036.036 0 00.049-.006c.713-.841 1.028-.768 2.053-.78zm-5.206-.003c-.668-.403-1.468-.412-2.223-.413a.038.038 0 00-.036.037v.346c0 .02.016.036.036.036h.064c.294.003.587.018.879.058.298.041.595.13.854.287.263.16.473.394.62.664.174.326.222.704.222 1.068v12.473c0 .807-.04 1.117-.595 1.726a.038.038 0 000 .05.036.036 0 00.048.006c.86-.592 1.035-1.118 1.035-2.143V3.424c0-.833-.152-1.514-.904-1.968zm5.206 16.838c-2.456-.028-4.91.013-7.366.06l-.063.002a.036.036 0 00-.036.036v.346l.011.026.026.01h.065c2.454-.019 4.909-.046 7.362-.066h.064c.02 0 .037-.016.037-.037v-.339a.039.039 0 00-.037-.038h-.063zM67.53 9.657l-.016.078.008.03.029.014h.08c1.408-.005 2.426-.01 3.836-.011a.33.33 0 01.328.323c.03 1.248.19 2.5.566 3.693.323 1.022.818 1.968 1.528 2.772a6.693 6.693 0 002.502 1.761c1.118.46 2.349.613 3.548.613 1.184 0 2.38-.167 3.476-.636a7.114 7.114 0 001.693-1.02l.048-.039a.039.039 0 00.007-.052l-.074-.1a.036.036 0 00-.051-.008l-.05.036c-.397.277-.821.51-1.266.7-1.079.463-2.258.625-3.425.625-1.181 0-2.397-.15-3.498-.602a6.568 6.568 0 01-2.455-1.727c-.697-.79-1.183-1.72-1.5-2.725-.373-1.18-.53-2.42-.56-3.655a.463.463 0 00-.46-.453c-1.412.002-2.433.005-3.846.012a.46.46 0 00-.448.37zm6.297-6.149l.036-.051a.036.036 0 00-.008-.05l-.1-.076a.037.037 0 00-.05.006l-.039.049a7.325 7.325 0 00-1.16 2.086 10.414 10.414 0 00-.652 3.024l-.006.086.013.03.031.008.083-.016a.463.463 0 00.365-.424c.07-1.076.275-2.012.647-3.022.214-.581.49-1.14.84-1.65zm2.968-1.377l-.046.04a.036.036 0 00-.006.05l.073.098c.011.015.033.02.05.008l.05-.034c.133-.09.27-.171.412-.246.811-.428 1.737-.574 2.644-.574.9 0 1.81.146 2.612.575.735.393 1.32.978 1.754 1.691.489.802.78 1.718.957 2.638.218 1.14.288 2.305.288 3.465 0 1.16-.07 2.326-.288 3.466-.176.922-.47 1.835-.956 2.64l-.123.194-.033.05a.038.038 0 00.008.051l.098.074a.036.036 0 00.05-.006l.04-.047c.158-.192.301-.396.43-.61.494-.818.794-1.744.972-2.682.22-1.15.29-2.324.29-3.492 0-1.167-.07-2.34-.29-3.489-.178-.936-.477-1.867-.973-2.684-.446-.732-1.049-1.334-1.805-1.737-.821-.439-1.752-.59-2.672-.59-.929 0-1.875.151-2.705.59a4.521 4.521 0 00-.83.561zm40.755-.979v-.065a.036.036 0 00-.036-.037h-.065c-.54 0-.937.042-1.399.351-.096.065-.185.141-.265.226l-.289.301a.037.037 0 00-.003.048c.012.015.031.02.047.01l.366-.2c.222-.12.463-.19.713-.226.275-.039.554-.063.832-.067l.064-.002a.036.036 0 00.035-.036v-.303zm-4.171 2.253c0-.427-.081-.856-.282-1.234a2.005 2.005 0 00-1.54-1.05l-1.23-.077-.028.01-.01.026v.363c0 .019.016.035.036.036h.063c.285.004.571.027.852.071.296.047.584.146.834.314.262.176.455.414.593.698.168.35.224.747.224 1.132V17.6l.014.028.029.008.077-.015a.444.444 0 00.23-.124.452.452 0 00.138-.33V3.405zm-7.255-1.829l-.274.29a.035.035 0 00-.003.047c.011.015.03.019.046.011l.351-.187c.164-.087.341-.144.523-.18.161-.032.324-.054.488-.068l.059-.005a.037.037 0 00.034-.037v-.364a.037.037 0 00-.037-.037h-.064c-.301 0-.763.213-.991.406-.046.04-.091.08-.132.124zm-2.909 1.983v13.886l.013.029.03.008.078-.014a.452.452 0 00.231-.125.455.455 0 00.137-.331V3.196c0-1.426-1.094-2.15-2.416-2.15h-.064a.037.037 0 00-.036.036v.36c0 .018.014.035.033.036l.059.005c.16.013.32.035.476.069.269.056.52.167.746.328.243.173.427.398.544.676.13.313.169.664.169 1.003zm-6.772-1.95l-.306.313a.037.037 0 00-.004.049c.01.015.03.019.047.01l.384-.211c.227-.126.478-.198.734-.236.275-.043.554-.064.834-.069h.063a.038.038 0 00.035-.037V1.08a.037.037 0 00-.037-.036h-.064c-.55 0-.92.01-1.395.324a1.7 1.7 0 00-.29.24zm-3.607 15.896a.038.038 0 00-.008.049c.01.015.03.02.048.012.925-.388 1.168-.735 1.168-1.816V3.279c0-1.903-1.334-2.293-2.962-2.235l-.062.002a.036.036 0 00-.035.037v.34c0 .02.016.037.035.037l.065.001c.278.005.557.027.833.069.296.044.583.141.834.307.265.175.47.4.61.686.165.337.193.747.193 1.117v12.47c0 .826-.08.862-.72 1.395zm-1.75.74h-.065a.037.037 0 00-.036.036v.41c0 .02.016.037.035.037h.065c8.788.102 17.576.241 26.363.438l.065.002.026-.01.011-.027v-.41a.035.035 0 00-.035-.035l-.062-.003c-.359-.01-.718-.034-1.077-.041a2129.03 2129.03 0 00-23.545-.39c-.582-.008-1.164-.008-1.745-.008zm48.071 1.118c-1.975-.077-3.951-.148-5.924-.22a6.262 6.262 0 01-.6.019l-.066-.002-.026.011-.011.026v.393c0 .02.016.036.035.037l.063.002c2.343.083 4.685.173 7.027.259l.068.003.026-.01.011-.027v-.408a.038.038 0 00-.035-.038l-.061-.002a6.42 6.42 0 01-.507-.043zm-1.143-17.678l-.312.318a.038.038 0 00-.004.048c.012.015.032.02.048.01l.388-.215c.22-.122.461-.195.708-.234.271-.04.544-.063.819-.067l.063-.001c.02 0 .036-.017.036-.037V1.1l-.012-.027-.027-.01-.069.004c-.158.012-.315.03-.471.054-.326.05-.637.159-.91.346a1.85 1.85 0 00-.257.218zm-4.542-.627l-.905-.001-.026.01-.011.026v.396c0 .019.016.036.036.036l.064.002c.285.004.571.027.852.072a2 2 0 01.837.326c.26.18.457.432.591.72.165.354.207.773.207 1.16v5.17l.013.029.031.008.075-.016a.438.438 0 00.232-.124.45.45 0 00.138-.33V3.444c0-.408-.046-.845-.22-1.218a1.903 1.903 0 00-.634-.77 2.131 2.131 0 00-.89-.347 5.474 5.474 0 00-.39-.051zm-7.013.599l-.31.318a.038.038 0 00-.003.049c.012.014.031.019.047.01l.386-.216c.218-.121.457-.197.703-.235.276-.042.555-.066.834-.068h.064c.02 0 .036-.017.036-.037v-.386a.037.037 0 00-.036-.038h-.065c-.489 0-.972.097-1.383.375a1.688 1.688 0 00-.273.228zm-2.413 1.863c0-2.007-1.261-2.467-3.024-2.468a.037.037 0 00-.036.037v.372c0 .02.016.037.036.037l.063.001c.274.004.546.022.816.062.295.043.584.14.834.302.262.171.455.405.595.685.168.335.227.715.227 1.088v12.715c0 .82-.19 1.299-.74 1.899a.036.036 0 00-.001.048.035.035 0 00.048.007c.848-.565 1.182-1.137 1.182-2.17V3.52zm4.073 15.493c-2.343-.093-4.686-.178-7.031-.196h-.066l-.025.01-.011.027v.37c0 .02.016.036.036.037l.063.001c2.342.065 4.684.131 7.027.209l.066.001.027-.01.011-.025v-.386a.036.036 0 00-.035-.036l-.062-.002zm-1.894-8.993l-.015.076.008.031.027.013.078.002c2.824.036 5.647.096 8.471.149a.33.33 0 01.323.331v6.34c0 .899-.204 1.038-.771 1.663a.038.038 0 00-.002.049.035.035 0 00.048.008c.96-.573 1.214-.945 1.214-2.082v-6.338a.463.463 0 00-.451-.464c-2.824-.054-5.648-.108-8.472-.15a.443.443 0 00-.329.133.458.458 0 00-.129.24zm26.64 10.038l-.066-.001-.026.011-.011.026v.427c0 .02.015.035.034.037l.061.003c2.454.128 4.91.223 7.364.348l.068.003.027-.01.011-.027v-.436a.037.037 0 00-.035-.037l-.061-.003c-2.456-.119-4.908-.295-7.366-.34zm5.608-18.299l-.309.315a.036.036 0 00-.003.048c.011.016.03.02.047.01l.386-.212c.233-.129.49-.204.752-.242a6.1 6.1 0 01.88-.06h.064c.02 0 .037-.017.037-.038v-.412l-.011-.027-.027-.01-.068.003c-.179.01-.358.027-.535.053a2.25 2.25 0 00-.936.34c-.1.068-.193.146-.277.232zm-11.201 1.385l.033-.051a.037.037 0 00-.009-.05l-.096-.072a.036.036 0 00-.05.006l-.039.045c-.745.87-.995 1.966-.995 3.09 0 .699.083 1.408.315 2.068a4.76 4.76 0 00.806 1.47c.324.394.704.735 1.135 1.007.416.263.858.487 1.319.661a.322.322 0 01.198.208.38.38 0 01.017.126l.013.03.032.008c.499-.121.622-.676.144-.856a7.206 7.206 0 01-1.296-.65 4.663 4.663 0 01-1.104-.98 4.66 4.66 0 01-.784-1.43c-.226-.644-.305-1.34-.305-2.022 0-.914.171-1.829.666-2.607zm-4.024 16.502l-.027.011-.011.026v.431c0 .02.015.036.035.037l.062.002c.679.027 1.361.042 2.039-.014.437-.036.902-.11 1.306-.29.267-.12.512-.28.727-.48l.043-.04a.035.035 0 00.006-.047c-.009-.016-.027-.021-.045-.014-.508.21-1.142.333-1.689.378-.678.056-1.359.043-2.038.014l-.045-.002-.363-.012zm9.39-7.769l-.001.038.032.019.151-.001 2.297.078a.33.33 0 01.319.332v5.59c0 .856-.059.998-.716 1.54-.015.012-.019.032-.008.048.01.017.03.022.047.014.981-.495 1.166-.868 1.166-1.964v-5.59a.461.461 0 00-.446-.463c-.768-.023-1.535-.056-2.303-.078a.455.455 0 00-.404.22l-.134.217zm-2.525-9.438l-.044.04a.035.035 0 00-.005.05l.071.095c.012.017.033.02.049.01l.051-.032c.378-.245.8-.411 1.232-.53.737-.2 1.518-.259 2.279-.256l1.363.004c.18.001.327.15.327.332v8.479l.014.027.03.009.076-.015a.446.446 0 00.231-.124.452.452 0 00.138-.331V2.08c0-.413-.232-.753-.666-.753-.385 0-.77-.003-1.155-.004-.772-.003-1.565.056-2.313.26-.612.168-1.2.429-1.678.856z"/></g><defs><clipPath id="bclip0_2162_3352"><path fill="#fff" transform="translate(.057)" d="M0 0h160.885v32H0z"/></clipPath></defs></svg></svg>